<svg xmlns="http://www.w3.org/2000/svg" width="71" height="84" viewBox="0 0 71 84" fill="none">
<path opacity="0.1" d="M5.40783 65.5601C4.48205 64.6283 3.41245 63.8044 2.65677 62.747C-0.686927 58.0678 0.35202 51.4157 5.01043 47.8816C9.79863 44.25 14.6737 40.7359 19.5133 37.1727C23.9383 33.9131 28.3701 30.6615 32.7875 27.3914C33.0891 27.1694 33.3785 26.8614 33.5481 26.5298C37.0328 19.752 40.4995 12.9671 43.9705 6.18232C44.0585 6.01037 44.131 5.83054 44.2528 5.56298C43.6619 5.26068 43.0923 4.97592 42.5281 4.68063C41.3346 4.05236 40.9066 2.81066 41.4796 1.67372C42.0561 0.534144 43.3287 0.124817 44.5191 0.73379C52.5752 4.84851 60.6303 8.96938 68.681 13.0946C69.8748 13.7054 70.2876 14.9725 69.6999 16.1086C69.1131 17.2429 67.8584 17.6215 66.6488 17.0204C66.092 16.7444 65.5407 16.4535 64.8932 16.1223L64.5172 16.8575C61.091 23.5546 57.6598 30.249 54.2516 36.9532C54.0497 37.3479 53.9411 37.8347 53.9371 38.2777C53.8149 49.5628 53.7203 60.8488 53.6007 72.133C53.5303 78.7758 48.2319 83.8355 41.8807 83.3159C40.9078 83.2365 39.958 82.9388 38.9967 82.7437L5.40783 65.5601ZM24.1866 70.195C29.4619 72.8938 34.7264 75.6136 40.0161 78.2843C44.212 80.4021 49.1694 77.2931 49.2401 72.5166C49.3192 67.0227 49.355 61.5288 49.4264 56.0332C49.4327 55.6025 49.2933 55.3851 48.9216 55.195C39.926 50.6062 30.934 46.0061 21.9491 41.3963C21.5792 41.207 21.3187 41.2176 20.9732 41.4748C16.4484 44.8449 11.8892 48.1641 7.40657 51.5912C6.61793 52.195 5.94277 53.1557 5.56982 54.0917C4.26228 57.3699 5.54853 60.6512 8.62114 62.2275C13.8072 64.8895 19.0005 67.5374 24.1901 70.1924L24.1866 70.195ZM49.4402 50.4683C49.4558 50.0534 49.4733 49.7657 49.4761 49.4772C49.5146 45.5453 49.5254 41.6126 49.6123 37.679C49.6285 36.9545 49.8198 36.1625 50.1476 35.5133C53.6076 28.6697 57.113 21.8471 60.6056 15.0202L61.0257 14.1991L48.1046 7.58885C47.9368 7.91696 47.7914 8.20119 47.6468 8.48367C44.1534 15.3124 40.6711 22.1446 37.1494 28.9566C36.8354 29.5619 36.3378 30.1375 35.7958 30.5465C32.5955 32.9582 29.3565 35.3147 26.1326 37.6922C25.9274 37.844 25.7306 38.009 25.4796 38.2082L49.4411 50.4665L49.4402 50.4683Z" fill="#1890FF" stroke="#1890FF" stroke-width="0.3"/>
</svg>