<svg xmlns="http://www.w3.org/2000/svg" class="ms-20" width="95" height="101" viewBox="0 0 95 101" fill="none">
  <g opacity="0.1">
    <path d="M50.132 5.61133C50.8354 5.94281 51.5976 6.18429 52.2267 6.61896C53.8145 7.71659 54.4414 9.34109 54.4501 11.229C54.4632 13.6833 54.4632 16.1376 54.4501 18.592C54.4392 20.8926 53.4869 22.6291 51.4076 23.7069C51.1936 23.8189 50.9926 24.1789 50.9839 24.4314C50.9424 25.7442 50.9336 27.0613 50.9839 28.3741C50.9992 28.7451 51.1826 29.16 51.4076 29.4651C53.9718 32.9359 56.5251 36.4154 59.1548 39.8334C60.7361 41.8882 61.4678 44.1537 61.4438 46.7397C61.4023 51.1215 61.4329 55.5032 61.4329 59.8872C61.4329 60.2055 61.4329 60.5238 61.4329 60.9936C61.8129 60.7894 62.0837 60.6511 62.3502 60.4997C64.672 59.1715 66.9479 57.7534 69.3199 56.5262C77.5301 52.2762 87.7803 57.558 89.2219 66.7342C90.1567 72.679 87.6034 78.1782 82.3374 81.2801C75.3962 85.3655 68.4331 89.4136 61.4372 93.4046C54.7428 97.2265 47.1048 95.4176 42.7016 89.0272C42.363 88.5355 41.9873 88.5355 41.5243 88.5355C32.5693 88.5355 23.6164 88.5486 14.6614 88.5311C10.9636 88.5223 8.1635 86.9 6.52101 83.5434C6.03613 82.5512 5.69977 81.3811 5.66919 80.2834C5.55998 76.4878 5.60804 72.69 5.60585 68.8922C5.60148 61.4414 5.63425 53.9929 5.58838 46.5421C5.57309 44.0681 6.27857 41.9189 7.76817 39.9607C10.3979 36.5032 12.9883 33.0171 15.5547 29.5134C15.8539 29.1051 16.0177 28.5234 16.0505 28.0119C16.1226 26.8769 16.057 25.7354 16.0811 24.596C16.0898 24.1438 15.9893 23.8782 15.5372 23.6477C13.637 22.6818 12.6235 21.099 12.5973 18.9476C12.5668 16.2891 12.5558 13.6307 12.5973 10.9722C12.6388 8.33127 14.0542 6.54212 16.59 5.78256C16.7232 5.73426 16.8521 5.66621 16.9853 5.61133C28.0349 5.61133 39.0824 5.61133 50.132 5.61133ZM9.13326 74.477C9.37352 74.4901 9.51549 74.5055 9.65746 74.5055C20.2703 74.5055 30.8831 74.5121 41.4937 74.4814C41.8366 74.4814 42.3084 74.1982 42.5028 73.9018C43.5905 72.2444 44.8704 70.7713 46.5631 69.7483C50.0971 67.6145 53.6682 65.5422 57.2415 63.4721C57.7569 63.1735 57.9601 62.853 57.9557 62.2449C57.9273 58.0388 57.9404 53.8304 57.9404 49.6243C57.9404 49.3455 57.9404 49.0645 57.9404 48.7901H9.13326V74.4792V74.477ZM19.5626 24.2184C19.5626 25.6893 19.5233 27.0855 19.5757 28.4795C19.615 29.5266 19.3202 30.385 18.6824 31.2257C15.8801 34.916 13.1237 38.6414 10.352 42.3558C9.72298 43.1966 9.22937 44.0922 9.16821 45.2008H57.8334C57.7897 44.0922 57.2939 43.2185 56.6823 42.3975C54.0526 38.8697 51.4076 35.3507 48.7953 31.8097C48.4634 31.3575 48.127 31.1972 47.5744 31.1994C42.5465 31.2214 37.5186 31.2126 32.4906 31.2104C32.1717 31.2104 31.8463 31.2214 31.534 31.1687C30.6428 31.0194 30.064 30.3454 30.0487 29.4893C30.0334 28.5958 30.6275 27.8933 31.558 27.7418C31.8419 27.6957 32.1368 27.7045 32.4273 27.7045C37.1057 27.7045 41.7864 27.7045 46.4649 27.7045C46.775 27.7045 47.083 27.7045 47.404 27.7045V24.2206H19.5626V24.2184ZM58.5869 66.7803C58.386 66.8769 58.2265 66.9384 58.0802 67.024C54.7952 68.9515 51.4163 70.7384 48.2493 72.8459C44.2414 75.5109 42.8304 80.7949 44.6433 85.2931C46.4627 89.8065 51.1149 92.4496 55.8633 91.7471C57.9754 91.4354 59.7249 90.3619 61.5071 89.328C63.9927 87.8835 66.4783 86.439 69.0294 84.9594C65.5347 78.8763 62.0685 72.8459 58.5847 66.7825L58.5869 66.7803ZM33.4713 20.6884C38.5298 20.6884 43.5883 20.6884 48.6468 20.6884C50.3243 20.6884 50.9577 20.0518 50.962 18.3571C50.9686 16.0191 50.9729 13.6833 50.962 11.3454C50.9533 9.77356 50.2893 9.12157 48.7167 9.12157C38.5691 9.11937 28.4237 9.11937 18.2761 9.12157C16.6795 9.12157 16.0811 9.73405 16.0745 11.3651C16.0658 13.7031 16.068 16.0389 16.0745 18.3768C16.0789 20.1023 16.6642 20.6906 18.381 20.6906C23.4111 20.6928 28.4412 20.6906 33.4691 20.6906L33.4713 20.6884ZM72.061 83.2141C75.1712 81.3943 78.2312 79.7193 81.1711 77.8555C85.8692 74.8787 87.3107 68.6727 84.5478 63.8365C81.7652 58.963 75.6626 57.108 70.7243 59.7445C67.7014 61.358 64.7768 63.1538 61.8107 64.8705C61.7452 64.9078 61.7103 64.9956 61.6426 65.0856C65.1001 71.1006 68.551 77.1047 72.061 83.2141ZM9.18568 78.0509C8.46928 82.6719 11.49 85.1108 15.0764 85.0604C23.2997 84.9462 31.5252 85.023 39.7486 85.023C40.0937 85.023 40.4388 85.023 40.7686 85.023C40.631 83.8244 40.4126 82.7004 40.3973 81.5743C40.382 80.4174 40.5676 79.2561 40.6681 78.0509H9.18568Z" fill="#0A84F4" stroke="#14AC10" stroke-width="0.5"/>
    <path d="M35.2664 60.4817C37.0007 60.4817 38.6497 60.4576 40.2965 60.4883C41.6879 60.5147 42.5353 61.6233 42.0963 62.8197C41.784 63.6715 41.0916 63.9832 40.2354 63.9854C38.6147 63.9898 36.9941 63.9854 35.2664 63.9854C35.2664 65.5396 35.2664 67.0192 35.2664 68.4967C35.2643 70.1321 34.6221 71.019 33.4667 70.9839C32.3309 70.951 31.7783 70.1409 31.7762 68.5011C31.7762 67.0434 31.7762 65.5879 31.7762 63.9832C31.1034 63.9832 30.4788 63.9832 29.8563 63.9832C28.869 63.9832 27.8796 63.992 26.8924 63.981C25.5884 63.9656 24.8262 63.318 24.8196 62.2445C24.8131 61.1645 25.5775 60.4927 26.8662 60.4817C28.4606 60.4686 30.0572 60.4795 31.7783 60.4795C31.7783 59.1514 31.7783 57.8781 31.7783 56.6027C31.7783 56.1636 31.7652 55.7268 31.7893 55.2899C31.846 54.234 32.4991 53.5293 33.4405 53.4854C34.3447 53.4415 35.1441 54.1198 35.2206 55.156C35.3058 56.3173 35.2599 57.4896 35.2664 58.6575C35.2708 59.2348 35.2664 59.81 35.2664 60.4817Z" fill="#C3E2FD"/>
  </g>
</svg>