<svg xmlns="http://www.w3.org/2000/svg" width="68" height="66" viewBox="0 0 68 66" fill="none">
  <g opacity="0.1" clip-path="url(#clip0_1229_5512)">
    <path d="M16.1556 48.0859C15.8639 47.426 15.5391 46.7798 15.2864 46.1046C13.6841 41.8162 14.9226 36.7695 18.3509 33.6161C18.8575 33.1498 19.3981 32.7139 19.9586 32.3143C22.2942 30.6483 24.6388 28.9951 26.9917 27.3536C27.3138 27.129 27.3458 26.9746 27.1827 26.6085C25.4027 22.6182 25.5334 18.6441 27.5654 14.7159C28.597 12.7211 30.112 11.145 31.9445 9.85447C33.9587 8.43575 35.9687 7.01314 37.9829 5.59441C39.1168 4.79558 39.9805 4.93903 40.7642 6.04557C41.3446 6.86605 41.925 7.68652 42.5069 8.50726C42.5236 8.53085 42.5504 8.54728 42.597 8.58781C42.7041 8.53803 42.8249 8.48406 42.9437 8.42738C43.6692 8.08528 44.5191 8.28743 44.988 8.91473C45.4541 9.53995 45.4089 10.4173 44.8738 11.0097C44.7734 11.1199 44.6652 11.2289 44.5451 11.3151C43.6025 11.9857 42.6651 12.6636 41.7093 13.3136C40.9615 13.8237 40.051 13.7431 39.4988 13.1583C38.9396 12.5675 38.8795 11.6857 39.3642 11.0337C39.4875 10.8679 39.6427 10.7257 39.8017 10.5537L38.7932 9.12465C38.678 9.19236 38.5611 9.25177 38.4559 9.32595C36.8595 10.4499 35.2579 11.5666 33.6701 12.7048C29.7063 15.5456 28.2763 20.366 30.0635 24.8324C31.9892 29.6456 37.8194 32.1368 42.7099 30.2078C43.4983 29.8961 44.2732 29.5028 44.9763 29.031C46.6732 27.8947 48.3245 26.6899 49.9935 25.5121C50.0654 25.4614 50.1296 25.3997 50.2213 25.3241L49.1405 23.7926C49.0303 23.8459 48.9256 23.8953 48.8213 23.9471C48.0604 24.3251 47.1668 24.0885 46.6961 23.3823C46.2353 22.6922 46.3513 21.7214 47.0297 21.2127C48.0619 20.4381 49.1199 19.6941 50.1946 18.9778C50.9107 18.501 51.8924 18.7216 52.3888 19.4016C52.8794 20.0733 52.7817 21.0095 52.1615 21.5926C52.0877 21.6623 52.0118 21.7309 51.9037 21.8303C52.5427 22.7358 53.1752 23.6242 53.7976 24.5197C53.9391 24.7242 54.0778 24.9403 54.1614 25.1723C54.3959 25.8236 54.2084 26.4955 53.67 26.9462C53.3714 27.1963 53.0483 27.4176 52.7286 27.6418C50.6002 29.1316 48.5087 30.6797 46.33 32.0922C43.3921 33.997 40.1556 34.5644 36.7459 33.9587C33.9378 33.4598 31.5428 32.1761 29.5826 30.1207C29.492 30.0256 29.391 29.9392 29.2781 29.834C29.177 29.8944 29.0715 29.9485 28.9756 30.0162C26.5084 31.756 24.0323 33.4831 21.5779 35.241C18.5608 37.4015 17.3121 40.8992 18.2625 44.4283C19.5641 49.2634 25.3141 51.7976 29.8291 49.5165C30.3761 49.2406 30.9076 48.9212 31.4115 48.5724C33.005 47.4696 34.5779 46.3378 36.1688 45.2314C36.4126 45.062 36.493 44.9156 36.4131 44.6145C35.6966 41.9179 36.7749 39.1222 39.0559 37.7095C41.5052 36.193 44.4235 36.4156 46.5665 38.2836C49.5229 40.862 49.1135 45.8035 45.765 47.9641C43.5264 49.4093 40.8852 49.3935 38.7431 47.9082C38.5 47.7399 38.3421 47.7236 38.0867 47.9079C36.4394 49.0909 34.7807 50.256 33.1212 51.4217C30.581 53.2048 27.7804 53.9594 24.7134 53.5848C21.8328 53.2337 19.4318 51.965 17.4964 49.8391C17.3984 49.7315 17.2863 49.6353 17.1807 49.5345L16.1581 48.0855L16.1556 48.0859ZM40.7987 40.5491C39.4901 41.4291 39.137 43.1679 39.9994 44.484C40.8204 45.7354 42.6273 46.0723 43.9177 45.2133C45.24 44.3331 45.6009 42.5466 44.7197 41.2411C43.8747 39.989 42.0965 39.6753 40.799 40.5475L40.7987 40.5491Z" fill="#1890FF" stroke="#14AC10" stroke-width="0.3"/>
  </g>
  <defs>
    <clipPath id="clip0_1229_5512">
      <rect width="44" height="51" fill="white" transform="translate(41.6685) rotate(54.7887)"/>
    </clipPath>
  </defs>
</svg>