<svg xmlns="http://www.w3.org/2000/svg" width="75" height="71" viewBox="0 0 75 71" fill="none">
  <g opacity="0.1" clip-path="url(#clip0_1229_5509)">
    <path d="M67.2755 33.9814C67.1008 34.4751 66.9903 35.0023 66.7415 35.4532C66.1131 36.5914 65.067 37.1209 63.8029 37.2538C62.1596 37.4277 60.5155 37.5928 58.8705 37.7491C57.3285 37.8966 56.1012 37.3751 55.2391 36.0538C55.1497 35.9179 54.895 35.8074 54.7253 35.8185C53.8431 35.879 52.9601 35.9618 52.0841 36.0838C51.8366 36.119 51.571 36.2699 51.3817 36.4412C49.2293 38.3935 47.0703 40.3391 44.9576 42.3318C43.6876 43.53 42.2192 44.1729 40.4852 44.3308C37.547 44.5977 34.6138 44.913 31.677 45.208C31.4637 45.2294 31.2505 45.2508 30.9358 45.2824C31.0981 45.5234 31.209 45.6957 31.3284 45.8641C32.3744 47.331 33.4777 48.7612 34.4594 50.2686C37.8592 55.4861 35.011 62.7123 28.9609 64.2959C25.0414 65.3225 21.1856 63.981 18.7532 60.6598C15.5491 56.2818 12.3686 51.8867 9.22404 47.4658C6.21306 43.2356 6.91066 37.9941 10.8952 34.6126C11.2018 34.3526 11.1765 34.1007 11.1453 33.7904C10.5425 27.7877 9.93099 21.7874 9.33992 15.7835C9.09687 13.3043 9.99515 11.3182 12.1331 9.99138C12.7652 9.5996 13.5264 9.29542 14.2596 9.20108C16.795 8.87251 19.3424 8.64922 21.8864 8.39225C26.8773 7.88806 31.8693 7.40891 36.8574 6.8769C38.5138 6.7002 40.001 7.02851 41.413 7.89526C43.9063 9.42539 46.416 10.9272 48.9358 12.4118C49.2295 12.5849 49.6302 12.6556 49.9751 12.6431C50.7403 12.6151 51.5006 12.4944 52.2654 12.4338C52.569 12.4092 52.7401 12.324 52.8641 12.0055C53.3833 10.6667 54.3753 9.88093 55.8148 9.71862C57.5936 9.51927 59.3738 9.3331 61.1575 9.18206C62.9294 9.03221 64.2232 9.86055 64.9028 11.5092C64.9441 11.5953 64.9984 11.6771 65.0441 11.7627C65.7879 19.1694 66.5316 26.5747 67.2755 33.9814ZM18.3826 11.1324C18.3899 11.2944 18.3892 11.3906 18.3988 11.4857C19.1132 18.5996 19.8232 25.714 20.5581 32.8243C20.5812 33.0542 20.8027 33.3514 21.0143 33.4618C22.1978 34.0794 23.2707 34.8382 24.07 35.904C25.7373 38.1293 27.366 40.3837 28.9933 42.6396C29.228 42.965 29.4564 43.0796 29.8635 43.0358C32.6792 42.7338 35.4993 42.4594 38.3169 42.1765C38.5037 42.1577 38.6919 42.1388 38.8758 42.1203L35.5902 9.40432L18.3811 11.1326L18.3826 11.1324ZM52.7527 14.7421C51.7674 14.8411 50.8295 14.9087 49.8992 15.0376C49.2003 15.1344 48.6055 14.9945 47.9993 14.6235C45.3386 12.9934 42.6574 11.3964 39.9825 9.78838C39.377 9.4233 38.7437 9.15268 37.997 9.18627L41.273 41.8071C42.0127 41.7033 42.5646 41.3121 43.0735 40.847C45.2597 38.8469 47.439 36.8372 49.6353 34.8479C49.9159 34.595 50.0006 34.3587 49.9619 33.9884C49.6087 30.6196 49.2762 27.2488 48.9392 23.8783C48.9177 23.6646 48.8884 23.4472 48.9027 23.2343C48.9427 22.6269 49.3552 22.1936 49.9277 22.1257C50.5252 22.0554 51.0358 22.4063 51.1999 23.0198C51.2499 23.2071 51.2639 23.4053 51.2834 23.6C51.5984 26.736 51.9135 29.8735 52.2284 33.0096C52.2493 33.2175 52.27 33.4239 52.2917 33.6391L54.6255 33.4047L52.7513 14.7423L52.7527 14.7421ZM26.8677 43.764C26.7894 43.6358 26.7375 43.5331 26.6703 43.4408C25.158 41.3685 23.7335 39.2238 22.1085 37.2427C20.0534 34.7354 16.4186 34.1451 13.5274 35.6629C10.6263 37.1861 9.16888 40.4824 9.95912 43.618C10.3101 45.0128 11.147 46.1133 11.9597 47.2384C13.0946 48.8073 14.2296 50.3763 15.3926 51.9868C19.2324 49.235 23.0388 46.5058 26.8661 43.7627L26.8677 43.764ZM56.0538 23.8278C56.3943 27.2186 56.7348 30.6094 57.0754 34.0002C57.1883 35.1246 57.6574 35.5063 58.793 35.3952C60.3596 35.2423 61.9247 35.0881 63.4901 34.9235C64.5425 34.8119 64.9346 34.323 64.8287 33.2688C64.1471 26.4666 63.4641 19.666 62.7795 12.8641C62.672 11.7939 62.2214 11.4339 61.1283 11.5393C59.5615 11.6907 57.997 11.8493 56.4312 12.011C55.2756 12.13 54.9209 12.562 55.0365 13.7127C55.3736 17.0846 55.7137 20.4562 56.0522 23.8265L56.0538 23.8278ZM16.7658 53.9015C18.1943 55.8639 19.5223 57.8023 20.9688 59.6476C23.2792 62.5965 27.5337 63.1453 30.5874 60.9679C33.6648 58.7748 34.4967 54.5594 32.398 51.4265C31.1136 49.5088 29.7138 47.6692 28.3641 45.7965C28.3347 45.7551 28.2735 45.7376 28.2087 45.6982C24.412 48.4205 20.6222 51.1377 16.7658 53.9015ZM15.992 11.408C12.8481 11.2387 11.4176 13.4276 11.6929 15.8282C12.3229 21.3327 12.8252 26.8516 13.3788 32.3638C13.402 32.5951 13.4252 32.8264 13.4474 33.0475C14.2411 32.8746 14.9794 32.6526 15.7328 32.5666C16.5067 32.4785 17.2972 32.5248 18.1113 32.5111L15.992 11.408Z" fill="#1890FF" stroke="#1890FF" stroke-width="0.5"/>
    <path d="M29.517 27.7088C29.6338 28.8713 29.761 29.975 29.8513 31.081C29.9273 32.0154 29.2417 32.658 28.4106 32.4443C27.819 32.2922 27.5636 31.8491 27.5045 31.2753C27.3924 30.1893 27.2863 29.1026 27.17 27.9445C26.1288 28.0491 25.1376 28.1487 24.1479 28.2481C23.0521 28.3566 22.4148 27.9858 22.3605 27.209C22.3061 26.4455 22.8116 26.0206 23.91 25.9088C24.8864 25.8107 25.8615 25.7128 26.9365 25.6048C26.8912 25.1539 26.8491 24.7352 26.8072 24.3179C26.7408 23.6562 26.6683 22.9935 26.6092 22.331C26.5317 21.4559 26.9142 20.9014 27.6329 20.8248C28.356 20.7477 28.8575 21.215 28.9516 22.078C29.0677 23.1459 29.1678 24.2169 29.2837 25.3706C30.1734 25.2812 31.0264 25.1956 31.8808 25.1098C32.1749 25.0802 32.4667 25.042 32.761 25.0288C33.4721 24.9958 33.9882 25.3861 34.081 26.0142C34.1712 26.6174 33.7706 27.1988 33.0817 27.3198C32.3094 27.455 31.521 27.5031 30.7391 27.5861C30.3526 27.6279 29.9671 27.6636 29.517 27.7088Z" fill="#1890FF"/>
  </g>
  <defs>
    <clipPath id="clip0_1229_5509">
      <rect width="64" height="68" fill="white" transform="translate(67.6597) rotate(84.2651)"/>
    </clipPath>
  </defs>
</svg>