<svg xmlns="http://www.w3.org/2000/svg" width="215" height="215" viewBox="0 0 225 225" fill="none">
  <g opacity="0.15">
    <path d="M95.5764 163.594C79.8632 156.647 70.2728 144.877 67.4582 127.503C67.3753 127.007 66.7784 126.365 66.2906 126.217C62.5341 125.069 58.745 124.035 54.971 122.948C53.1074 122.414 52.28 121.159 52.7345 119.637C53.1878 118.119 54.5237 117.541 56.4204 118.08C69.547 121.81 82.6725 125.544 95.7928 129.28C97.6576 129.811 98.4878 131.071 98.0294 132.592C97.5784 134.102 96.2333 134.682 94.3383 134.151C90.9131 133.186 87.4926 132.204 84.026 131.218C85.7784 138.851 94.1805 148.076 105.146 150.365C118.391 153.13 131.618 146.805 137.982 134.818C144.621 122.318 142.219 105.388 129.526 95.7285C133.963 93.1806 138.343 90.6385 142.77 88.1891C143.076 88.0202 143.889 88.4017 144.226 88.7624C150.317 95.2102 154.167 102.888 155.771 111.724C161.231 141.771 136.471 169.156 106.704 166.022C105.328 165.878 103.967 165.623 102.559 165.576C103.352 165.801 104.141 166.026 104.934 166.251C112.441 168.387 119.952 170.506 127.454 172.662C135.146 174.872 139.473 181.617 138.428 189.713C138.001 193.013 136.808 193.831 133.704 192.948C107.453 185.48 81.2063 178.014 54.9554 170.546C51.9948 169.704 51.4059 168.429 52.6321 165.541C55.7594 158.166 63.2412 154.44 70.8265 156.558C78.3441 158.657 85.843 160.821 93.3501 162.956C94.0913 163.167 94.8364 163.379 95.5775 163.59L95.5764 163.594Z" fill="#1890FF"/>
    <path d="M89.5945 88.3334C91.8787 92.5372 94.0739 96.57 96.2819 100.633C94.055 101.951 91.8109 103.374 89.4749 104.622C88.3269 105.235 87.1639 104.812 86.5188 103.688C84.9626 100.967 83.4694 98.2068 82.0367 95.4152C81.3748 94.1232 81.7315 92.8692 82.9755 92.1149C85.1535 90.7875 87.4015 89.5771 89.5933 88.3374L89.5945 88.3334Z" fill="#1890FF"/>
    <path d="M163.842 69.6774C159.523 61.663 155.19 53.6534 150.846 45.6538C149.93 43.9673 148.649 43.4748 147.288 44.2003C145.866 44.9612 145.547 46.4158 146.495 48.1556C147.516 50.0311 148.595 51.8701 149.588 53.6183C145.75 55.8157 142.132 57.8902 138.277 60.1005C137.784 59.0773 137.284 57.9284 136.693 56.8286C135.577 54.7541 134.408 54.4127 132.37 55.5813C119.429 62.9949 106.49 70.4137 93.5547 77.8377C91.4755 79.0299 91.1341 80.1999 92.2439 82.2639C95.7197 88.714 99.2059 95.1582 102.702 101.596C103.865 103.733 104.986 104.03 107.156 102.793C110.158 101.082 113.15 99.3589 116.146 97.6414C125.996 91.9932 135.851 86.3461 145.698 80.6927C148.014 79.3648 148.308 78.2871 147.018 75.9159C146.457 74.8775 145.848 73.8657 145.397 73.0751C149.236 70.8736 152.845 68.8009 156.571 66.6644C157.491 68.4138 158.464 70.324 159.497 72.2029C160.398 73.85 161.741 74.3205 163.087 73.5421C164.427 72.7667 164.741 71.346 163.845 69.6826L163.842 69.6774Z" fill="#1890FF"/>
  </g>
</svg>