<svg width="48" height="48" viewBox="0 0 48 48" fill="none" xmlns="http://www.w3.org/2000/svg">
<g id="icon / Covid">
<path id="Vector" d="M41.4638 22.4263L41.4874 22.8774C41.519 23.4907 42.0115 23.9938 42.5899 24H43.0106C43.5891 24.0067 44.0356 23.4325 43.9978 22.7179C43.8529 20.4967 43.3467 18.2879 42.4848 16.2232C42.1804 15.573 41.5061 15.2646 40.9923 15.5286L40.6161 15.7165C40.1014 15.981 39.9035 16.6436 40.1674 17.1991L40.3242 17.6235C40.5417 18.2133 40.2668 18.8297 39.7137 18.9981L38.104 19.5101C37.3816 17.252 36.1307 15.2299 34.4942 13.5891L35.693 12.3994C36.0981 11.9879 36.7719 12.0292 37.1949 12.4945L37.4988 12.8296C37.8772 13.314 38.5528 13.4474 39.0265 13.1118L39.3665 12.8652C39.8363 12.5328 39.8773 11.7901 39.4338 11.2271C38.0015 9.51251 36.2768 8.04861 34.3636 6.89357C34.0588 6.70914 33.7228 6.6447 33.4349 6.69359C33.139 6.75536 32.8925 6.92868 32.7597 7.18378L32.5654 7.55575C32.4317 7.81262 32.4313 8.09972 32.5253 8.35881C32.6131 8.63168 32.7954 8.87833 33.061 9.03921L33.4483 9.27431C33.5811 9.35563 33.6929 9.45563 33.7763 9.57162C33.8543 9.69517 33.9073 9.82982 33.9331 9.9667C33.9848 10.2409 33.926 10.5231 33.7544 10.7551L32.7611 12.1017C30.9076 10.7422 28.7261 9.8036 26.3553 9.42541L26.6195 7.77663C26.665 7.49176 26.8254 7.25222 27.0576 7.09667C27.2894 6.93846 27.5928 6.86513 27.8932 6.95179L28.3326 7.06378C28.932 7.21 29.5617 6.90557 29.7427 6.37183L29.8724 5.97275C30.0613 5.41323 29.6522 4.80482 28.9525 4.63283C26.7809 4.09643 24.5263 3.86444 22.3007 4.07998C21.5846 4.1222 21.0854 4.71327 21.1768 5.27013L21.2387 5.68521C21.3319 6.26739 21.897 6.6127 22.512 6.57982L22.9643 6.55626C23.5927 6.52782 24.0945 6.96112 24.0847 7.55442L24.0762 9.2392C24.0508 9.2392 24.0254 9.23742 24 9.23742C21.5935 9.23742 19.3233 9.81338 17.3148 10.8293L16.5545 9.3343C16.2867 8.82278 16.5295 8.18593 17.0982 7.91528C17.2341 7.84951 17.3803 7.80685 17.5207 7.75174C18.0991 7.53931 18.4298 6.92246 18.2578 6.37183L18.1276 5.97319C17.9556 5.42256 17.2657 5.17102 16.5906 5.42167C14.5116 6.25451 12.5761 7.42998 10.8827 8.885C10.3488 9.36452 10.2547 10.0889 10.6652 10.4951L10.9602 10.7942C11.3707 11.2004 12.0726 11.1937 12.5294 10.7813C12.6421 10.6813 12.7513 10.5769 12.8672 10.4809C13.3703 10.1031 14.0495 10.1822 14.3819 10.6542L15.3637 12.0141C13.4652 13.3767 11.9046 15.1761 10.8283 17.2658L9.33135 16.4987C9.07377 16.3672 8.89328 16.1396 8.81395 15.8699C8.73908 15.6032 8.79167 15.3086 8.95077 15.041L9.18607 14.6548C9.48911 14.1175 9.44722 13.4629 8.97394 13.1118L8.63391 12.8652C8.17979 12.527 7.41995 12.6887 7.06165 13.3123C5.85527 15.1899 4.96396 17.2809 4.47731 19.463C4.43363 19.6354 4.42116 19.8065 4.43586 19.966C4.45904 20.1274 4.51563 20.278 4.59006 20.4082C4.74069 20.6696 4.97778 20.8487 5.26344 20.8953L5.67834 20.9638C5.96356 21.0104 6.24209 20.9229 6.46046 20.7527C6.57054 20.6678 6.6619 20.5607 6.73855 20.4385C6.82367 20.318 6.88873 20.1811 6.92751 20.0305L7.04026 19.5923C7.11824 19.291 7.30185 19.0497 7.53359 18.9123C7.77915 18.7786 8.07194 18.7483 8.34557 18.839L9.94546 19.3661C9.46238 20.8242 9.19721 22.381 9.19721 24.0004C9.19721 24.7737 9.25738 25.5332 9.37235 26.2745L7.71987 26.5292C7.15835 26.6229 6.58926 26.199 6.53711 25.5741L6.51349 25.123C6.48185 24.5097 5.98941 24.0067 5.41095 24.0004H4.98936C4.41091 23.9938 3.96436 24.568 4.00224 25.2826C4.14708 27.5038 4.65334 29.7125 5.51523 31.7773C5.81961 32.4274 6.49389 32.7359 7.00772 32.4719L7.38385 32.2839C7.89858 32.0195 8.09645 31.3568 7.83263 30.8013L7.67576 30.3769C7.45828 29.7872 7.73324 29.1708 8.2863 29.0023L9.896 28.4904C10.6184 30.7484 11.8693 32.771 13.5058 34.4113L12.307 35.601C11.9019 36.0125 11.2281 35.9712 10.8051 35.5059L10.5012 35.1708C10.1228 34.6864 9.44722 34.5531 8.9735 34.8886L8.63346 35.1353C8.16374 35.4677 8.12275 36.2103 8.56617 36.7734C9.9985 38.4879 11.7232 39.9518 13.6364 41.1069C13.9412 41.2913 14.2772 41.3557 14.5651 41.3069C14.861 41.2451 15.1075 41.0718 15.2403 40.8167L15.4346 40.4442C15.5683 40.1874 15.5687 39.9003 15.4747 39.6412C15.3869 39.3683 15.2046 39.1217 14.9386 38.9608L14.5513 38.7257C14.4185 38.6444 14.3066 38.5444 14.2233 38.4284C14.1453 38.3048 14.0923 38.1702 14.0664 38.0333C14.0147 37.7591 14.0735 37.4769 14.2451 37.2449L15.2385 35.8983C17.0919 37.2578 19.2739 38.1964 21.6443 38.5746L21.38 40.2234C21.3346 40.5082 21.1741 40.7478 20.9419 40.9033C20.7102 41.0615 20.4067 41.1353 20.1063 41.0482L19.6669 40.9362C19.0675 40.79 18.4378 41.0949 18.2569 41.6282L18.1272 42.0273C17.9382 42.5868 18.3473 43.1952 19.047 43.3672C21.2187 43.9036 23.4732 44.1356 25.6988 43.92C26.415 43.8778 26.9141 43.2867 26.8228 42.7299L26.7608 42.3148C26.6677 41.7326 26.1026 41.3873 25.4876 41.4202L25.0352 41.4437C24.4069 41.4722 23.9051 41.0389 23.9149 40.4456L23.9233 38.7608C23.9488 38.7608 23.9742 38.7626 23.9996 38.7626C26.4061 38.7626 28.6762 38.1866 30.6848 37.1707L31.4451 38.6657C31.7129 39.1772 31.47 39.8141 30.9014 40.0847C30.7654 40.1505 30.6193 40.1932 30.4789 40.2483C29.9004 40.4607 29.5698 41.0775 29.7418 41.6282L29.8715 42.0273C30.0435 42.5779 30.7334 42.8294 31.4085 42.5788C33.4875 41.7459 35.423 40.5705 37.1164 39.1154C37.6503 38.6359 37.7444 37.9115 37.3339 37.5053L37.0389 37.2062C36.6285 36.8 35.9265 36.8067 35.4698 37.2191C35.357 37.3191 35.2478 37.4236 35.132 37.5196C34.6288 37.8973 33.9496 37.8182 33.6172 37.3462L32.6354 35.9863C34.5339 34.6237 36.0946 32.8243 37.1708 30.7347L38.6678 31.5017C38.9253 31.6333 39.1058 31.8608 39.1852 32.1306C39.26 32.3972 39.2074 32.6919 39.0483 32.9594L38.813 33.3456C38.5104 33.8829 38.5519 34.5375 39.0252 34.8886L39.3652 35.1353C39.8193 35.4735 40.5792 35.3117 40.9375 34.6882C42.1438 32.8105 43.0351 30.7196 43.5218 28.5375C43.5655 28.365 43.578 28.1939 43.5632 28.0344C43.5401 27.8731 43.4835 27.7224 43.409 27.5922C43.2584 27.3309 43.0213 27.1518 42.7361 27.1051L42.3212 27.0367C42.0355 26.99 41.7575 27.0776 41.5391 27.2478C41.429 27.3327 41.3377 27.4398 41.261 27.562C41.1759 27.6824 41.1108 27.8193 41.0721 27.97L40.9593 28.4082C40.8818 28.7095 40.6977 28.9508 40.466 29.0881C40.2204 29.2219 39.9276 29.2521 39.654 29.1614L38.0541 28.6344C38.5372 27.1762 38.8023 25.6195 38.8023 24C38.8023 23.2267 38.7422 22.4672 38.6272 21.7259L40.2797 21.4713C40.8425 21.3771 41.4116 21.801 41.4638 22.4263ZM15.1311 20.2887C15.6841 20.2887 16.1311 20.734 16.1311 21.282C16.1311 21.8335 15.6846 22.2792 15.1311 22.2792C14.5776 22.2792 14.131 21.8339 14.131 21.282C14.131 20.7344 14.578 20.2887 15.1311 20.2887ZM16.2666 30.4818C15.4591 30.4818 14.8075 29.8281 14.8075 29.0228C14.8075 28.2175 15.4591 27.5678 16.2666 27.5678C17.0741 27.5678 17.7257 28.2175 17.7257 29.0228C17.7252 29.8281 17.0737 30.4818 16.2666 30.4818ZM21.9344 18.3555C20.6474 18.3555 19.6063 17.3133 19.6063 16.0299C19.6063 14.7464 20.6474 13.7042 21.9344 13.7042C23.2255 13.7042 24.2665 14.7464 24.2665 16.0299C24.2665 17.3133 23.2255 18.3555 21.9344 18.3555ZM26.5576 30.216C26.5576 28.9326 27.5986 27.8904 28.8857 27.8904C30.1727 27.8904 31.2178 28.9326 31.2178 30.216C31.2178 31.4995 30.1727 32.5417 28.8857 32.5417C27.5986 32.5417 26.5576 31.4995 26.5576 30.216ZM31.8934 19.9576C31.0859 19.9576 30.4303 19.3039 30.4303 18.4986C30.4303 17.6933 31.0859 17.0436 31.8934 17.0436C32.6965 17.0436 33.3525 17.6933 33.3525 18.4986C33.3525 19.3039 32.6969 19.9576 31.8934 19.9576Z"  fill="none" stroke="#1890FF" stroke-width="2" stroke-linecap="round" stroke-linejoin="round"/>
</g>
</svg>
