<svg width="48" height="48" viewBox="0 0 48 48" fill="none" xmlns="http://www.w3.org/2000/svg">
<g id="icon / Death Record">
<g id="Vector">
<path d="M19.0307 10.3158H28.9678C29.5372 10.3158 30 9.803 30 9.17096C30 9.07168 29.9887 8.97568 29.9675 8.88416L28.8744 4.92033C28.7781 4.38519 28.355 4 27.8638 4H20.1348C19.6436 4 19.2205 4.38519 19.1241 4.92033L18.0201 8.94647C17.9594 9.28276 18.038 9.63128 18.2337 9.89662C18.4294 10.162 18.722 10.3158 19.0307 10.3158Z"  fill="none" stroke="#1890FF" stroke-width="2" stroke-linecap="round" stroke-linejoin="round"/>
<path d="M21 22.046C21 22.6234 21.56 23.0921 22.25 23.0921C22.94 23.0921 23.5 22.6234 23.5 22.046C23.5 21.4686 22.94 21 22.25 21C21.56 21 21 21.4686 21 22.046Z" fill="#1890FF"/>
<path d="M23.25 23.7699C23.25 23.8954 23.305 24.2929 24 24.2929C24.695 24.2929 24.75 23.8954 24.75 23.7699C24.75 23.4812 24.49 22.9331 24 22.9331C23.51 22.9331 23.25 23.4812 23.25 23.7699Z"  fill="none" stroke="#1890FF" stroke-width="2" stroke-linecap="round" stroke-linejoin="round"/>
<path d="M24.5 22.0544C24.5 22.6318 25.06 23.1004 25.75 23.1004C26.44 23.1004 27 22.6318 27 22.0544C27 21.477 26.44 21.0084 25.75 21.0084C25.06 21.0084 24.5 21.477 24.5 22.0544Z"  fill="none" stroke="#1890FF" stroke-width="2" stroke-linecap="round" stroke-linejoin="round"/>
<path fill-rule="evenodd" clip-rule="evenodd" d="M35.3963 6.10526H33.3443L33.6921 7.86941C33.7573 8.15274 33.7902 8.44335 33.7902 8.73495C33.7902 10.835 32.1056 12.5436 30.0334 12.5436H17.9666C16.8371 12.5436 15.7787 12.0354 15.0628 11.1497C14.3467 10.2637 14.0627 9.11119 14.2844 7.9881L14.6557 6.10559H12.6037C10.0654 6.10559 8 8.20002 8 10.7745V39.3311C8 41.9056 10.0654 44 12.6037 44H35.3963C37.9346 44 40 41.9056 40 39.3311V10.7745C40 8.20002 37.9346 6.10526 35.3963 6.10526ZM15.6667 30.0473H19.4444C20.3649 30.0473 21.1111 30.7935 21.1111 31.714C21.1111 32.6345 20.3649 33.3807 19.4444 33.3807H15.6667C14.7462 33.3807 14 32.6345 14 31.714C14 30.7935 14.7462 30.0473 15.6667 30.0473ZM30.7777 39.714H15.6667C14.7462 39.714 14 38.9678 14 38.0474C14 37.1269 14.7462 36.3807 15.6667 36.3807H30.7777C31.6982 36.3807 32.4444 37.1269 32.4444 38.0474C32.4444 38.9678 31.6982 39.714 30.7777 39.714ZM24 16C26.755 16 29 17.8787 29 20.1841C29 20.7699 28.855 21.3347 28.575 21.8703C28.82 22.5565 28.64 23.3138 28.045 23.8703C27.57 24.318 26.89 24.5732 26.175 24.5732H26.08V25.2762C26.08 25.6736 25.69 26 25.215 26H22.785C22.31 26 21.92 25.6736 21.92 25.2762V24.5732H21.79C21.1 24.5732 20.44 24.3264 19.98 23.8954C19.4 23.3556 19.23 22.6109 19.47 21.9498C19.165 21.3975 19 20.795 19 20.1841C19 17.8787 21.245 16 24 16Z"  fill="none" stroke="#1890FF" stroke-width="2" stroke-linecap="round" stroke-linejoin="round"/>
</g>
</g>
</svg>
