<svg width="48" height="48" viewBox="0 0 48 48" fill="none" xmlns="http://www.w3.org/2000/svg">
<g id="icon / Family Plan">
<g id="Vector">
<path d="M24.802 29.1505C26.3393 28.7811 27.4837 27.3745 27.4837 25.6945C27.4837 23.7329 25.924 22.1429 24 22.1429C22.076 22.1429 20.5163 23.733 20.5163 25.6945C20.5163 27.3745 21.6608 28.7811 23.198 29.1505C21.0676 29.5381 19.4447 31.4394 19.4447 33.721V40.0735C19.4447 40.2244 19.5129 40.3672 19.6301 40.4622L23.6854 43.7453C23.8688 43.8938 24.1312 43.8938 24.3146 43.7453L28.3699 40.4622C28.4871 40.3672 28.5553 40.2244 28.5553 40.0735V33.721C28.5553 31.4394 26.9324 29.5382 24.802 29.1505Z"  fill="none" stroke="#1890FF" stroke-width="2" stroke-linecap="round" stroke-linejoin="round"/>
<path d="M35.0218 13.418C37.1124 12.9426 38.6756 11.0414 38.6756 8.76682C38.6756 6.13425 36.5822 4.00008 34 4.00008C31.4178 4.00008 29.3244 6.13425 29.3244 8.76682C29.3244 11.0418 30.8882 12.9433 32.9793 13.4183C29.3454 13.7941 26.2865 16.1524 24.8608 19.4167C24.8083 19.5369 24.8872 19.6723 25.0164 19.695C27.8275 20.1884 29.9734 22.6901 29.9734 25.6947C29.9734 26.8315 29.6654 27.8961 29.1313 28.8077C30.3165 30.0935 31.0448 31.8218 31.0448 33.7212V37.2485C31.0448 37.6691 31.5325 37.9017 31.8594 37.6371L40.8213 30.3815C42.8295 28.7555 44 26.2842 44 23.6699C44 18.3749 40.0808 13.9485 35.0218 13.418Z"  fill="none" stroke="#1890FF" stroke-width="2" stroke-linecap="round" stroke-linejoin="round"/>
<path d="M22.9836 19.6949C23.1128 19.6722 23.1917 19.5368 23.1392 19.4167C21.7135 16.1523 18.6546 13.7941 15.0207 13.4182C17.1119 12.9433 18.6756 11.0418 18.6756 8.76673C18.6756 6.13416 16.5822 4 14 4C11.4178 4 9.3244 6.13416 9.3244 8.76682C9.3244 11.0414 10.8876 12.9426 12.9782 13.418C7.91917 13.9485 4 18.3749 4 23.6699C4 26.2842 5.17046 28.7555 7.17859 30.3814L16.1405 37.637C16.4674 37.9017 16.9551 37.669 16.9551 37.2484V33.7211C16.9551 31.8216 17.6834 30.0934 18.8686 28.8076C18.3345 27.896 18.0266 26.8314 18.0266 25.6946C18.0266 22.69 20.1725 20.1884 22.9836 19.6949Z"  fill="none" stroke="#1890FF" stroke-width="2" stroke-linecap="round" stroke-linejoin="round"/>
</g>
</g>
</svg>
