<svg width="48" height="48" viewBox="0 0 48 48" fill="none" xmlns="http://www.w3.org/2000/svg">
<g id="icon / Investigation">
<g id="Vector">
<path d="M27.5709 13.1198H24.5137V10.526C24.5137 9.87883 24.0157 9.35414 23.4015 9.35414H23.3224V6.34375H23.4015C24.8772 6.2818 24.8761 4.06133 23.4015 4H16.254C14.7783 4.06195 14.7794 6.28242 16.254 6.34375H16.333V9.35414H16.254C15.6397 9.35414 15.1418 9.87883 15.1418 10.526V23.0781C15.1418 23.7253 15.6397 24.25 16.254 24.25H23.4015C24.0157 24.25 24.5137 23.7253 24.5137 23.0781V20.4844H27.5709C34.7929 20.7861 34.7779 31.6441 27.5709 31.9479H12.6801C12.0659 31.9479 11.5679 32.4726 11.5679 33.1198V39.3125H27.5709C34.4243 39.3125 40 33.4375 40 26.2162C40.0001 18.9952 34.4244 13.1198 27.5709 13.1198ZM23.4015 20.4844C21.4745 20.4844 19.9068 18.8325 19.9068 16.8021C20.0987 11.917 26.7049 11.9184 26.8962 16.8021C26.8962 18.8325 25.3284 20.4844 23.4015 20.4844Z"  fill="none" stroke="#1890FF" stroke-width="2" stroke-linecap="round" stroke-linejoin="round"/>
<path d="M22.2102 28.9375C22.8244 28.9375 23.3223 28.4128 23.3223 27.7656V26.5937H16.3329V27.7656C16.3329 28.4128 16.8309 28.9375 17.4451 28.9375H22.2102Z"  fill="none" stroke="#1890FF" stroke-width="2" stroke-linecap="round" stroke-linejoin="round"/>
<path d="M30.549 41.6562H9.10631C7.63067 41.7182 7.63179 43.9387 9.10631 44H30.549C32.0247 43.938 32.0236 41.7176 30.549 41.6562Z"  fill="none" stroke="#1890FF" stroke-width="2" stroke-linecap="round" stroke-linejoin="round"/>
<path d="M23.4015 15.4635C22.701 15.4635 22.1311 16.064 22.1311 16.802C22.2009 18.5778 24.6023 18.5773 24.6719 16.802C24.6719 16.064 24.1019 15.4635 23.4015 15.4635Z"  fill="none" stroke="#1890FF" stroke-width="2" stroke-linecap="round" stroke-linejoin="round"/>
</g>
</g>
</svg>
