<svg width="48" height="48" viewBox="0 0 48 48" fill="none" xmlns="http://www.w3.org/2000/svg">
<g id="icon / Labour">
<path id="Vector" d="M31.6518 17.4329C33.1231 16.3508 34.0466 14.5563 34.0466 12.6203C34.0466 10.7656 33.1982 9.00077 31.7776 7.89921L27.0445 4.22891C26.8525 4.08047 26.6204 4 26.3815 4H9.71164C8.97154 4 8.43587 4.74383 8.63777 5.49218L11.9397 17.6781C12.7598 20.7047 12.1756 24.0148 10.3769 26.532C8.84391 28.6773 8 31.3367 8 34.0187V42.8281C8 43.475 8.5001 44 9.11628 44H26.8697C33.9675 44 39.9309 38.0487 39.9994 30.4602C40.0528 24.5739 36.5638 19.4456 31.6518 17.4329ZM32.9742 36.2133C31.1264 38.1531 28.4957 38.9774 25.9372 38.4187L25.7988 38.3882C23.6821 40.1456 20.5411 39.9699 18.6226 37.7609C16.7993 35.6601 16.8045 32.375 18.6352 30.2813C20.2319 28.4543 22.7436 27.9884 24.806 29.021C25.3217 28.4436 25.9142 27.9273 26.5489 27.4937C26.476 27.3352 26.438 27.1601 26.4388 26.9805L26.4559 23.3695C26.4589 22.8125 26.8332 22.3352 27.3534 22.2257L30.3301 21.6007C30.8183 21.4992 31.3117 21.7476 31.5402 22.2117L32.6766 24.5186L33.1923 25.0593C35.8517 27.8557 36.0608 32.973 32.9742 36.2133ZM31.6139 26.7172C30.9381 26.0078 30.8796 25.9716 30.7737 25.7571L29.9432 24.0719L28.684 24.3368L28.6736 26.5032C29.2414 27.0993 28.9422 26.785 30.028 27.9258C30.4641 28.3828 30.4641 29.125 30.0287 29.5828C29.5962 30.0368 28.8883 30.0433 28.4496 29.5828L28.1169 29.2329C27.2747 29.7421 26.5203 30.4256 25.9446 31.2399C25.5771 31.7619 24.8692 31.8702 24.3729 31.475C23.1114 30.4689 21.3507 30.6403 20.2799 31.8657C19.2239 33.0743 19.2201 34.9703 20.2724 36.182C21.4593 37.5469 23.4642 37.5799 24.6884 36.293C24.9549 36.0142 25.3374 35.8938 25.7058 35.9742L26.3919 36.1243C28.2107 36.522 30.0816 35.9352 31.3951 34.5563C33.0702 32.7978 33.484 30.122 32.4243 27.8985C32.2159 27.4602 31.9435 27.0633 31.6139 26.7172Z"  fill="none" stroke="#1890FF" stroke-width="2" stroke-linecap="round" stroke-linejoin="round"/>
</g>
</svg>
