<svg width="48" height="48" viewBox="0 0 48 48" fill="none" xmlns="http://www.w3.org/2000/svg">
<g id="icon / Pain Scaling">
<g id="Vector">
<path d="M19.0307 10.3158H28.9678C29.5372 10.3158 30 9.803 30 9.17096C30 9.07168 29.9887 8.97568 29.9675 8.88416L28.8744 4.92033C28.7781 4.38519 28.355 4 27.8638 4H20.1348C19.6436 4 19.2205 4.38519 19.1241 4.92033L18.02 8.94647C17.9594 9.28276 18.038 9.63128 18.2337 9.89662C18.4294 10.162 18.722 10.3158 19.0307 10.3158Z"  fill="none" stroke="#1890FF" stroke-width="2" stroke-linecap="round" stroke-linejoin="round"/>
<path d="M33.3443 6.10526H35.3963C37.9346 6.10526 40 8.20002 40 10.7745V39.3311C40 41.9056 37.9346 44 35.3963 44H12.6037C10.0654 44 8 41.9056 8 39.3311V29.446H9.45577C9.94387 29.446 10.39 29.1529 10.6085 28.6894L12.2169 25.2726L16.5859 34.5547C16.8041 35.0186 17.2503 35.3114 17.7387 35.3114C18.2268 35.3114 18.6729 35.0186 18.8915 34.5547L23.2609 25.2726L24.8688 28.689C25.0874 29.1529 25.5335 29.446 26.0216 29.446H35.7964C36.5084 29.446 37.0851 28.8331 37.0851 28.0767C37.0851 27.3208 36.5084 26.7078 35.7964 26.7078H26.8182L24.4136 21.5991C24.1951 21.1352 23.749 20.8421 23.2609 20.8421C22.7724 20.8421 22.3263 21.1352 22.1081 21.5991L17.7387 30.8812L13.3693 21.5991C13.1511 21.1352 12.705 20.8421 12.2165 20.8421C11.7284 20.8421 11.2823 21.1352 11.0637 21.5991L8.65917 26.7078H8V10.7745C8 8.20002 10.0654 6.10559 12.6037 6.10559H14.6557L14.2844 7.9881C14.0627 9.11119 14.3467 10.2637 15.0628 11.1497C15.7787 12.0354 16.8371 12.5436 17.9666 12.5436H30.0334C32.1056 12.5436 33.7902 10.835 33.7902 8.73495C33.7902 8.44335 33.7573 8.15274 33.6921 7.86941L33.3443 6.10526Z"  fill="none" stroke="#1890FF" stroke-width="2" stroke-linecap="round" stroke-linejoin="round"/>
</g>
</g>
</svg>
