<svg width="48" height="48" viewBox="0 0 48 48" fill="none" xmlns="http://www.w3.org/2000/svg">
<g id="icon / PEP">
<g id="Vector">
<path d="M24 10.1803C20.0691 10.1803 16.1627 10.6786 12.3741 11.6624V26.4205C12.3468 31.1637 18.5211 35.2662 24.0017 37.4303C28.6731 35.6293 35.7898 31.3173 35.6259 26.4205V11.6624C31.8372 10.6786 27.9308 10.1803 24 10.1803ZM27.9587 27.7746C28.0398 27.8531 28.0398 27.9832 27.9587 28.0618L26.5357 29.4406C26.4581 29.5158 26.3349 29.5158 26.2573 29.4406L24.0085 27.2616L21.7597 29.4406C21.6821 29.5158 21.5589 29.5158 21.4813 29.4406L20.0584 28.0618C19.9773 27.9832 19.9773 27.8531 20.0584 27.7746L22.2981 25.6044L20.7163 24.0716C18.8903 22.3776 18.9493 19.3266 20.7163 17.6915C22.4037 15.9794 25.5526 15.9223 27.3008 17.6915C29.0678 19.3266 29.1268 22.3775 27.3008 24.0716L25.719 25.6044L27.9587 27.7746Z"  fill="none" stroke="#1890FF" stroke-width="2" stroke-linecap="round" stroke-linejoin="round"/>
<path d="M22.4266 19.3487C21.5543 20.1939 21.5543 21.5691 22.4266 22.4143L24.0085 23.947L25.5905 22.4143C26.4627 21.5691 26.4627 20.194 25.5905 19.3487C24.7755 18.5633 23.3425 18.4698 22.4266 19.3487Z"  fill="none" stroke="#1890FF" stroke-width="2" stroke-linecap="round" stroke-linejoin="round"/>
<path d="M24 4.00061C17.8836 3.96959 11.7622 5.12342 6 7.12256V26.4242C6.06902 38.4508 23.2449 43.7789 24 44C25.2717 43.622 41.8953 38.2984 42 26.4241V7.12249C36.2482 5.12194 30.1324 3.97553 24 4.00061ZM38.0447 26.415C38.0248 34.5035 26.3895 39.0387 24.001 39.9501C18.1227 37.8355 9.83786 32.879 9.95518 26.4141V9.89217C14.4681 8.5521 19.2555 7.82944 24 7.83655C28.7281 7.82428 33.5154 8.55249 38.0447 9.89217V26.415Z"  fill="none" stroke="#1890FF" stroke-width="2" stroke-linecap="round" stroke-linejoin="round"/>
</g>
</g>
</svg>
