<svg width="48" height="48" viewBox="0 0 48 48" fill="none" xmlns="http://www.w3.org/2000/svg">
<g id="icon / Pharmasy">
<g id="Vector">
<path d="M13.7959 11.8125H32.5714C33.2478 11.8125 33.7959 11.2879 33.7959 10.6406C33.7959 9.99335 33.2478 9.46875 32.5714 9.46875V5.17188C32.5714 4.5246 32.0233 4 31.3469 4H15.0204C14.3441 4 13.7959 4.5246 13.7959 5.17188V9.46875C13.1196 9.46875 12.5714 9.99335 12.5714 10.6406C12.5714 11.2879 13.1196 11.8125 13.7959 11.8125Z"  fill="none" stroke="#1890FF" stroke-width="2" stroke-linecap="round" stroke-linejoin="round"/>
<path d="M36.2449 29.1562C31.9688 29.1562 28.4898 32.4857 28.4898 36.5781C28.4898 38.0045 28.9128 39.3382 29.6447 40.4704C29.8068 40.7213 30.1558 40.7482 30.3716 40.5417L40.3497 30.9923C40.578 30.7738 40.549 30.4001 40.2762 30.2405C39.1009 29.553 37.7204 29.1562 36.2449 29.1562Z"  fill="none" stroke="#1890FF" stroke-width="2" stroke-linecap="round" stroke-linejoin="round"/>
<path d="M42.8451 32.6859C42.683 32.435 42.334 32.408 42.1182 32.6146L32.1402 42.1639C31.9118 42.3824 31.9408 42.7562 32.2137 42.9157C33.3891 43.6032 34.7694 44 36.2449 44C40.521 44 44 40.6705 44 36.5781C44 35.1517 43.577 33.818 42.8451 32.6859Z"  fill="none" stroke="#1890FF" stroke-width="2" stroke-linecap="round" stroke-linejoin="round"/>
<path d="M8.89796 22.9062C6.19292 22.9062 4 25.0049 4 27.5937V31.7812C4 32.0574 4.22386 32.2812 4.5 32.2812H13.2959C13.5721 32.2812 13.7959 32.0574 13.7959 31.7812V27.5937C13.7959 25.0049 11.603 22.9062 8.89796 22.9062Z"  fill="none" stroke="#1890FF" stroke-width="2" stroke-linecap="round" stroke-linejoin="round"/>
<path d="M4.5 34.625C4.22386 34.625 4 34.8489 4 35.125V39.3125C4 41.9013 6.19292 44 8.89796 44C11.603 44 13.7959 41.9013 13.7959 39.3125V35.125C13.7959 34.8489 13.5721 34.625 13.2959 34.625H4.5Z"  fill="none" stroke="#1890FF" stroke-width="2" stroke-linecap="round" stroke-linejoin="round"/>
<path d="M26.0408 36.5781C26.0408 31.1848 30.6094 26.8125 36.2449 26.8125C36.6594 26.8125 37.0679 26.8369 37.4694 26.8827V22.1562C37.4694 21.8801 37.2455 21.6562 36.9694 21.6562H13.5425C13.3403 21.6562 13.258 21.9346 13.4198 22.0559C15.1384 23.344 16.2449 25.3474 16.2449 27.5938V39.3125C16.2449 40.7055 15.8193 42.0049 15.0862 43.0984C14.8425 43.4619 15.0847 44 15.5223 44H28.2141C28.6838 44 28.9143 43.3863 28.5957 43.0411C27.0059 41.3193 26.0408 39.0567 26.0408 36.5781ZM24.4082 30.25V31.4219C24.4082 32.0692 23.86 32.5938 23.1837 32.5938C22.5073 32.5938 21.9592 32.0692 21.9592 31.4219V30.25H20.7347C20.0584 30.25 19.5102 29.7254 19.5102 29.0781C19.5102 28.4308 20.0584 27.9062 20.7347 27.9062H21.9592V26.7344C21.9592 26.0871 22.5073 25.5625 23.1837 25.5625C23.86 25.5625 24.4082 26.0871 24.4082 26.7344V27.9062H25.6327C26.309 27.9062 26.8571 28.4308 26.8571 29.0781C26.8571 29.7254 26.309 30.25 25.6327 30.25H24.4082Z"  fill="none" stroke="#1890FF" stroke-width="2" stroke-linecap="round" stroke-linejoin="round"/>
<path d="M31.3469 14.1562H15.0204C12.0968 14.1562 9.64699 16.1279 9.04254 18.7546C8.97506 19.0478 9.20944 19.3125 9.51032 19.3125H36.857C37.1579 19.3125 37.3923 19.0478 37.3248 18.7546C36.7204 16.1279 34.2705 14.1562 31.3469 14.1562Z"  fill="none" stroke="#1890FF" stroke-width="2" stroke-linecap="round" stroke-linejoin="round"/>
</g>
</g>
</svg>
