<svg width="48" height="48" viewBox="0 0 48 48" fill="none" xmlns="http://www.w3.org/2000/svg">
<g id="icon / Postnatal">
<g id="Vector">
<path fill-rule="evenodd" clip-rule="evenodd" d="M20.2491 44C14.6045 44 6.38239 36.4533 6.04732 36.1252C6.02154 36.1252 6.02154 36.1252 6.02154 36.1252C2.64507 32.7936 1.97493 30.9006 2.0007 29.8657C2.02648 29.2095 2.33577 28.9066 2.38732 28.8562C2.4131 28.8562 2.4131 28.8309 2.43887 28.8309C2.72239 28.629 3.10901 28.528 3.57296 28.528C7.05253 28.528 14.9396 34.8885 15.6355 35.469C16.8211 36.0242 18.1098 36.3271 19.4759 36.3271C21.3317 36.3271 23.007 35.7718 24.1926 35.2418C23.5225 35.2923 22.8524 35.3175 22.2338 35.3175C16.0221 35.3175 13.5477 32.945 13.4446 32.844C13.3931 32.8188 13.3673 32.7936 13.3673 32.7431C12.8003 31.7082 12.6972 30.8249 13.058 30.1181C13.5993 29.0833 14.9653 28.8814 15.0427 28.8562H15.0942C17.2593 28.9066 19.4501 28.9319 21.6152 28.9319L21.7183 28.9571C23.3936 28.9571 25.0174 28.5533 26.4093 27.8213C28.0331 26.9632 29.8373 26.5089 31.7704 26.4584C31.8735 26.4584 31.9766 26.4331 32.0797 26.4331C33.7293 26.4331 35.4304 26.8622 36.9769 27.6194C40.5338 29.361 45.5083 29.4619 45.5598 29.4619C45.7918 29.4872 45.998 29.6638 45.998 29.891V35.267C46.0753 38.9521 43.9102 40.4917 43.8329 40.5422C43.6783 40.6431 43.4978 40.6684 43.3432 40.5674C41.1008 39.2549 38.6522 38.9773 36.9511 38.9773C35.9716 38.9773 35.3015 39.1035 35.3015 39.1035C35.25 39.1035 35.2242 39.1035 35.1984 39.1035C35.1469 39.1035 35.1211 39.1035 35.0695 39.1035C33.4715 39.1035 28.0588 41.0974 23.5483 42.9652C23.2132 43.1166 22.8781 43.2933 22.5431 43.47H22.5173C21.8729 43.8233 21.0997 44 20.2491 44Z"  fill="none" stroke="#1890FF" stroke-width="2" stroke-linecap="round" stroke-linejoin="round"/>
<path fill-rule="evenodd" clip-rule="evenodd" d="M3.46986 27.6699C3.59873 27.0641 3.9338 26.6351 4.42352 26.3827C5.53183 25.8274 7.36182 26.3827 10.0424 28.0485C10.9187 28.6038 11.7177 29.1843 12.3363 29.6386C12.3363 29.6891 12.3105 29.7143 12.2848 29.7395C11.9755 30.3705 11.9239 31.052 12.0528 31.7082C9.14027 29.6891 5.71225 27.6699 3.57296 27.6699C3.54718 27.6699 3.49563 27.6699 3.46986 27.6699Z"  fill="none" stroke="#1890FF" stroke-width="2" stroke-linecap="round" stroke-linejoin="round"/>
<path fill-rule="evenodd" clip-rule="evenodd" d="M12.0528 30.4463C10.9445 29.6891 9.73309 29.1843 8.62478 29.5376C8.44436 29.4114 8.26394 29.3357 8.08351 29.2348C8.00619 28.629 8.18661 27.468 6.69168 27.2913C6.45971 27.2661 6.27929 27.0389 6.30506 26.8117C6.45971 25.6255 6.9752 24.8935 7.79999 24.5906C9.0114 24.1868 10.8414 24.8178 13.2384 26.4584C14.0374 27.0137 14.7591 27.5689 15.3004 28.0232H15.12C14.9911 28.0232 15.0169 28.0232 14.9138 28.0232C13.857 28.1747 12.7745 28.8057 12.2848 29.7395C12.1817 29.9667 12.1044 30.1939 12.0528 30.4463Z"  fill="none" stroke="#1890FF" stroke-width="2" stroke-linecap="round" stroke-linejoin="round"/>
<path fill-rule="evenodd" clip-rule="evenodd" d="M20.61 25.045C19.0635 25.045 18.0067 24.8935 17.9552 24.8683C17.9294 24.8683 17.9294 24.8683 17.9294 24.8683C13.2127 23.8587 11.4342 21.5114 10.7641 19.6941C10.2744 18.3564 10.3001 16.842 10.8414 15.4034C11.2022 14.4443 11.3827 13.6114 11.3569 12.9299C11.3569 12.4756 11.1507 12.0213 10.8156 11.6931L9.37224 10.2797C8.77943 9.6992 8.47013 8.86629 8.57323 8.05861C8.7021 7.30142 9.1145 6.74615 9.83619 6.44327C10.661 6.06467 11.6662 6.19087 12.4652 6.74615L15.1715 8.74009C16.0736 9.39632 16.6149 10.4816 16.6149 11.5922V14.8733H18.3934C18.2129 14.1919 18.1098 13.4852 18.1614 12.7784C18.2645 11.0117 19.115 9.62348 19.4759 9.11868C19.6821 8.84105 19.9141 8.63913 20.1718 8.48769C20.8162 8.08385 21.5121 8.13433 22.1307 8.63913C22.6719 9.09344 22.9555 9.80016 22.9039 10.5321L22.7493 13.0056C22.6977 13.6366 23.1101 14.2171 23.7287 14.3938L24.9659 14.7471C23.1359 12.5008 24.0638 10.4059 24.6308 9.49728C24.9401 9.04296 25.4814 8.79057 26.0484 8.84105L27.5949 8.96724C27.9557 7.88194 28.5228 6.89759 29.2702 6.08991C30.7394 4.47457 33.0333 3.71738 35.2242 4.09598C38.3171 4.60077 40.1987 6.77139 41.2297 8.48769C42.3122 10.305 42.6215 12.4503 42.0802 14.3685C41.3585 16.943 39.2708 18.7855 36.0747 19.6941C34.1159 20.2494 32.3374 20.3251 31.6931 20.3251C29.9919 22.7986 27.1052 24.3635 23.3163 24.8683C22.3369 25.0197 21.409 25.045 20.61 25.045Z"  fill="none" stroke="#1890FF" stroke-width="2" stroke-linecap="round" stroke-linejoin="round"/>
</g>
</g>
</svg>
