<svg width="48" height="48" viewBox="0 0 48 48" fill="none" xmlns="http://www.w3.org/2000/svg">
<g id="icon / Referrals">
<g id="Vector">
<path d="M24 13.0908C26.5104 13.0908 28.5454 11.0558 28.5454 8.54542C28.5454 6.03505 26.5104 4 24 4C21.4896 4 19.4546 6.03505 19.4546 8.54542C19.4546 11.0558 21.4896 13.0908 24 13.0908Z"  fill="none" stroke="#1890FF" stroke-width="2" stroke-linecap="round" stroke-linejoin="round"/>
<path d="M17.766 22.1818H30.234C31.3082 22.1818 32.1818 21.2389 32.1818 20.0795V19.4971C32.1818 17.9781 31.4298 16.5905 30.218 15.8758C28.7665 15.02 26.5098 14 24 14C21.4902 14 19.2335 15.02 17.782 15.8758C16.5702 16.5904 15.8182 17.9781 15.8182 19.4971V20.0795C15.8182 21.239 16.6918 22.1818 17.766 22.1818Z"  fill="none" stroke="#1890FF" stroke-width="2" stroke-linecap="round" stroke-linejoin="round"/>
<path d="M12.1818 34.909C14.6922 34.909 16.7272 32.8739 16.7272 30.3636C16.7272 27.8532 14.6922 25.8181 12.1818 25.8181C9.67144 25.8181 7.63639 27.8532 7.63639 30.3636C7.63639 32.8739 9.67144 34.909 12.1818 34.909Z"  fill="none" stroke="#1890FF" stroke-width="2" stroke-linecap="round" stroke-linejoin="round"/>
<path d="M18.3998 37.694C16.9483 36.8382 14.6916 35.8182 12.1818 35.8182C9.67204 35.8182 7.41531 36.8383 5.9638 37.694C4.75196 38.4087 4 39.7963 4 41.3153V41.8976C4 43.057 4.87358 43.9999 5.94778 43.9999H18.4158C19.49 43.9999 20.3636 43.057 20.3636 41.8976V41.3153C20.3636 39.7963 19.6117 38.4087 18.3998 37.694Z"  fill="none" stroke="#1890FF" stroke-width="2" stroke-linecap="round" stroke-linejoin="round"/>
<path d="M35.8181 34.909C38.3285 34.909 40.3635 32.8739 40.3635 30.3636C40.3635 27.8532 38.3285 25.8181 35.8181 25.8181C33.3077 25.8181 31.2727 27.8532 31.2727 30.3636C31.2727 32.8739 33.3077 34.909 35.8181 34.909Z"  fill="none" stroke="#1890FF" stroke-width="2" stroke-linecap="round" stroke-linejoin="round"/>
<path d="M42.0362 37.694C40.5847 36.8382 38.328 35.8182 35.8182 35.8182C33.3084 35.8182 31.0517 36.8383 29.6002 37.694C28.3883 38.4087 27.6364 39.7963 27.6364 41.3153V41.8977C27.6364 43.0571 28.51 44 29.5842 44H42.0522C43.1264 44 44 43.0571 44 41.8977V41.3153C43.9999 39.7963 43.248 38.4087 42.0362 37.694Z"  fill="none" stroke="#1890FF" stroke-width="2" stroke-linecap="round" stroke-linejoin="round"/>
<path d="M28.5446 34.9091C28.8118 34.9091 29.0754 34.7919 29.2557 34.5682C29.5691 34.1758 29.5052 33.604 29.1136 33.2898L24.9091 29.9262V24.9091C24.9091 24.4066 24.5025 24 24 24C23.4975 24 23.0909 24.4065 23.0909 24.909V29.9268L18.8864 33.2897C18.4948 33.604 18.4309 34.1757 18.7443 34.5681C18.9246 34.7918 19.1882 34.909 19.4554 34.909C19.6543 34.909 19.855 34.8442 20.0227 34.7102L24 31.5284L27.9772 34.7102C28.145 34.8442 28.3456 34.9091 28.5446 34.9091Z"  fill="none" stroke="#1890FF" stroke-width="2" stroke-linecap="round" stroke-linejoin="round"/>
</g>
</g>
</svg>
