<svg width="48" height="48" viewBox="0 0 48 48" fill="none" xmlns="http://www.w3.org/2000/svg">
<g id="icon / Surgery">
<g id="Vector">
<path d="M34.8 29.213L42 32.7283V30.6613L34.8 27.1457V29.213Z"  fill="none" stroke="#1890FF" stroke-width="2" stroke-linecap="round" stroke-linejoin="round"/>
<path d="M34.8 44H42V35.349L34.8 31.8337V44Z"  fill="none" stroke="#1890FF" stroke-width="2" stroke-linecap="round" stroke-linejoin="round"/>
<path d="M42 13.4803C42 9.80102 39.907 6.49367 36.5367 4.84805L34.8 4V24.525L42 28.0406V23.3537L38.6836 21.7344L42 20.115V13.4803Z"  fill="none" stroke="#1890FF" stroke-width="2" stroke-linecap="round" stroke-linejoin="round"/>
<path d="M26.4 4C23.0918 4 20.4 6.62867 20.4 9.85938V18.2188H18V9.85938C18 6.62867 15.3082 4 12 4C8.69176 4 6 6.62867 6 9.85938C6 13.0901 8.69176 15.7188 12 15.7188C13.3497 15.7188 14.5965 15.2809 15.6 14.5436V31.4516C15.6 35.061 16.4742 38.6751 18.1266 41.9034L19.2 44L20.2734 41.9034C21.9258 38.6751 22.8 35.061 22.8 31.4516V14.5436C23.8035 15.2809 25.0503 15.7188 26.4 15.7188C29.7082 15.7188 32.4 13.0901 32.4 9.85938C32.4 6.62867 29.7082 4 26.4 4ZM12 13.375C10.0149 13.375 8.4 11.798 8.4 9.85938C8.4 7.92078 10.0149 6.34375 12 6.34375C13.9851 6.34375 15.6 7.92078 15.6 9.85938C15.6 11.798 13.9851 13.375 12 13.375ZM26.4 13.375C24.4149 13.375 22.8 11.798 22.8 9.85938C22.8 7.92078 24.4149 6.34375 26.4 6.34375C28.3851 6.34375 30 7.92078 30 9.85938C30 11.798 28.3851 13.375 26.4 13.375Z"  fill="none" stroke="#1890FF" stroke-width="2" stroke-linecap="round" stroke-linejoin="round"/>
</g>
</g>
</svg>
