<svg width="48" height="48" viewBox="0 0 48 48" fill="none" xmlns="http://www.w3.org/2000/svg">
<g id="icon / TB Service">
<g id="Vector">
<path d="M32.4857 23.5189L27.2143 18.7079C25.9286 17.6082 25.2857 15.9588 25.2857 14.3093V5.37457C25.2857 4.54983 24.7714 4 24 4C23.2286 4 22.7143 4.54983 22.7143 5.37457V14.4467C22.7143 16.0962 22.0714 17.7457 20.7857 18.8454L15.5143 23.6564C15 24.2062 14.8714 25.0309 15.3857 25.5808C15.5143 25.8557 15.9 25.9931 16.2857 25.9931C16.5429 25.9931 16.9286 25.8557 17.0571 25.7182L22.3286 20.9072C22.9714 20.3574 23.4857 19.6701 23.8714 18.9828C24.2571 19.6701 24.7714 20.3574 25.4143 20.9072L30.6857 25.7182C30.9429 25.9931 31.2 25.9931 31.4571 25.9931C31.8429 25.9931 32.2286 25.8557 32.4857 25.4433C33.1286 24.8935 33.1286 24.0687 32.4857 23.5189Z"  fill="none" stroke="#1890FF" stroke-width="2" stroke-linecap="round" stroke-linejoin="round"/>
<path d="M22.7143 27.3677L22.4571 24.4811L18.7286 27.7801C17.1857 29.1546 14.6143 28.8797 13.3286 27.2302C12.6857 26.4055 12.3 25.3058 12.4286 24.2062C12.5571 23.1065 13.0714 22.1443 13.8429 21.457L19.1143 16.646C19.7571 16.0962 20.1429 15.2715 20.1429 14.3093V10.1856C19.5 9.7732 18.8571 9.49828 17.9571 9.49828C12.6857 9.49828 6 21.732 6 34.7904C6 40.0137 6.64286 42.488 8.18571 43.4502C8.57143 43.7251 8.95714 43.8625 9.34286 43.8625C10.3714 43.8625 11.5286 43.1753 12.4286 42.6254C13.3286 42.0756 14.2286 41.5258 14.8714 41.5258C19.8857 41.5258 22.5857 39.7388 22.5857 30.1168C22.5857 28.8797 22.5857 28.7423 22.5857 28.3299C22.7143 28.1924 22.7143 27.9175 22.7143 27.3677Z"  fill="none" stroke="#1890FF" stroke-width="2" stroke-linecap="round" stroke-linejoin="round"/>
<path d="M30.1714 9.49828C29.1429 9.49828 28.5 9.7732 27.8571 10.323V14.4467C27.8571 15.2715 28.2429 16.0962 28.8857 16.7835L34.1571 21.5945C34.9286 22.2818 35.4429 23.244 35.5714 24.3436C35.7 25.4433 35.3143 26.543 34.6714 27.3677C33.9 28.1924 32.8714 28.7423 31.7143 28.7423C30.8143 28.7423 29.9143 28.4674 29.2714 27.7801L25.5429 24.4811L25.2857 27.3677V30.2543C25.2857 39.7388 27.9857 41.6632 33 41.6632C33.6429 41.6632 34.6714 42.2131 35.4429 42.7629C36.4714 43.3127 37.5 44 38.5286 44C38.9143 44 39.4286 43.8625 39.8143 43.5876C41.3571 42.6254 42 40.1512 42 34.9278C42 21.732 35.3143 9.49828 30.1714 9.49828Z"  fill="none" stroke="#1890FF" stroke-width="2" stroke-linecap="round" stroke-linejoin="round"/>
</g>
</g>
</svg>
