<svg xmlns="http://www.w3.org/2000/svg" width="24" height="24" viewBox="0 0 24 24" fill="none">
  <path d="M6.7196 3.5528H6.30185C5.31541 3.5528 4.5 4.36951 4.5 5.38725V19.6656C4.5 20.6833 5.31541 21.5 6.30185 21.5H17.6982C18.6846 21.5 19.5 20.6833 19.5 19.6656V5.38725C19.5 4.36947 18.6845 3.55263 17.6982 3.55263H17.2804L17.3352 3.83072C17.375 4.00672 17.3951 4.18687 17.3951 4.36748C17.3951 5.6871 16.3354 6.7718 15.0167 6.7718H8.98329C8.26605 6.7718 7.59446 6.44831 7.14255 5.88917L6.7196 3.5528ZM6.7196 3.5528L6.65167 3.89723C6.65166 3.89725 6.65166 3.89728 6.65166 3.8973C6.51231 4.60342 6.6909 5.33037 7.14254 5.88916L6.7196 3.5528ZM10.0443 2.5924L10.0502 2.57081L10.0542 2.54878C10.0592 2.52083 10.0707 2.50574 10.0767 2.5H13.9225C13.9285 2.50574 13.9401 2.52083 13.9451 2.54878L13.9492 2.57116L13.9552 2.59309L14.4979 4.56116C14.4992 4.5684 14.5 4.57648 14.5 4.58548C14.5 4.6214 14.4869 4.64477 14.4774 4.65533C14.4765 4.65636 14.4757 4.6572 14.4749 4.65789H9.52475C9.5233 4.65651 9.52142 4.65446 9.51926 4.65153C9.50773 4.6359 9.49798 4.60804 9.50032 4.57593L10.0443 2.5924ZM15.0749 11.1457L15.0931 11.1201L15.1078 11.0923C15.6555 10.0654 15.4072 8.9541 14.6333 8.37371C13.9229 7.84085 12.9272 7.85902 12 8.54043C11.0728 7.85902 10.0771 7.84084 9.36667 8.37369C8.59282 8.95408 8.34447 10.0654 8.89215 11.0923L8.90695 11.1201L8.9251 11.1457C9.66625 12.1938 10.6226 13.0896 11.7361 13.7817L12 13.9457L12.2639 13.7817C13.3774 13.0896 14.3337 12.1938 15.0749 11.1457ZM9.7222 14.5237H7.83334C7.09696 14.5237 6.5 15.1206 6.5 15.857C6.5 16.5934 7.09696 17.1903 7.83334 17.1903H9.7222C10.4586 17.1903 11.0555 16.5934 11.0555 15.857C11.0555 15.1206 10.4586 14.5237 9.7222 14.5237ZM7.83334 20.357H15.3889C16.1253 20.357 16.7222 19.7601 16.7222 19.0237C16.7222 18.2873 16.1252 17.6903 15.3889 17.6903H7.83334C7.09696 17.6903 6.5 18.2873 6.5 19.0237C6.5 19.7601 7.09696 20.357 7.83334 20.357Z" stroke="#000"/>
</svg>