<svg width="15" height="21" viewBox="0 0 15 21" fill="none" xmlns="http://www.w3.org/2000/svg">
<path d="M7.5008 6.80239C9.37923 6.80239 10.902 5.27962 10.902 3.40119C10.902 1.52277 9.37923 0 7.5008 0C5.62238 0 4.09961 1.52277 4.09961 3.40119C4.09961 5.27962 5.62238 6.80239 7.5008 6.80239Z" fill="#000003"/>
<path d="M6.61712 18.453C6.90105 18.876 6.84486 19.4408 6.48403 19.7987C6.06998 20.2157 5.39565 20.2157 4.97864 19.7987L2.28726 17.1073C1.88207 16.7021 1.94714 16.1112 2.25768 15.6315C3.95236 13.0132 3.95236 13.0132 3.95236 13.0132L6.90992 15.0835L5.13539 16.5623C5.13834 16.5652 6.61417 18.4501 6.61712 18.453Z" fill="#000003"/>
<path d="M8.38453 18.4531C8.10031 18.876 8.1568 19.4409 8.51733 19.7987C8.93139 20.2158 9.60601 20.2158 10.0227 19.7987L12.7144 17.1074C13.1196 16.7022 13.0542 16.1113 12.7443 15.6315C11.0493 13.0132 11.0493 13.0132 11.0493 13.0132L8.09174 15.0835L9.86627 16.5623C9.86331 16.5652 8.38749 18.4501 8.38453 18.4531Z" fill="#000003"/>
<path d="M14.6159 7.75676H14.61C13.6133 8.37489 12.5309 8.87176 11.3863 9.21483C11.0107 9.32722 10.7534 9.67325 10.7534 10.0637V12.4217H4.24674V10.0634C4.24674 9.67296 3.98943 9.32692 3.61382 9.21454C2.46925 8.87146 1.38678 8.37459 0.390083 7.75646H0.384169C0.0440493 7.54352 -0.0919983 7.11763 0.0647523 6.74497C0.230376 6.36049 0.656264 6.16825 1.04962 6.2836C1.07624 6.29543 1.10581 6.3043 1.13243 6.31613C1.13835 6.31909 1.14426 6.32204 1.14722 6.325C3.09921 7.15312 5.2464 7.61154 7.50006 7.61154C9.75372 7.61154 11.9009 7.15312 13.8529 6.325C13.8558 6.32204 13.8615 6.31909 13.8677 6.31613C13.8943 6.3043 13.9236 6.29543 13.9502 6.2836C14.3435 6.16825 14.7697 6.36049 14.9351 6.74497C15.0921 7.11763 14.9561 7.54352 14.6159 7.75676Z" fill="#000003"/>
</svg>
