<svg width="20" height="16" viewBox="0 0 20 16" fill="none" xmlns="http://www.w3.org/2000/svg">
<g clip-path="url(#clip0_5_30)">
<path d="M0 13.0073V0H19.6406V13.0201C19.4285 13.0201 19.2077 12.9929 18.9964 13.0255C18.4154 13.115 17.9953 12.9132 17.6503 12.4362C17.4968 12.2241 17.4439 12.0974 17.5549 11.8403C18.1496 10.4645 17.7567 8.87899 16.612 7.91128C15.5531 7.01579 14.0126 6.83958 12.8097 7.50356C11.159 8.41473 10.5441 10.3262 11.3174 11.9847C11.3785 12.1164 11.3793 12.1981 11.2737 12.3033C11.0789 12.4973 10.906 12.7127 10.7112 12.9066C10.6514 12.9661 10.5499 13.0164 10.4673 13.0164C7.02858 13.0218 3.58981 13.0209 0.151037 13.0201C0.104405 13.0201 0.0581863 13.0127 0 13.0077L0 13.0073ZM6.38894 6.74507C6.38894 6.58702 6.39967 6.42856 6.38729 6.27133C6.32952 5.55081 5.81079 5.02177 5.07789 4.92768C4.35366 4.83483 3.733 5.19674 3.50604 5.84381C3.34056 6.31549 3.3909 6.53874 3.77179 6.8631C4.05076 7.10038 4.16961 7.39255 4.09326 7.74249C4.01444 8.10317 3.89642 8.45476 3.80151 8.81172C3.68348 9.25369 3.90715 9.64284 4.34829 9.76622C4.71268 9.86815 5.04075 9.77118 5.34448 9.56773C5.71959 9.31683 5.93954 8.94708 6.10214 8.54183C6.33282 7.96616 6.40173 7.36036 6.38894 6.74466V6.74507ZM13.7538 1.88136C12.7647 1.88136 11.7751 1.88136 10.7859 1.88136C10.5041 1.88136 10.2222 1.87517 9.94078 1.88466C9.7101 1.8925 9.54957 2.06541 9.53472 2.29815C9.51986 2.53544 9.67296 2.73187 9.90529 2.76571C9.97957 2.77644 10.0559 2.77437 10.1314 2.77437C12.5497 2.77437 14.9683 2.77437 17.3866 2.77437C17.4415 2.77437 17.4968 2.77685 17.5512 2.7719C17.8215 2.74838 17.9858 2.55194 17.9635 2.28206C17.942 2.0262 17.7741 1.88177 17.4844 1.88177C16.241 1.88053 14.9972 1.88136 13.7538 1.88095V1.88136ZM13.7344 5.10843C14.9848 5.10843 16.2352 5.10967 17.4856 5.1076C17.8211 5.10719 18.0175 4.87362 17.9552 4.56164C17.9078 4.32436 17.7439 4.21335 17.4266 4.21335C14.9741 4.21252 12.5216 4.21252 10.0687 4.21294C10.0208 4.21294 9.97215 4.21294 9.92469 4.21871C9.6515 4.25503 9.48189 4.50511 9.54751 4.77293C9.60281 4.99866 9.76127 5.10802 10.0448 5.10802C11.2745 5.10884 12.5043 5.10802 13.734 5.10802L13.7344 5.10843ZM2.89529 5.10348C3.34303 5.101 3.70824 4.72877 3.70082 4.28227C3.6938 3.84566 3.3257 3.48705 2.88786 3.48953C2.44506 3.492 2.0881 3.84814 2.08563 4.28969C2.08315 4.74115 2.44589 5.10595 2.89529 5.10348ZM3.8729 3.88487C3.87744 4.25008 4.18405 4.5505 4.55009 4.54844C4.91489 4.54637 5.21696 4.24059 5.21655 3.87414C5.21572 3.49696 4.90705 3.1953 4.52904 3.20272C4.16218 3.21015 3.86836 3.51511 3.8729 3.88487ZM5.99732 3.60796C5.69071 3.60631 5.44641 3.84607 5.44352 4.15186C5.44063 4.45724 5.68245 4.7036 5.98741 4.70608C6.29073 4.70855 6.53956 4.46508 6.54452 4.16177C6.54947 3.86299 6.29898 3.60962 5.99732 3.60838V3.60796ZM7.02528 5.60033C7.28402 5.60404 7.49861 5.39771 7.5048 5.13938C7.51099 4.88683 7.29557 4.66357 7.04178 4.65903C6.7884 4.65449 6.56804 4.86784 6.56309 5.12329C6.55772 5.37955 6.76777 5.59662 7.02528 5.60033Z" fill="#000003"/>
<path d="M15.9014 16C15.5845 14.9902 15.2824 14.0291 14.9832 13.0758H14.0044C13.706 14.0266 13.4044 14.9869 13.0887 15.993C12.9777 15.8271 12.8881 15.6959 12.801 15.563C12.6244 15.2927 12.4441 15.0244 12.2765 14.7488C12.208 14.6361 12.1305 14.5911 11.9976 14.5862C11.5135 14.5684 11.0299 14.5363 10.5 14.507C11.2086 13.7316 11.8874 12.9892 12.5741 12.2381C12.0397 11.5882 11.823 10.859 11.9774 10.039C12.0793 9.49798 12.3323 9.03249 12.7383 8.65531C13.8137 7.65583 15.3691 7.81801 16.251 8.65614C17.146 9.50665 17.4101 11.041 16.4144 12.2385C17.0944 12.9826 17.7766 13.7295 18.4876 14.5078C17.9598 14.5367 17.4762 14.5689 16.9917 14.5866C16.8596 14.5916 16.7816 14.6336 16.7115 14.7455C16.4573 15.1524 16.1915 15.5523 15.901 16H15.9014Z" fill="#000003"/>
</g>
<defs>
<clipPath id="clip0_5_30">
<rect width="19.6406" height="16" fill="white"/>
</clipPath>
</defs>
</svg>
