<svg width="20" height="26" viewBox="0 0 20 26" fill="none" xmlns="http://www.w3.org/2000/svg">
<g clip-path="url(#clip0_5_53)">
<path d="M16.2502 6.98625e-06C16.7107 0.176384 16.8684 0.510822 16.86 0.978899C16.8418 2.07786 16.8544 3.17751 16.8544 4.27715V4.62108C17.1004 4.62108 17.3325 4.61973 17.5638 4.62108C18.0972 4.62515 18.4148 4.91957 18.4316 5.43106C18.4386 5.65764 18.433 5.88489 18.433 6.12775H13.7253C13.7253 5.82927 13.7029 5.54164 13.7309 5.25875C13.7673 4.89311 14.0947 4.63397 14.4936 4.62244C14.7459 4.61498 14.9982 4.62108 15.2814 4.62108C15.2814 4.50169 15.2814 4.40265 15.2814 4.30293C15.2814 3.19514 15.2948 2.08668 15.2751 0.978899C15.2667 0.510144 15.4237 0.176384 15.8843 -0.000671387H16.2516L16.2502 6.98625e-06Z" fill="#000003"/>
<path d="M2.68651 15.2969H8.45828C8.45828 15.6374 8.46529 15.9658 8.45547 16.2941C8.45057 16.4508 8.49683 16.5308 8.65946 16.5905C10.1953 17.157 11.0715 18.3638 11.0834 19.958C11.0967 21.6844 11.089 23.4109 11.0855 25.1374C11.0841 25.699 10.768 25.9982 10.1897 25.9982C7.0942 25.9989 3.99802 25.9989 0.902551 25.9982C0.322851 25.9982 0.00741619 25.6997 0.00601426 25.1387C0.00250942 23.4041 -0.00660315 21.6688 0.00811716 19.9342C0.0221365 18.3326 0.950918 17.0837 2.49375 16.5553C2.64305 16.5044 2.69492 16.4345 2.69002 16.2846C2.6795 15.9637 2.68651 15.6422 2.68651 15.2969Z" fill="#000003"/>
<path d="M19.198 15.2845V16.8081C18.4053 16.8081 17.6279 16.8047 16.8512 16.8094C16.4622 16.8115 16.1783 17.0245 16.0731 17.3725C15.9813 17.6771 16.0984 18.0251 16.3914 18.1886C16.5421 18.2727 16.7341 18.3208 16.9094 18.3249C17.5823 18.3405 18.2559 18.331 18.9289 18.331C19.0144 18.331 19.0999 18.331 19.2093 18.331V21.3464C19.2941 21.3715 19.3593 21.3898 19.4238 21.4102C19.8212 21.5336 20.0476 21.8647 19.9915 22.2418C19.9348 22.6217 19.6249 22.8944 19.2149 22.8985C18.4978 22.906 17.7807 22.9005 17.0636 22.9019C17.004 22.9019 16.9444 22.9087 16.8694 22.9134V24.4757C17.3026 24.4757 17.7358 24.4744 18.1697 24.4764C18.3092 24.4764 18.4529 24.4683 18.5875 24.4954C18.9885 24.5754 19.2471 24.9309 19.2037 25.3189C19.1602 25.707 18.842 25.9946 18.4207 25.9966C17.3279 26.0027 16.2344 25.9994 15.1415 25.9994C14.6782 25.9994 14.2149 26.0027 13.7515 25.998C13.2665 25.9932 12.9237 25.6669 12.9293 25.226C12.9349 24.7966 13.2749 24.4818 13.748 24.4771C14.2457 24.4723 14.7434 24.4757 15.26 24.4757V22.9012C14.6775 22.9012 14.1027 22.9012 13.5279 22.9012C13.3443 22.9012 13.1606 22.9033 12.977 22.9012C12.5262 22.8958 12.1982 22.636 12.1463 22.2446C12.0923 21.8409 12.3272 21.5153 12.7604 21.3946C12.8017 21.383 12.8445 21.3762 12.9181 21.3613C12.9181 21.2562 12.9181 21.1497 12.9181 21.0425C12.9181 16.9044 12.9181 12.7663 12.9174 8.62826C12.9174 8.3698 12.909 8.09302 13.1347 7.92614C13.3036 7.80064 13.5328 7.6826 13.7368 7.67989C15.293 7.65954 16.8498 7.66632 18.406 7.67039C18.823 7.67175 19.1756 7.93021 19.1896 8.30942C19.2184 9.10176 19.198 9.89613 19.198 10.7149C18.8223 10.7149 18.4578 10.7149 18.0926 10.7149C17.7078 10.7149 17.323 10.7143 16.9381 10.7149C16.4047 10.7163 16.0444 11.0202 16.0409 11.4706C16.0374 11.9211 16.3998 12.2365 16.9262 12.2379C17.5907 12.2392 18.2552 12.2379 18.9198 12.2379C19.0067 12.2379 19.0936 12.2379 19.1966 12.2379V13.7615C18.4515 13.7615 17.7183 13.7615 16.9858 13.7615C16.8813 13.7615 16.7741 13.7574 16.6725 13.7785C16.2848 13.8572 16.0143 14.2031 16.0416 14.5722C16.0703 14.9656 16.4019 15.277 16.8253 15.2817C17.5157 15.2906 18.2069 15.2845 18.8973 15.2845C18.992 15.2845 19.0873 15.2845 19.1973 15.2845H19.198Z" fill="#000003"/>
<path d="M5.59608 9.70071C6.77651 9.70071 7.95694 9.70003 9.13667 9.70071C9.71707 9.70071 10.0325 9.99715 10.0367 10.5568C10.0423 11.3437 10.043 12.1306 10.0367 12.9176C10.0325 13.4616 9.71357 13.7601 9.14929 13.7601C6.76249 13.7614 4.3757 13.7614 1.98891 13.7601C1.43935 13.7601 1.12391 13.4609 1.11971 12.9298C1.1141 12.1259 1.1134 11.322 1.11971 10.5181C1.12391 10.0019 1.44285 9.70206 1.97559 9.70071C3.18195 9.69867 4.38832 9.70003 5.59538 9.70003L5.59608 9.70071Z" fill="#000003"/>
</g>
<defs>
<clipPath id="clip0_5_53">
<rect width="20" height="26" fill="white"/>
</clipPath>
</defs>
</svg>
