<svg width="20" height="22" viewBox="0 0 20 22" fill="none" xmlns="http://www.w3.org/2000/svg">
<g clip-path="url(#clip0_5_43)">
<path d="M9.41069 20.4041C9.41069 19.6474 9.41069 18.9039 9.41069 18.1597C9.41069 18.1197 9.40556 18.0797 9.40556 18.0777C8.71705 17.8869 8.0491 17.7014 7.34455 17.506C7.23922 17.6692 7.10884 17.8718 6.97846 18.0757C6.72477 18.4731 6.47685 18.8744 6.21674 19.2671C5.95984 19.6553 5.50961 19.7504 5.14352 19.5078C4.78514 19.2691 4.68945 18.8003 4.9335 18.4075C5.29445 17.8279 5.66504 17.2555 5.95919 16.7939C5.4608 16.2864 4.98681 15.8038 4.46787 15.276C3.9303 15.592 3.26042 15.9868 2.62073 16.3631C2.63229 16.5775 2.67275 16.7657 2.64514 16.9434C2.59183 17.2857 2.36575 17.4902 2.03692 17.5551C1.72478 17.6168 1.44989 17.5092 1.28355 17.2384C0.985538 16.7546 0.70487 16.2582 0.440259 15.7546C0.266207 15.4235 0.386952 15.0085 0.681107 14.7915C0.98618 14.5666 1.39979 14.5967 1.67211 14.8669C1.71771 14.9121 1.75689 14.9632 1.81148 15.0249C2.48329 14.6295 3.1538 14.2341 3.79221 13.8584C3.60852 13.1654 3.4319 12.4985 3.24308 11.7858C3.08508 11.7858 2.8725 11.7858 2.65991 11.7858C2.33942 11.7858 2.01829 11.793 1.69845 11.7832C1.26942 11.7694 0.941864 11.4141 0.948929 10.9859C0.955994 10.5669 1.27969 10.2273 1.70166 10.2181C2.1506 10.2083 2.59954 10.2155 3.04847 10.2155C3.12683 10.2155 3.20583 10.2155 3.2784 10.2155C3.35355 9.85222 3.41071 9.50602 3.4987 9.16835C3.5854 8.83789 3.70422 8.5166 3.81919 8.15926C3.16537 7.77372 2.49613 7.37835 1.81534 6.97707C1.58284 7.25836 1.31116 7.43605 0.936084 7.32983C0.467234 7.19738 0.218038 6.68136 0.443471 6.24205C0.69909 5.74243 0.981042 5.25657 1.27134 4.77727C1.47494 4.44156 1.87892 4.34124 2.22381 4.5045C2.56806 4.66711 2.73955 5.04544 2.64 5.42245C2.62587 5.47688 2.60853 5.53064 2.58412 5.61457C3.24822 6.00666 3.91681 6.40073 4.46273 6.72332C4.97461 6.20599 5.45052 5.72603 5.96176 5.21001C5.67724 4.76415 5.31758 4.19699 4.9547 3.63179C4.82625 3.43181 4.75817 3.22003 4.81469 2.98136C4.8924 2.65614 5.09407 2.44502 5.41199 2.3801C5.74083 2.31257 6.017 2.42993 6.20454 2.71712C6.54686 3.24101 6.87955 3.7708 7.21609 4.29797C7.26362 4.37271 7.31308 4.44615 7.34583 4.49598C8.03305 4.30387 8.701 4.117 9.39592 3.92292V1.59132C9.33362 1.57493 9.2649 1.55985 9.19875 1.53887C8.82945 1.42084 8.60209 1.07334 8.64641 0.695008C8.69136 0.308813 9.00607 0.0124463 9.40042 0.00523379C9.90523 -0.00329004 10.4101 -1.16447e-05 10.9155 0.00392243C11.3413 0.00720083 11.6695 0.296355 11.7151 0.698942C11.7607 1.10153 11.5051 1.45494 11.0902 1.56182C11.0517 1.57165 11.0112 1.57624 10.9611 1.58476V3.92029C11.6445 4.11044 12.3124 4.296 13.017 4.49205C13.2225 4.17142 13.4544 3.81145 13.6856 3.45083C13.8346 3.21806 13.9791 2.98267 14.1313 2.75187C14.3959 2.35125 14.8493 2.24438 15.2174 2.49026C15.5834 2.73483 15.6714 3.20364 15.4158 3.61278C15.0581 4.18453 14.692 4.75038 14.4017 5.20542C14.9007 5.71292 15.3747 6.1955 15.8943 6.72398C16.4319 6.40794 17.1017 6.01322 17.7215 5.64932C17.7215 5.40541 17.6907 5.20084 17.7286 5.00938C17.7935 4.67826 18.0285 4.49073 18.3471 4.43894C18.6477 4.38976 18.9168 4.49532 19.078 4.75956C19.3741 5.24477 19.6567 5.7398 19.9206 6.24402C20.0992 6.58563 19.9701 7.00723 19.6618 7.22098C19.3471 7.43932 18.9482 7.39736 18.674 7.11542C18.6348 7.07542 18.6001 7.03084 18.5513 6.97445C17.8802 7.36982 17.2096 7.7652 16.5706 8.14221C16.7536 8.8333 16.9303 9.50078 17.1191 10.2142C17.261 10.2142 17.4576 10.2142 17.6541 10.2142C17.9906 10.2142 18.3278 10.2069 18.6637 10.2168C19.0831 10.2292 19.4087 10.5715 19.4139 10.9885C19.419 11.4167 19.0908 11.7734 18.6605 11.7819C18.1332 11.7924 17.6053 11.7845 17.1152 11.7845C16.9328 12.4808 16.7575 13.1483 16.5719 13.8565C17.1962 14.2249 17.8648 14.6203 18.5455 15.0223C18.7697 14.7449 19.0382 14.5731 19.401 14.6629C19.8853 14.7836 20.1461 15.3068 19.9174 15.7566C19.6637 16.2569 19.3811 16.7428 19.0895 17.2214C18.8789 17.5663 18.4665 17.662 18.1159 17.4843C17.7787 17.3139 17.6194 16.9342 17.7267 16.5539C17.7395 16.5074 17.7556 16.4621 17.7793 16.3861C17.1146 15.9933 16.446 15.5986 15.8975 15.2747C15.3869 15.792 14.9129 16.2733 14.401 16.7919C14.6791 17.228 15.0497 17.7781 15.3837 18.3511C15.4903 18.5347 15.5565 18.7819 15.5404 18.9917C15.5141 19.3314 15.279 19.5484 14.9502 19.6186C14.6194 19.6887 14.3452 19.5674 14.1583 19.2829C13.8147 18.7603 13.4833 18.2292 13.1461 17.702C13.0985 17.6273 13.0491 17.5538 13.0163 17.5047C12.3291 17.6961 11.6612 17.8823 10.9662 18.0757V20.4054C11.0363 20.4244 11.112 20.4408 11.1859 20.4657C11.5372 20.5837 11.7588 20.9352 11.7151 21.3023C11.6714 21.6682 11.3734 21.9777 11.008 21.9882C10.4557 22.0039 9.90202 22.0046 9.34904 21.9882C8.98488 21.977 8.68623 21.6636 8.64576 21.2984C8.60466 20.9266 8.82367 20.5824 9.17884 20.465C9.24692 20.4428 9.31821 20.4283 9.41134 20.4047L9.41069 20.4041ZM7.10563 14.1397C7.95533 14.1384 8.64448 13.429 8.64063 12.5602C8.63677 11.7032 7.9502 11.0036 7.11076 10.9997C6.25913 10.9957 5.56485 11.6993 5.5642 12.5667C5.56292 13.4349 6.25527 14.141 7.10563 14.1397ZM10.5603 8.64184C11.1898 8.64446 11.7106 8.12189 11.7183 7.48129C11.726 6.82823 11.2077 6.28926 10.57 6.28664C9.93992 6.28467 9.41969 6.80594 9.41198 7.44654C9.40427 8.09959 9.92258 8.63856 10.5603 8.64118V8.64184ZM14.0273 13.7509C14.0285 13.1083 13.5167 12.5772 12.8892 12.57C12.2488 12.5628 11.7222 13.0919 11.7203 13.7437C11.719 14.3862 12.2302 14.9173 12.8583 14.9246C13.498 14.9324 14.026 14.402 14.0273 13.7502V13.7509Z" fill="#000003"/>
</g>
<defs>
<clipPath id="clip0_5_43">
<rect width="19.6429" height="22" fill="white" transform="translate(0.357422)"/>
</clipPath>
</defs>
</svg>
