<svg width="20" height="22" viewBox="0 0 20 22" fill="none" xmlns="http://www.w3.org/2000/svg">
<path d="M8.45771 12L7.23242 14.366L9.0853 18.76H10.6393L12.4922 14.366L11.2669 12H8.45771ZM11.3566 15.12H10.46V17.2H9.26461V15.12H8.36805V14.08H9.26461V13.3H10.46V14.08H11.3566V15.12Z" fill="#000003"/>
<path d="M19.6943 5.746C19.6943 5.59 19.6943 5.252 19.4253 5.096L13.508 0.156C13.3885 0.052 13.2391 0 13.0897 0H2.98851C0.627586 0 0 1.69 0 2.6L0 19.4C0 20.31 0.627586 22 2.98851 22H16.7356C19.0965 22 19.7241 20.31 19.7241 19.4L19.6943 5.746ZM5.37931 4.4H10.4598V5.44H5.37931V4.4ZM13.7172 14.562L11.6253 19.502C11.5356 19.71 11.3264 19.84 11.0575 19.84H8.66667C8.42759 19.84 8.1885 19.71 8.09885 19.502L6.0069 14.562C5.94713 14.432 5.94713 14.302 6.03678 14.172L7.53103 11.312C7.62069 11.13 7.82988 11 8.06896 11H11.6552C11.8943 11 12.1034 11.13 12.1931 11.312L13.6874 14.172C13.7471 14.302 13.777 14.432 13.7172 14.562ZM14.3448 9.86H5.37931V8.82H14.3448V9.86ZM14.3448 8.04H5.37931V7H14.3448V8.04ZM15.8391 4.94C13.8368 4.94 13.7471 3.536 13.7471 3.38V1.794L17.5126 4.94H15.8391Z" fill="#000003"/>
</svg>
