<svg width="20" height="17" viewBox="0 0 20 17" fill="none" xmlns="http://www.w3.org/2000/svg">
<g clip-path="url(#clip0_5_33)">
<path d="M0.00057416 10.7825C0.0401912 10.5819 0.0674638 10.3782 0.120861 10.1813C0.588514 8.46557 1.69923 7.39703 3.44439 6.98678C3.72658 6.92058 4.02457 6.89473 4.3151 6.89359C5.38246 6.88961 6.4504 6.88421 7.51661 6.92086C7.91795 6.93478 8.31556 7.0615 8.72063 7.17003C8.019 7.65898 7.5835 8.28516 7.50542 9.11703C7.42762 9.94635 7.7236 10.6438 8.33479 11.2075C8.07269 11.3251 7.80857 11.4158 7.57346 11.5544C6.57959 12.14 6.06141 13.0162 6.02064 14.1586C6.00284 14.6538 6.01777 15.1501 6.01777 15.6717C5.93968 15.6717 5.87165 15.6729 5.80332 15.6717C3.90285 15.6399 2.05578 15.295 0.244305 14.7416C0.164784 14.7171 0.0815307 14.7046 0 14.6864C0 13.3849 0 12.0837 0 10.7822L0.00057416 10.7825Z" fill="#000003"/>
<path d="M13.9824 15.6675C13.9824 15.1954 13.9841 14.7391 13.9821 14.2828C13.9766 13.1077 13.4786 12.1969 12.468 11.5778C12.2229 11.4275 11.9427 11.3337 11.6671 11.209C12.2734 10.645 12.5763 9.94358 12.4939 9.10716C12.4123 8.27898 11.9788 7.65621 11.2617 7.19908C11.7828 6.97804 12.3073 6.89395 12.8424 6.89224C13.8899 6.88883 14.9418 6.84792 15.9845 6.92207C17.7624 7.0485 18.9913 7.98891 19.6941 9.60237C19.9157 10.1112 19.9978 10.6519 19.9984 11.2045C19.9996 12.2994 19.9976 13.3947 20.0007 14.4896C20.001 14.603 19.9892 14.6754 19.8563 14.7161C17.9759 15.2902 16.06 15.6516 14.0866 15.6761C14.0613 15.6764 14.0358 15.6721 13.9824 15.6678V15.6675Z" fill="#000003"/>
<path d="M5.73093 6.66098C3.86462 6.65019 2.37037 5.16401 2.37697 3.3244C2.38358 1.48365 3.89505 -0.00707747 5.74758 2.52764e-05C7.61217 0.00712802 9.12106 1.51802 9.10297 3.36019C9.08517 5.19412 7.57571 6.67149 5.73093 6.66098Z" fill="#000003"/>
<path d="M14.2547 6.66097C12.3925 6.655 10.8951 5.16882 10.8965 3.32779C10.8979 1.49159 12.4123 -0.00453543 14.2648 1.03314e-05C16.1208 0.00455609 17.6262 1.50125 17.6219 3.33773C17.6176 5.17933 16.1104 6.66693 14.2547 6.66097Z" fill="#000003"/>
<path d="M6.47913 16.3826C6.47913 15.4962 6.41597 14.635 6.49435 13.787C6.6043 12.5977 7.6886 11.6257 8.90811 11.5709C9.69902 11.5354 10.4991 11.5263 11.2854 11.603C12.5118 11.7226 13.5034 12.8233 13.5445 14.0398C13.5689 14.7666 13.5482 15.495 13.5568 16.2226C13.5582 16.3442 13.4865 16.3749 13.4044 16.4121C12.7897 16.6909 12.1383 16.8403 11.4723 16.9235C9.80409 17.1315 8.1795 16.8991 6.58219 16.4207C6.53913 16.4079 6.49779 16.3894 6.47913 16.3826Z" fill="#000003"/>
<path d="M7.91623 9.35773C7.90992 8.21731 8.83403 7.29452 9.99038 7.28685C11.1393 7.27946 12.0752 8.19799 12.0823 9.34039C12.0895 10.48 11.1625 11.4045 10.0079 11.4096C8.85297 11.4147 7.92283 10.5024 7.91623 9.35773Z" fill="#000003"/>
</g>
<defs>
<clipPath id="clip0_5_33">
<rect width="20" height="17" fill="white"/>
</clipPath>
</defs>
</svg>
