<svg width="24" height="24" viewBox="0 0 24 24" fill="none" xmlns="http://www.w3.org/2000/svg">
<g clip-path="url(#clip0_5_3)">
<path d="M14.4652 2.12652C14.246 1.93593 14.0629 1.79473 13.9014 1.63346C13.4798 1.21217 13.4583 0.657381 13.8375 0.273122C14.2129 -0.107279 14.7806 -0.0910754 15.1976 0.32482C16.9169 2.04473 18.6331 3.76772 20.3508 5.48917C21.4501 6.59179 22.5478 7.69673 23.6509 8.7955C23.9317 9.07559 24.0732 9.39426 23.9663 9.78547C23.7863 10.4467 22.9809 10.6821 22.4686 10.2176C22.257 10.0254 22.0832 9.79164 21.8439 9.52158C21.7239 9.67821 21.6632 9.77929 21.5832 9.86031C17.4376 14.0208 13.2883 18.1767 9.14584 22.3395C8.06195 23.429 6.77038 24.0455 5.23263 23.9969C2.98948 23.9259 1.33559 22.8464 0.461711 20.7785C-0.407547 18.7222 -0.0252273 16.8001 1.45482 15.1227C1.85483 14.669 2.30254 14.2585 2.73025 13.8294C6.53037 10.0177 10.3313 6.20599 14.1337 2.39581C14.2145 2.31479 14.3129 2.24997 14.4668 2.12652H14.4652ZM15.7214 3.53392C12.5059 6.75538 9.28123 9.98763 6.06651 13.2091C6.09497 13.2106 6.15959 13.2183 6.22497 13.2183C9.28584 13.2183 12.3459 13.2207 15.4068 13.2114C15.5391 13.2114 15.7037 13.1342 15.7991 13.0386C17.3123 11.5347 18.8161 10.0224 20.3216 8.51155C20.3877 8.44519 20.45 8.3742 20.4962 8.32482C18.8854 6.70908 17.2869 5.10491 15.7207 3.53392H15.7214Z" fill="#000003"/>
</g>
<defs>
<clipPath id="clip0_5_3">
<rect width="24" height="24" fill="white"/>
</clipPath>
</defs>
</svg>
