<svg width="20" height="29" viewBox="0 0 20 29" fill="none" xmlns="http://www.w3.org/2000/svg">
<g clip-path="url(#clip0_5_86)">
<path d="M10.4659 25.4994C7.12092 25.031 4.67427 23.3212 3.20742 20.1871C3.16507 20.0978 3.01765 20.0085 2.91747 20.0068C2.14536 19.9918 1.37324 20.0001 0.60113 19.9976C0.21996 19.9968 -0.00401773 19.8039 5.45906e-05 19.4917C0.00412692 19.1803 0.225661 18.9991 0.613347 18.9991C3.29619 18.9983 5.97904 18.9983 8.66107 18.9991C9.04224 18.9991 9.26704 19.1928 9.26215 19.505C9.25808 19.8148 9.03491 19.9968 8.64804 19.9984C7.94842 20.0001 7.24879 19.9984 6.54021 19.9984C7.28219 21.3476 9.36722 22.64 11.5638 22.483C14.2174 22.2935 16.3781 20.3858 16.9369 17.7768C17.52 15.056 16.155 11.9837 13.2351 10.8399C13.9372 10.1194 14.6287 9.40311 15.334 8.70182C15.3829 8.6534 15.5571 8.68179 15.6402 8.73188C17.1388 9.62352 18.2799 10.8683 19.0585 12.4529C21.7072 17.8411 18.4982 24.3514 12.7008 25.36C12.4329 25.4067 12.1616 25.4318 11.8929 25.4985C12.055 25.4985 12.2162 25.4985 12.3783 25.4985C13.9127 25.4985 15.4472 25.4952 16.9816 25.4994C18.5552 25.5036 19.7362 26.5463 19.974 28.1334C20.0709 28.7804 19.8893 28.9992 19.2548 28.9992C13.8891 28.9992 8.52424 28.9992 3.15855 28.9992C2.5534 28.9992 2.37341 28.7896 2.44997 28.1776C2.64462 26.6148 3.85899 25.5077 5.40729 25.5002C6.94174 25.4927 8.47619 25.4985 10.0106 25.4985C10.1621 25.4985 10.3144 25.4985 10.4659 25.4985V25.4994Z" fill="#000003"/>
<path d="M5.28796 11.5897C5.94605 12.2617 6.57807 12.9062 7.21417 13.5558C6.86395 13.9248 6.51617 14.3147 6.14152 14.6762C5.95745 14.854 5.71474 14.8365 5.5323 14.6586C5.09167 14.2278 4.66082 13.7862 4.23974 13.3354C4.04509 13.1267 4.04509 12.8703 4.23974 12.6608C4.58019 12.2926 4.94018 11.9428 5.28796 11.5905V11.5897Z" fill="#000003"/>
<path d="M18.3196 4.06831C17.0719 2.78512 15.8217 1.5036 14.5698 0.224578C14.306 -0.0450842 14.0372 -0.0692954 13.8189 0.141092C13.5909 0.361497 13.6088 0.653701 13.8816 0.931712C14.1756 1.23143 14.4786 1.52113 14.7604 1.79831C14.1528 2.42028 13.5803 3.0072 12.9702 3.63251C12.822 3.46554 12.6656 3.27519 12.4946 3.09903C12.1721 2.76675 11.9326 2.76508 11.6101 3.09569C9.5617 5.19372 7.51413 7.29258 5.46738 9.39227C5.13834 9.72956 5.13671 9.96917 5.45761 10.2998C6.46185 11.3325 7.46771 12.3636 8.4752 13.393C8.80995 13.7344 9.038 13.7303 9.3817 13.3796C9.85735 12.8945 10.3306 12.4078 10.8046 11.9219C12.3635 10.324 13.9232 8.72605 15.4812 7.12727C15.8477 6.75158 15.8453 6.53201 15.4739 6.15298C15.3118 5.98684 15.1424 5.82822 15.0145 5.70299C15.6221 5.08018 16.1931 4.4941 16.7827 3.88965C17.0507 4.171 17.3374 4.4799 17.6339 4.77962C17.8929 5.04261 18.1722 5.0593 18.3848 4.83973C18.5966 4.621 18.5795 4.33547 18.3205 4.06915L18.3196 4.06831Z" fill="#000003"/>
</g>
<defs>
<clipPath id="clip0_5_86">
<rect width="20" height="29" fill="white"/>
</clipPath>
</defs>
</svg>
