<svg width="20" height="21" viewBox="0 0 20 21" fill="none" xmlns="http://www.w3.org/2000/svg">
<g clip-path="url(#clip0_5_90)">
<path d="M5.60645 14.4274C4.91201 14.3471 4.24423 14.2734 3.57713 14.1906C3.04536 14.1248 2.49924 14.1005 1.98662 13.9643C0.197204 13.4887 -0.572421 11.4741 0.471973 9.99083C1.54302 8.47011 2.65372 6.9757 3.74801 5.46945C3.87035 5.30107 3.98655 5.12873 4.1171 4.96759C4.61537 4.35127 5.48342 4.1967 6.15736 4.59004C6.29953 4.67291 6.33849 4.74132 6.25646 4.89918C5.83748 5.70361 5.7247 6.55276 5.90788 7.43415C5.94069 7.59267 5.9113 7.70975 5.8156 7.84064C5.1198 8.79372 4.43219 9.75206 3.74185 10.7091C3.68854 10.7828 3.6366 10.8564 3.5368 10.9959C7.86338 11.1649 12.1312 11.157 16.4612 11.0011C16.3778 10.8762 16.3327 10.8025 16.2814 10.7315C15.5815 9.76127 14.8795 8.79241 14.1851 7.81828C14.125 7.73408 14.0778 7.60648 14.0963 7.51176C14.2815 6.56789 14.166 5.66743 13.7155 4.80907C13.7012 4.78144 13.695 4.74921 13.6868 4.7229C14.3546 4.15395 15.3894 4.28945 15.9335 5.02547C16.6553 6.00091 17.3627 6.98622 18.0756 7.96759C18.5151 8.57272 18.93 9.19561 19.3989 9.77903C20.7481 11.4602 19.7194 13.9169 17.3443 14.0945C16.4277 14.1629 15.5159 14.2951 14.6014 14.3997C14.5426 14.4063 14.4852 14.4234 14.399 14.4418V14.7286C14.399 16.6242 14.399 18.5199 14.399 20.4155C14.399 20.8694 14.2651 20.9983 13.7894 20.9983C11.2645 20.9983 8.74032 20.9983 6.21545 20.9983C5.73905 20.9983 5.60577 20.87 5.60577 20.4162C5.60577 18.5284 5.60577 16.6413 5.60577 14.7536V14.4254L5.60645 14.4274Z" fill="#000003"/>
<path d="M10.0007 3.48242C11.8216 3.48045 13.3007 4.89593 13.3116 6.65081C13.3219 8.40108 11.8161 9.85011 9.99391 9.8409C8.17442 9.83169 6.69122 8.39977 6.69532 6.65673C6.69942 4.90711 8.18057 3.4844 10.0007 3.48242Z" fill="#000003"/>
<path d="M14.938 1.86141C14.8649 2.0173 14.8362 2.12254 14.7733 2.2041C14.5217 2.53298 14.2634 2.85725 14.0002 3.17823C13.8136 3.40581 13.5594 3.44856 13.355 3.30123C13.1465 3.1506 13.1219 2.90658 13.3037 2.67308C13.5635 2.3396 13.828 2.00941 14.0959 1.68185C14.2217 1.52793 14.398 1.43387 14.586 1.53254C14.7247 1.60489 14.8225 1.74959 14.938 1.86141Z" fill="#000003"/>
<path d="M6.6424 3.2134C6.55423 3.32587 6.4893 3.48176 6.3731 3.5357C6.25554 3.59029 6.0498 3.59818 5.94864 3.53175C5.54674 3.26996 5.16467 2.97924 4.78805 2.68391C4.60146 2.53789 4.59326 2.30899 4.73132 2.13008C4.86324 1.95907 5.11409 1.89527 5.3 2.02484C5.70053 2.30307 6.09013 2.59643 6.47289 2.89768C6.54876 2.95753 6.57337 3.07856 6.6424 3.21274V3.2134Z" fill="#000003"/>
<path d="M8.06443 0.162109C8.12731 0.216703 8.29135 0.298264 8.35492 0.425867C8.55313 0.822491 8.71854 1.2349 8.88463 1.64599C8.97896 1.88015 8.87301 2.09984 8.64541 2.19061C8.42942 2.27612 8.19703 2.19785 8.09382 1.97487C7.90449 1.56443 7.72063 1.15137 7.55864 0.730406C7.44723 0.43968 7.66116 0.160794 8.06375 0.162767L8.06443 0.162109Z" fill="#000003"/>
<path d="M10.7802 1.65818C10.8417 1.22999 10.897 0.790611 10.9709 0.353865C11.0139 0.0993154 11.2176 -0.0302615 11.4684 0.00591477C11.6926 0.0381445 11.8553 0.23547 11.8266 0.469629C11.7726 0.909006 11.7118 1.34838 11.6407 1.78579C11.6004 2.03442 11.3905 2.16926 11.1411 2.13242C10.9162 2.09953 10.7665 1.90681 10.7802 1.65818Z" fill="#000003"/>
</g>
<defs>
<clipPath id="clip0_5_90">
<rect width="20" height="21" fill="white"/>
</clipPath>
</defs>
</svg>
