<svg width="19" height="17" viewBox="0 0 19 17" fill="none" xmlns="http://www.w3.org/2000/svg">
<g clip-path="url(#clip0_5_75)">
<path d="M19.001 6.76342V7.05295C18.9908 7.067 18.975 7.07923 18.9704 7.09509C18.8402 7.53505 18.5707 7.73804 18.1101 7.73895C17.7453 7.73986 17.3804 7.73895 17.0156 7.73895C16.8887 7.73895 16.7618 7.73895 16.6261 7.73895V7.98091C16.6261 10.6755 16.6261 13.3701 16.6261 16.0647C16.6261 16.1431 16.628 16.222 16.6215 16.2999C16.5894 16.6868 16.3356 16.9456 15.9406 16.9913C15.8551 17.0013 15.7677 16.9995 15.6812 16.9995C11.5634 16.9995 7.44516 16.9995 3.32736 16.9995C3.24695 16.9995 3.16609 17.0008 3.08661 16.9936C2.67437 16.9551 2.40945 16.6896 2.3811 16.2868C2.37599 16.2147 2.37738 16.1422 2.37738 16.0697C2.37738 13.3692 2.37738 10.6687 2.37738 7.96777V7.7385C1.87218 7.7385 1.38558 7.73895 0.898969 7.7385C0.469993 7.73804 0.166502 7.5346 0.048452 7.17031C-0.0691332 6.80692 0.0321852 6.55137 0.399348 6.29174C3.23719 4.27905 6.07597 2.26591 8.91521 0.253223C9.3902 -0.083433 9.6105 -0.0843393 10.0808 0.249145C12.9201 2.26183 15.7584 4.27588 18.5995 6.28585C18.7798 6.41362 18.9258 6.55726 19.0006 6.76342H19.001ZM4.75186 10.8241C4.75093 13.3624 6.88605 15.4449 9.4957 15.4508C12.0984 15.4567 14.2391 13.3787 14.2507 10.8346C14.2623 8.29989 12.0961 6.18435 9.49756 6.19296C6.89163 6.20157 4.75279 8.28857 4.75186 10.8241Z" fill="#000003"/>
<path d="M5.94761 11.9837V9.66878H8.30861V7.36293H10.6845V9.66198H13.0529V11.9769H10.6905V14.2823H8.31604V11.9837H5.94714H5.94761Z" fill="#000003"/>
</g>
<defs>
<clipPath id="clip0_5_75">
<rect width="19" height="17" fill="white"/>
</clipPath>
</defs>
</svg>
