<svg width="20" height="17" viewBox="0 0 20 17" fill="none" xmlns="http://www.w3.org/2000/svg">
<g clip-path="url(#clip0_5_45)">
<path d="M11.1638 13.4091C11.343 13.5181 11.5144 13.6266 11.6906 13.7261C11.7347 13.751 11.7979 13.7637 11.8464 13.7534C12.798 13.5529 13.7486 13.3481 14.6995 13.1445C15.9839 12.8697 17.268 12.5942 18.5528 12.3214C18.9033 12.247 19.2441 12.2701 19.5532 12.4762C20.181 12.8949 20.141 13.7783 19.4714 14.1213C19.2534 14.2331 19.013 14.3007 18.7795 14.3779C17.8098 14.6984 16.8386 15.0148 15.8682 15.3329C14.6381 15.736 13.4077 16.1386 12.178 16.543C11.7152 16.6953 11.2525 16.8453 10.7719 16.9296C9.90424 17.0817 9.06749 16.9842 8.2439 16.6588C7.12159 16.2154 5.98951 15.7981 4.86134 15.3708C4.52582 15.2439 4.20649 15.2761 3.89995 15.4714C3.32831 15.8359 2.754 16.1961 2.17987 16.5567C1.92365 16.7178 1.71989 16.6476 1.60129 16.3634C1.10575 15.1748 0.609144 13.9867 0.114314 12.7976C0.080531 12.7166 0.0531491 12.6324 0.0291455 12.5475C-0.0473105 12.2774 0.0275452 12.0566 0.235932 11.8778C0.622124 11.5461 1.04761 11.2742 1.48003 11.0144C2.04776 10.673 2.6194 10.3384 3.19051 10.0029C3.53261 9.8019 3.89675 9.65879 4.28383 9.58146C5.09622 9.41893 5.87394 9.54134 6.62374 9.88729C6.94006 10.0333 7.2281 10.2298 7.48218 10.4685C8.11126 11.0596 8.82087 11.5232 9.57174 11.9278C9.83134 12.0678 10.0867 12.2171 10.3374 12.3734C10.7022 12.6008 10.8448 13.0254 10.7063 13.4379C10.5845 13.8009 10.2837 13.9817 9.91473 13.9289C9.32548 13.8447 8.73499 13.7682 8.14504 13.6895C7.93452 13.6614 7.7464 13.579 7.57517 13.4512C6.94877 12.9844 6.32165 12.5184 5.69471 12.052C5.60314 11.9839 5.5322 11.9764 5.46819 12.0286C5.3672 12.1111 5.37306 12.2353 5.48384 12.3216C5.8526 12.6085 6.22208 12.8948 6.5912 13.1813C6.84191 13.3761 7.09564 13.5672 7.34225 13.7673C7.62727 13.9984 7.9555 14.0988 8.3088 14.1446C8.81696 14.2102 9.32353 14.2877 9.83098 14.3592C10.2542 14.4187 10.6275 14.3264 10.9058 13.9682C10.9679 13.8881 11.0157 13.7941 11.0585 13.701C11.1002 13.6107 11.127 13.5132 11.1636 13.4091H11.1638Z" fill="#000003"/>
<path d="M14.0716 4.8788C14.1985 4.86139 14.3256 4.84619 14.4521 4.82603C14.8647 4.76043 15.2781 4.69905 15.697 4.70418C16.1008 4.70912 16.4943 4.76959 16.8558 4.9706C17.2655 5.19855 17.4971 5.574 17.6525 6.00919C17.7461 6.27122 17.8095 6.54168 17.8111 6.82203C17.8133 7.20408 17.7171 7.56451 17.5569 7.90698C17.2688 8.52265 16.8416 9.02656 16.3498 9.47457C15.8094 9.96675 15.2214 10.3854 14.5436 10.6554C14.0031 10.8707 13.4412 10.9872 12.8634 11.0121C11.1068 11.088 9.48651 10.6167 7.99171 9.68291C7.31783 9.26202 6.73249 8.72861 6.2766 8.05796C6.10556 7.8062 5.97131 7.53574 5.91797 7.22808C5.87619 6.98676 5.92615 6.75442 5.97451 6.52152C5.97807 6.50393 5.99443 6.48231 6.01025 6.47553C6.17597 6.4037 6.34275 6.33444 6.50668 6.26554C6.44854 6.37585 6.37422 6.48029 6.33528 6.59738C6.17703 7.0727 6.28478 7.49909 6.58705 7.88023C6.83029 8.18678 7.14909 8.39402 7.48461 8.57213C8.23459 8.97012 9.02226 9.25762 9.85866 9.38937C10.4612 9.48428 11.0583 9.47256 11.6312 9.22647C12.0513 9.04598 12.4286 8.80081 12.6616 8.38083C12.9242 7.90716 12.9407 7.40637 12.7773 6.89478C12.5912 6.31172 12.3067 5.77575 12.0208 5.24124C11.8494 4.92076 11.662 4.60926 11.4804 4.29134C11.5565 4.20357 11.6465 4.118 11.7148 4.01686C11.8108 3.87485 11.8993 3.72587 11.9747 3.57141C12.0409 3.43563 12.0528 3.28556 12.0256 3.13292C12.0211 3.108 12.0428 3.06127 12.0643 3.05065C12.7147 2.73035 13.3714 2.42819 14.0972 2.33492C14.5586 2.27555 15.0121 2.33822 15.465 2.42251C15.7765 2.4806 16.0889 2.53227 16.4012 2.58651C16.4157 2.58907 16.4305 2.59109 16.4453 2.5909C16.6232 2.58871 16.6759 2.51981 16.6287 2.34244C16.5765 2.14546 16.5066 1.95232 16.4682 1.7526C16.3919 1.35644 16.4623 0.968707 16.5717 0.588307C16.6101 0.454361 16.6652 0.325179 16.7155 0.19508C16.7285 0.161548 16.7498 0.130947 16.7708 0.101629C16.8652 -0.0297516 16.9707 -0.0361649 17.0663 0.0964987C17.1382 0.19618 17.2075 0.30319 17.2514 0.417713C17.6097 1.34984 17.9141 2.29956 18.0709 3.29234C18.0972 3.45853 18.0949 3.63352 18.0793 3.80192C18.0535 4.07861 17.91 4.28292 17.6426 4.35218C17.4347 4.40605 17.2183 4.4427 17.0044 4.45058C16.6526 4.46359 16.2996 4.44123 15.9474 4.44471C15.5096 4.44911 15.0685 4.43977 14.6428 4.56602C14.4713 4.61696 14.3102 4.70619 14.1457 4.78132C14.1137 4.79598 14.0886 4.82658 14.0604 4.84967C14.0641 4.85956 14.0678 4.86927 14.0716 4.87917V4.8788Z" fill="#000003"/>
<path d="M4.10663 6.3755C3.6751 6.37074 3.24908 6.32951 2.83853 6.18274C2.19968 5.95424 1.78112 5.48754 1.50659 4.86618C1.33999 4.48871 1.24842 4.09237 1.25002 3.67844C1.2518 3.24893 1.35137 2.8383 1.52615 2.44837C1.90665 1.60071 2.48452 0.943443 3.29833 0.519432C3.6911 0.314939 4.10805 0.192354 4.54936 0.170732C4.87457 0.15479 5.18822 0.21819 5.47964 0.366246C5.71541 0.486083 5.94335 0.623327 6.1713 0.75874C6.39853 0.893602 6.51713 1.12888 6.66435 1.33832C6.7561 1.46878 6.85318 1.5976 6.96324 1.71102C7.17145 1.92559 7.43353 2.00732 7.7246 1.99962C7.76585 1.99852 7.80746 2.00109 7.84835 2.00677C7.99451 2.02729 8.04145 2.08849 8.02527 2.24223C8.01727 2.3179 8.00144 2.39266 7.9906 2.46816C7.97495 2.57737 8.00411 2.62538 8.10652 2.66129C8.12893 2.66917 8.15186 2.67503 8.17462 2.68163C8.327 2.72524 8.33643 2.73862 8.35083 2.89876C8.35332 2.92625 8.36523 2.96308 8.38497 2.97664C8.45146 3.0219 8.46765 3.08805 8.46356 3.15969C8.45876 3.24453 8.44755 3.32956 8.43191 3.41311C8.40577 3.55201 8.44062 3.66305 8.54766 3.75503C8.63603 3.83107 8.72279 3.9106 8.79961 3.99855C8.92318 4.13983 8.92834 4.27524 8.8213 4.43099C8.67461 4.64465 8.48098 4.80993 8.25606 4.92207C7.52617 5.28561 6.79646 5.65044 6.05519 5.98869C5.52889 6.22873 4.96578 6.33648 4.3897 6.36213C4.2951 6.36634 4.20069 6.37129 4.10627 6.37569L4.10663 6.3755Z" fill="#000003"/>
<path d="M10.3466 9.03469C9.90995 9.02791 9.3488 8.89579 8.79956 8.70395C8.23147 8.5055 7.67974 8.26967 7.18758 7.90778C7.00195 7.77127 6.83837 7.60965 6.74467 7.39252C6.54588 6.93168 6.6579 6.39516 7.33694 6.28467C7.81061 6.20752 8.27877 6.25773 8.73484 6.38765C9.15641 6.50785 9.56785 6.6658 9.98516 6.80304C10.1203 6.84757 10.2577 6.88733 10.3968 6.91464C10.5669 6.94798 10.6624 6.85435 10.624 6.68083C10.562 6.40176 10.4809 6.12708 10.4094 5.85021C10.2743 5.3267 10.1717 4.79806 10.1871 4.25238C10.1957 3.95096 10.2464 3.6587 10.3625 3.37963C10.5637 2.89533 10.927 2.78521 11.3987 2.97815C11.4341 2.99263 11.4679 3.01352 11.4997 3.03532C11.6418 3.13299 11.6803 3.24128 11.6181 3.4051C11.5265 3.64587 11.3781 3.84761 11.1807 4.00575C11.0084 4.14354 10.9409 4.14153 11.097 4.42316C11.3144 4.81511 11.5488 5.19734 11.7604 5.59258C12.0061 6.05196 12.244 6.51701 12.404 7.01798C12.5267 7.40205 12.5255 7.78171 12.3409 8.14635C12.1965 8.43166 11.9526 8.60976 11.6851 8.75635C11.3132 8.96011 10.9124 9.03872 10.347 9.03469H10.3466Z" fill="#000003"/>
<path d="M11.1777 12.7568C11.5732 12.676 11.9535 12.5981 12.3336 12.5208C13.3503 12.3139 14.367 12.1066 15.3839 11.9009C15.8458 11.8072 16.3074 11.7123 16.7706 11.626C16.99 11.5851 17.2126 11.5807 17.4325 11.6343C17.6914 11.6973 17.8564 11.8629 17.8872 12.0969C17.7265 12.1303 17.5648 12.164 17.4032 12.1972C16.0702 12.4707 14.7374 12.7443 13.4044 13.0179C12.9513 13.1108 12.4986 13.2048 12.0452 13.2951C12.0084 13.3024 11.9595 13.2977 11.9293 13.2775C11.6902 13.1188 11.4542 12.9554 11.2174 12.793C11.208 12.7866 11.2003 12.7777 11.1777 12.7569V12.7568Z" fill="#000003"/>
<path d="M7.2951 5.8592C7.47842 5.76904 7.6628 5.68109 7.84487 5.58819C8.07246 5.47202 8.29774 5.35108 8.5248 5.23417C8.54613 5.22318 8.57565 5.21952 8.5993 5.2241C9.00309 5.30161 9.40635 5.38333 9.8105 5.45809C9.88678 5.4722 9.9227 5.49767 9.94208 5.58141C10.0072 5.86286 10.0847 6.14101 10.161 6.43383C10.1277 6.42393 10.0955 6.41532 10.0641 6.40469C9.66524 6.26965 9.27033 6.12068 8.86689 6.00249C8.45012 5.88045 8.0209 5.8264 7.58545 5.84894C7.4914 5.85388 7.39769 5.86598 7.30381 5.87495C7.30079 5.86964 7.29794 5.86451 7.29492 5.8592H7.2951Z" fill="#000003"/>
</g>
<defs>
<clipPath id="clip0_5_45">
<rect width="20" height="17" fill="white"/>
</clipPath>
</defs>
</svg>
