<svg width="18" height="22" viewBox="0 0 18 22" fill="none" xmlns="http://www.w3.org/2000/svg">
<g clip-path="url(#clip0_5_63)">
<path d="M15.7667 -0.000402644C16.1361 0.170051 16.2543 0.465045 16.2407 0.864492C16.2191 1.47916 16.2361 2.09555 16.2344 2.71079C16.2333 3.1814 15.9787 3.43622 15.5081 3.43622C11.1692 3.43622 6.83032 3.43622 2.49145 3.43622C2.02028 3.43622 1.76623 3.1814 1.76509 2.71079C1.76395 2.08809 1.781 1.46481 1.75884 0.842683C1.74463 0.44668 1.87706 0.167181 2.23285 -0.000976562H15.7667V-0.000402644Z" fill="#000003"/>
<path d="M8.98962 21.9991C6.64968 21.9991 4.30917 22.0009 1.96923 21.998C1.00813 21.9968 0.24766 21.3919 0.0470287 20.4679C0.00951683 20.2952 0.00269649 20.1127 0.00212813 19.9348C-0.000145311 16.4126 -0.000713672 12.8905 0.000991411 9.36778C0.00155977 8.11089 0.806928 7.30454 2.05448 7.30397C6.69913 7.30397 11.3438 7.30339 15.989 7.30397C16.9882 7.30397 17.7492 7.8951 17.9527 8.83461C17.9902 9.00736 17.9976 9.18986 17.9976 9.36778C17.9999 12.8899 18.0004 16.4126 17.9987 19.9348C17.9987 20.9385 17.4605 21.6967 16.5767 21.9268C16.3806 21.9779 16.1709 21.9951 15.9674 21.9951C13.6417 21.9997 11.3154 21.998 8.98962 21.998V21.9991ZM10.1604 13.4518C10.4475 13.4518 10.7095 13.4524 10.9709 13.4518C11.4052 13.4501 11.6871 13.1941 11.6848 12.805C11.6825 12.4279 11.3989 12.1656 10.9829 12.1633C10.5151 12.1605 10.0473 12.1605 9.57958 12.1633C9.13967 12.1662 8.87538 12.4296 8.87481 12.8704C8.87254 14.0584 8.87254 15.2458 8.87481 16.4339C8.87538 16.8735 9.14081 17.1369 9.58129 17.1392C10.049 17.1421 10.5168 17.1421 10.9846 17.1392C11.4 17.1369 11.6837 16.874 11.6848 16.4958C11.6865 16.1148 11.4069 15.8536 10.9908 15.8513C10.7169 15.8496 10.4429 15.8513 10.1678 15.8513V15.2958C10.4185 15.2958 10.6521 15.2975 10.8857 15.2958C11.2841 15.2923 11.5671 15.0301 11.5734 14.6616C11.5796 14.2863 11.2915 14.0113 10.8845 14.0073C10.6458 14.005 10.4071 14.0073 10.1616 14.0073V13.4518H10.1604ZM3.81583 15.5472C4.01476 15.5374 4.18413 15.5351 4.35293 15.5202C5.19581 15.4479 5.85057 14.7563 5.88524 13.9046C5.91934 13.077 5.31517 12.3183 4.48138 12.2024C4.07046 12.1455 3.6476 12.1645 3.23042 12.1651C2.80472 12.1651 2.54327 12.4313 2.541 12.867C2.53588 14.0619 2.53645 15.2573 2.541 16.4522C2.5427 16.8482 2.82461 17.1398 3.18268 17.1386C3.54586 17.1375 3.81015 16.8511 3.81526 16.4488C3.81867 16.1567 3.81583 15.8645 3.81583 15.5466V15.5472ZM13.3882 15.5472C13.5882 15.5374 13.7576 15.5351 13.9264 15.5202C14.7699 15.4467 15.4172 14.7615 15.457 13.9029C15.4957 13.0816 14.8852 12.3177 14.0509 12.2029C13.64 12.1461 13.2171 12.1651 12.7993 12.1662C12.3736 12.1668 12.1145 12.4354 12.1128 12.871C12.1088 14.0664 12.1088 15.2613 12.1128 16.4568C12.1139 16.8505 12.3987 17.1432 12.7567 17.1403C13.1205 17.1369 13.3831 16.8505 13.387 16.4476C13.3899 16.1555 13.387 15.8634 13.387 15.5477L13.3882 15.5472ZM6.31378 15.0496C6.31378 15.5076 6.31264 15.9661 6.31492 16.4241C6.31492 16.509 6.32003 16.5974 6.34333 16.6778C6.42859 16.9716 6.72073 17.1696 7.00718 17.1369C7.33797 17.0996 7.58122 16.8327 7.58804 16.478C7.596 16.0344 7.61533 15.5885 7.58236 15.1471C7.55735 14.812 7.69035 14.5853 7.92338 14.3878C7.98817 14.3327 8.05751 14.2828 8.12799 14.2352C8.43263 14.0314 8.53266 13.6831 8.37238 13.3766C8.21324 13.073 7.87279 12.9639 7.53007 13.0965C7.47096 13.1195 7.37775 13.1195 7.32717 13.0873C7.10266 12.9444 6.87589 12.9221 6.64343 13.0495C6.40926 13.178 6.31094 13.3869 6.31264 13.6532C6.31548 14.1187 6.31321 14.5841 6.31321 15.049L6.31378 15.0496Z" fill="#000003"/>
<path d="M14.5225 4.74115V6.00434H3.48438V4.74115H14.5225Z" fill="#000003"/>
<path d="M3.83008 14.2449V13.4586C4.09039 13.4604 4.36945 13.3754 4.52916 13.6452C4.58884 13.7462 4.59509 13.935 4.54053 14.0377C4.39105 14.3195 4.10573 14.2351 3.83008 14.2449Z" fill="#000003"/>
<path d="M13.3984 14.2398V13.4639C13.6565 13.453 13.9168 13.3852 14.1043 13.6332C14.2049 13.7663 14.2078 13.9155 14.1129 14.0527C13.9327 14.3133 13.6661 14.2358 13.3984 14.2392V14.2398Z" fill="#000003"/>
</g>
<defs>
<clipPath id="clip0_5_63">
<rect width="18" height="22" fill="white"/>
</clipPath>
</defs>
</svg>
