<svg width="20" height="20" viewBox="0 0 20 20" fill="none" xmlns="http://www.w3.org/2000/svg">
<path d="M10.5945 12.0872C10.1426 11.9344 9.97518 11.6147 9.98476 11.1461C9.99838 10.4733 9.98022 9.80056 10.1835 9.14693C10.5294 8.03486 11.1891 7.16185 12.1681 6.52941C12.2099 6.50217 12.2508 6.47342 12.3073 6.43509C11.3349 5.52073 10.9032 4.40765 11.0943 3.08627C11.2254 2.18048 11.6597 1.42649 12.3622 0.837924C13.7814 -0.350302 15.8437 -0.26053 17.1741 1.01646C18.547 2.3338 18.7941 4.8676 17.039 6.4356C17.217 6.5632 17.4016 6.68071 17.57 6.81839C18.7416 7.77815 19.3246 9.02135 19.3438 10.5324C19.3463 10.7336 19.3337 10.9353 19.3463 11.1361C19.3751 11.5995 19.1965 11.9264 18.7487 12.0867L10.5945 12.0872Z" fill="#000003"/>
<path d="M0.610135 19.3945C0.158246 19.2417 -0.00919554 18.9219 0.000386927 18.4534C0.0140041 17.7806 -0.00415202 17.1078 0.199097 16.4542C0.545075 15.3421 1.20475 14.4691 2.18368 13.8367C2.22554 13.8094 2.26639 13.7807 2.32288 13.7423C1.35051 12.828 0.918791 11.7149 1.10994 10.3935C1.24106 9.48773 1.6753 8.73374 2.37785 8.14517C3.79706 6.95694 5.85931 7.04672 7.18976 8.32371C8.56258 9.64104 8.8097 12.1749 7.0546 13.7428C7.23263 13.8704 7.41722 13.988 7.58567 14.1256C8.75725 15.0854 9.34027 16.3286 9.35943 17.8396C9.36195 18.0408 9.34935 18.2426 9.36196 18.4433C9.3907 18.9068 9.21217 19.2336 8.76431 19.394L0.610135 19.3945Z" fill="#000003"/>
<path d="M5.71253 2.84115C6.12004 2.84115 6.51393 2.83258 6.90782 2.84317C7.36374 2.85578 7.6729 3.21587 7.63558 3.67079C7.60381 4.05711 7.29061 4.33652 6.86343 4.34761C6.55579 4.35568 6.24763 4.34963 5.93948 4.34963C5.8714 4.34963 5.80281 4.34963 5.75237 4.34963C5.75237 4.51001 5.76952 4.65829 5.74884 4.80102C5.70698 5.08547 5.53651 5.28115 5.2677 5.37798C4.99889 5.47482 4.73562 5.43901 4.52834 5.24181C4.13243 4.86507 3.74459 4.47925 3.36835 4.08284C3.10206 3.80192 3.10761 3.37172 3.37693 3.08929C3.7456 2.70296 4.12537 2.32672 4.50968 1.95553C4.74823 1.72504 5.09723 1.69529 5.38319 1.85668C5.66613 2.01605 5.80987 2.32975 5.74985 2.65707C5.73976 2.71103 5.72816 2.76449 5.71303 2.84115H5.71253Z" fill="#000003"/>
<path d="M13.6238 15.0124C13.5143 14.5121 13.6646 14.149 14.0409 14.0032C14.3364 13.8883 14.6153 13.9342 14.8443 14.1556C15.219 14.5182 15.5887 14.8863 15.9503 15.2626C16.2433 15.5677 16.2347 16.005 15.9347 16.3136C15.5932 16.6652 15.2437 17.0091 14.8957 17.3546C14.6133 17.6345 14.2648 17.6905 13.9521 17.5109C13.6419 17.3329 13.5168 17.0046 13.6117 16.6167C13.6157 16.5991 13.6192 16.5814 13.6303 16.531C13.4619 16.531 13.303 16.531 13.1436 16.531C12.9051 16.531 12.6655 16.5371 12.4275 16.5275C12.026 16.5118 11.7209 16.2123 11.7022 15.8259C11.6821 15.4109 11.9534 15.0684 12.3695 15.0351C12.7255 15.0069 13.0851 15.024 13.4432 15.0205C13.4987 15.02 13.5547 15.0155 13.6243 15.0124H13.6238Z" fill="#000003"/>
</svg>
