<svg width="20" height="20" viewBox="0 0 20 20" fill="none" xmlns="http://www.w3.org/2000/svg">
<path fill-rule="evenodd" clip-rule="evenodd" d="M18.4022 11.5801C18.7599 11.7701 19.0358 12.0701 19.23 12.3701C19.6081 12.9901 19.5775 13.7501 19.2096 14.4201L18.4942 15.6201C18.1161 16.2601 17.4109 16.6601 16.6853 16.6601C16.3277 16.6601 15.9291 16.5601 15.6021 16.3601C15.3364 16.1901 15.0298 16.1301 14.7027 16.1301C13.691 16.1301 12.8428 16.9601 12.8121 17.9501C12.8121 19.1001 11.8719 20.0001 10.6967 20.0001H9.3068C8.12133 20.0001 7.18113 19.1001 7.18113 17.9501C7.16069 16.9601 6.31247 16.1301 5.30073 16.1301C4.96348 16.1301 4.6569 16.1901 4.40141 16.3601C4.07438 16.5601 3.6656 16.6601 3.31813 16.6601C2.58232 16.6601 1.87717 16.2601 1.49905 15.6201L0.793898 14.4201C0.415773 13.7701 0.395334 12.9901 0.773459 12.3701C0.936972 12.0701 1.24356 11.7701 1.59102 11.5801C1.87717 11.4401 2.06112 11.2101 2.23486 10.9401C2.74584 10.0801 2.43925 8.95011 1.57059 8.44011C0.558848 7.87011 0.231821 6.60011 0.814337 5.61011L1.49905 4.43011C2.09178 3.44011 3.35901 3.09011 4.38097 3.67011C5.27007 4.15011 6.42488 3.83011 6.94608 2.98011C7.10959 2.70011 7.20157 2.40011 7.18113 2.10011C7.16069 1.71011 7.27311 1.34011 7.46728 1.04011C7.8454 0.420107 8.53012 0.0201068 9.27614 0.000106812H10.7171C11.4734 0.000106812 12.1581 0.420107 12.5362 1.04011C12.7201 1.34011 12.8428 1.71011 12.8121 2.10011C12.7917 2.40011 12.8837 2.70011 13.0472 2.98011C13.5684 3.83011 14.7232 4.15011 15.6225 3.67011C16.6342 3.09011 17.9117 3.44011 18.4942 4.43011L19.1789 5.61011C19.7716 6.60011 19.4446 7.87011 18.4227 8.44011C17.554 8.95011 17.2474 10.0801 17.7686 10.9401C17.9321 11.2101 18.1161 11.4401 18.4022 11.5801ZM7.10925 10.0098C7.10925 11.5798 8.40714 12.8298 10.0116 12.8298C11.6161 12.8298 12.8833 11.5798 12.8833 10.0098C12.8833 8.43979 11.6161 7.17979 10.0116 7.17979C8.40714 7.17979 7.10925 8.43979 7.10925 10.0098Z" fill="#000003"/>
</svg>
