<svg width="20" height="24" viewBox="0 0 20 24" fill="none" xmlns="http://www.w3.org/2000/svg">
<g clip-path="url(#clip0_5_78)">
<path d="M9.99257 0C13.1617 0.036036 15.7658 2.55389 15.8225 5.67234C15.8245 5.77311 15.7685 5.90057 15.6956 5.97197C13.8555 7.80047 12.0115 9.62429 10.1613 11.4428C10.0844 11.5189 9.94464 11.5709 9.83462 11.5702C7.08133 11.5542 4.63111 9.43343 4.22139 6.72072C3.75564 3.63764 5.69422 0.834835 8.77083 0.163497C9.17043 0.0760761 9.58487 0.0527194 9.99257 0ZM8.68781 7.08442V9.10511H11.2872V7.07508H13.3162V4.52119H11.2683V2.51118H8.68848V4.52853H6.66081V7.08375H8.68848L8.68781 7.08442Z" fill="#000003"/>
<path d="M8.69727 13.8972C8.71482 13.8779 8.76341 13.8218 8.81606 13.7698C11.6132 11.0037 14.4097 8.23757 17.2082 5.4728C17.8448 4.84418 18.6871 4.75809 19.3561 5.24524C20.0837 5.77511 20.2153 6.81081 19.6423 7.50217C19.5781 7.57891 19.5079 7.65098 19.4364 7.72172C16.6514 10.4758 13.8657 13.2299 11.08 15.9833C11.0273 16.0354 10.9706 16.0847 10.9328 16.1201C10.1863 15.378 9.44718 14.6426 8.69727 13.8972ZM18.7553 6.5392C18.6595 6.4331 18.592 6.30964 18.4873 6.25358C18.3179 6.16216 18.1701 6.25158 18.0405 6.38038C16.8998 7.51151 15.7557 8.63997 14.6142 9.77044C14.4165 9.96663 14.3989 10.1595 14.5542 10.317C14.7067 10.4718 14.9146 10.4598 15.107 10.2703C16.2572 9.13647 17.406 8.00133 18.5515 6.86219C18.6298 6.78478 18.673 6.672 18.7546 6.5392H18.7553Z" fill="#000003"/>
<path d="M7.02599 16.5118C7.45056 16.9303 7.8785 17.3513 8.324 17.7904C7.91495 18.1949 7.48768 18.6046 7.07796 19.0317C6.98481 19.1285 6.93419 19.2799 6.90179 19.4147C6.86736 19.5582 6.85386 19.715 6.87141 19.8612C6.94431 20.4518 6.70402 20.8762 6.25785 21.2646C5.67195 21.7751 5.12791 22.3363 4.59264 22.9002C3.70165 23.8392 2.59062 24.0948 1.34931 23.97C0.849814 23.9199 0.37732 23.7864 0 23.4568C2.35235 21.1311 4.69592 18.8141 7.02531 16.5112L7.02599 16.5118Z" fill="#000003"/>
<path d="M10.3655 16.6793C10.0867 16.9576 9.79511 17.2552 9.49609 17.5442C9.37459 17.6617 9.23757 17.6483 9.11675 17.5295C8.49845 16.9196 7.88084 16.309 7.2639 15.6977C7.14375 15.5789 7.1289 15.4454 7.24905 15.3233C7.54132 15.0277 7.84034 14.7387 8.12248 14.4611C8.87578 15.2059 9.61557 15.9379 10.3648 16.6787L10.3655 16.6793Z" fill="#000003"/>
</g>
<defs>
<clipPath id="clip0_5_78">
<rect width="20" height="24" fill="white"/>
</clipPath>
</defs>
</svg>
