<svg width="38" height="34" viewBox="0 0 38 34" fill="none" xmlns="http://www.w3.org/2000/svg">
<path d="M0.00297278 12.686C0.00297278 12.0229 0.00297278 11.3598 0.00297278 10.6959C0.0252687 10.6022 0.0587125 10.5091 0.068374 10.4131C0.340384 7.74077 1.32809 5.37559 3.18162 3.404C7.04624 -0.705338 13.2445 -1.32561 17.6293 2.87012C18.1065 3.32646 18.5383 3.82933 18.9827 4.30192C19.4844 3.7806 19.9555 3.22678 20.4921 2.74311C22.9469 0.533002 25.8045 -0.469041 29.0954 0.209571C32.9028 0.995256 35.5017 3.3213 37.0052 6.83103C38.3823 10.0447 38.2441 13.3196 37.1152 16.576C35.9655 19.893 33.9566 22.6688 31.5234 25.1602C28.0378 28.729 23.9294 31.4575 19.5691 33.8411C19.1811 34.0531 18.7917 34.0538 18.4045 33.8382C18.2648 33.7599 18.1236 33.6831 17.9838 33.6056C13.79 31.2803 9.8466 28.6175 6.47695 25.1824C4.53275 23.2004 2.87468 21.0117 1.66104 18.5077C1.60605 18.394 1.55997 18.2759 1.49011 18.1149C1.69226 18.1149 1.82678 18.1149 1.96129 18.1149C3.60524 18.1149 5.24919 18.1083 6.89314 18.1186C7.49141 18.1223 7.90017 17.8801 8.15732 17.3403C8.49027 16.6417 8.84849 15.9558 9.1963 15.2646C9.27508 15.1088 9.35609 14.9537 9.45791 14.7565C9.54412 14.9227 9.6006 15.0305 9.6556 15.1398C10.8157 17.4429 11.9669 19.7513 13.1456 22.0448C13.2876 22.3217 13.5351 22.6016 13.8056 22.7448C14.3593 23.038 14.9583 22.75 15.2846 22.1031C16.4521 19.7897 17.6152 17.4732 18.7806 15.159C18.8385 15.0438 18.9069 14.9345 19.0013 14.7676C19.4472 15.653 19.8797 16.4756 20.2774 17.3145C20.5479 17.8853 20.9722 18.1238 21.5995 18.1208C24.2698 18.109 26.9394 18.1164 29.6097 18.1134C29.7687 18.1134 29.933 18.1031 30.0868 18.0662C30.5959 17.9443 30.9571 17.4518 30.9229 16.9467C30.8865 16.4069 30.4755 15.975 29.9337 15.9188C29.7747 15.9018 29.6126 15.9048 29.4521 15.9048C27.1036 15.9041 24.7551 15.8996 22.4059 15.9107C22.1435 15.9122 22.0112 15.8243 21.899 15.5969C21.2851 14.3526 20.6549 13.1165 20.0343 11.8752C19.8731 11.5518 19.6456 11.3081 19.2859 11.2114C18.7189 11.0585 18.2388 11.3 17.9348 11.9011C16.7613 14.2256 15.5915 16.5517 14.4195 18.8762C14.3615 18.9907 14.2976 19.1022 14.2181 19.2484C14.1363 19.0918 14.0784 18.984 14.0234 18.8747C12.8588 16.5598 11.6912 14.247 10.5326 11.9291C10.3044 11.472 9.97815 11.1678 9.44973 11.1708C8.92206 11.1737 8.60026 11.4816 8.37433 11.9402C7.77234 13.163 7.14508 14.3733 6.54458 15.5969C6.43013 15.8295 6.29933 15.9122 6.03921 15.91C4.58032 15.8974 3.12217 15.9041 1.66327 15.9041C0.600502 15.9041 0.586381 15.907 0.370111 14.8555C0.222216 14.137 0.121884 13.4089 0 12.686H0.00297278Z" fill="#000003"/>
</svg>
