<svg width="20" height="17" viewBox="0 0 20 17" fill="none" xmlns="http://www.w3.org/2000/svg">
<g clip-path="url(#clip0_5_40)">
<path d="M19.9997 4.90821V14.6963C19.9806 14.7786 19.9589 14.8597 19.9412 14.9421C19.6912 16.1134 18.6488 17.0046 17.313 16.9991C12.4383 16.9826 7.56234 16.9936 2.68771 16.9922C2.53143 16.9922 2.37379 16.9922 2.22022 16.9675C0.878916 16.7464 0.0023782 15.6987 0.00101923 14.3173C-0.000339743 11.3182 -0.000339743 8.31919 0.00101923 5.32016C0.00101923 3.76023 1.11266 2.63834 2.66053 2.62873C2.75566 2.62873 2.85078 2.62873 2.96494 2.62873C2.96494 2.42687 2.96222 2.2511 2.96494 2.07533C2.96902 1.83365 3.05599 1.7389 3.29517 1.73616C3.75722 1.73066 4.21927 1.73066 4.68132 1.73616C4.93681 1.7389 5.02514 1.83503 5.02922 2.1028C5.03194 2.2717 5.02922 2.4406 5.02922 2.61225H6.37324C6.37324 2.37194 6.36781 2.14811 6.37324 1.92566C6.40586 0.847709 7.21988 0.0237992 8.28532 0.0114405C9.43093 -0.000918127 10.5765 -0.00366449 11.7222 0.0183064C11.9994 0.0237992 12.2956 0.097951 12.5443 0.218791C13.2687 0.571699 13.6043 1.19375 13.6234 1.99706C13.6288 2.20441 13.6234 2.41176 13.6234 2.61499H14.9674C14.9674 2.42412 14.9633 2.24698 14.9674 2.07121C14.9742 1.84189 15.0666 1.74028 15.2881 1.73753C15.7637 1.73204 16.238 1.73204 16.7137 1.73753C16.9406 1.74028 17.0276 1.83777 17.0317 2.06847C17.0344 2.24973 17.0317 2.43236 17.0317 2.6301C17.1676 2.6301 17.2776 2.62735 17.3877 2.6301C18.3825 2.65482 19.1598 3.0805 19.6531 3.95797C19.8162 4.24771 19.8841 4.591 19.9956 4.90958L19.9997 4.90821ZM5.36353 9.81596C5.37032 12.3962 7.45498 14.4999 10.0017 14.4971C12.5525 14.4944 14.6399 12.3824 14.6358 9.81047C14.6317 7.22889 12.5511 5.13066 9.99762 5.13341C7.44004 5.13616 5.35673 7.23987 5.36353 9.81459V9.81596ZM7.46586 2.61087H12.5375C12.5375 2.4049 12.5375 2.2154 12.5375 2.02453C12.5348 1.44092 12.21 1.10999 11.6297 1.10312C11.305 1.099 10.9788 1.10312 10.654 1.10312C9.88619 1.10312 9.11837 1.099 8.35055 1.10449C7.84501 1.10861 7.49847 1.41621 7.46857 1.88721C7.45363 2.12202 7.46586 2.35821 7.46586 2.6095V2.61087Z" fill="#000003"/>
<path d="M8.59065 8.386C8.59065 7.81064 8.59065 7.26549 8.59065 6.72171C8.59065 6.37292 8.66675 6.29602 9.016 6.29602C9.68054 6.29602 10.3437 6.29602 11.0083 6.29602C11.3303 6.29602 11.4119 6.37978 11.4119 6.70386C11.4119 7.2545 11.4119 7.80652 11.4119 8.38326C11.4961 8.38326 11.5654 8.38326 11.6347 8.38326C12.1294 8.38326 12.6241 8.38188 13.1187 8.38326C13.3797 8.38326 13.4762 8.47801 13.4775 8.73617C13.4802 9.45297 13.4802 10.1698 13.4775 10.8866C13.4775 11.1392 13.3878 11.2326 13.1378 11.234C12.6363 11.2381 12.1348 11.2367 11.6347 11.2381C11.5654 11.2381 11.4961 11.245 11.4119 11.2477C11.4119 11.8107 11.4119 12.3559 11.4119 12.901C11.4119 13.2581 11.3466 13.324 10.9892 13.324C10.3193 13.324 9.64793 13.324 8.97795 13.324C8.66539 13.324 8.59065 13.2457 8.59065 12.9244C8.59065 12.4383 8.59065 11.9508 8.59065 11.4647C8.59065 11.4001 8.59065 11.3356 8.59065 11.2532C8.50367 11.2491 8.43436 11.2422 8.36506 11.2422C7.87718 11.2422 7.38931 11.245 6.90008 11.2422C6.61198 11.2409 6.52501 11.1516 6.52501 10.866C6.52365 10.1615 6.52229 9.45846 6.52501 8.75402C6.52501 8.47938 6.61742 8.38463 6.88785 8.38463C7.44639 8.38189 8.00629 8.38463 8.592 8.38463L8.59065 8.386Z" fill="#000003"/>
</g>
<defs>
<clipPath id="clip0_5_40">
<rect width="20" height="17" fill="white"/>
</clipPath>
</defs>
</svg>
