<svg xmlns="http://www.w3.org/2000/svg" width="20" height="18" viewBox="0 0 20 18" fill="black">
<g clip-path="url(#clip0_490_6119)">
<path d="M20.001 7.07298V7.37576C19.9902 7.39045 19.9736 7.40325 19.9687 7.41983C19.8317 7.87992 19.548 8.0922 19.0632 8.09315C18.6791 8.0941 18.2951 8.09315 17.911 8.09315C17.7775 8.09315 17.6439 8.09315 17.5011 8.09315V8.34618C17.5011 11.1641 17.5011 13.982 17.5011 16.7998C17.5011 16.8818 17.503 16.9643 17.4962 17.0458C17.4624 17.4504 17.1953 17.721 16.7795 17.7688C16.6894 17.7793 16.5975 17.7774 16.5065 17.7774C12.1719 17.7774 7.83691 17.7774 3.50238 17.7774C3.41774 17.7774 3.33262 17.7788 3.24896 17.7712C2.81502 17.7309 2.53616 17.4533 2.50632 17.032C2.50094 16.9567 2.50241 16.8809 2.50241 16.8051C2.50241 13.981 2.50241 11.157 2.50241 8.33243V8.09267C1.97062 8.09267 1.4584 8.09315 0.946181 8.09267C0.494626 8.0922 0.175162 7.87945 0.0508993 7.49849C-0.0728746 7.11847 0.0337764 6.85123 0.420264 6.57972C3.40747 4.47495 6.39566 2.36971 9.38433 0.264936C9.88432 -0.0871226 10.1162 -0.0880703 10.6113 0.260672C13.6 2.36544 16.5877 4.47163 19.5783 6.57356C19.7681 6.70718 19.9217 6.85739 20.0005 7.07298H20.001ZM5.00185 11.3195C5.00088 13.9739 7.24837 16.1516 9.99537 16.1578C12.735 16.164 14.9884 13.991 15.0006 11.3304C15.0129 8.67976 12.7326 6.46742 9.99733 6.47643C7.25425 6.48543 5.00283 8.66791 5.00185 11.3195Z" fill="#1890FF"/>
<path d="M6.26025 12.5319V10.111H8.74552V7.69971H11.2464V10.1039H13.7395V12.5248H11.2528V14.9356H8.75334V12.5319H6.25977H6.26025Z" fill="#1890FF"/>
</g>
<defs>
<clipPath id="clip0_490_6119">
<rect width="20" height="17.7778" fill="white"/>
</clipPath>
</defs>
</svg>