<svg xmlns="http://www.w3.org/2000/svg" width="24" height="24" viewBox="0 0 24 24" fill="none">
  <path d="M12.2182 19.5867C9.91122 19.2637 8.22379 18.0844 7.21212 15.9229C7.18291 15.8613 7.08124 15.7997 7.01214 15.7985C6.47963 15.7882 5.94711 15.7939 5.41459 15.7922C5.1517 15.7916 4.99723 15.6586 5.00004 15.4433C5.00285 15.2285 5.15564 15.1035 5.42302 15.1035C7.27335 15.103 9.12368 15.103 10.9734 15.1035C11.2363 15.1035 11.3914 15.2371 11.388 15.4525C11.3852 15.6661 11.2313 15.7916 10.9645 15.7928C10.4819 15.7939 9.99941 15.7928 9.51071 15.7928C10.0224 16.7233 11.4605 17.6146 12.9754 17.5063C14.8055 17.3756 16.2958 16.0599 16.6812 14.2606C17.0834 12.384 16.1419 10.2651 14.1281 9.47624C14.6123 8.97933 15.0892 8.48529 15.5757 8.00162C15.6094 7.96822 15.7296 7.9878 15.7869 8.02235C16.8205 8.6373 17.6074 9.49582 18.1445 10.5887C19.9712 14.3049 17.758 18.795 13.7596 19.4905C13.5748 19.5228 13.3877 19.5401 13.2024 19.5861C13.3142 19.5861 13.4254 19.5861 13.5372 19.5861C14.5955 19.5861 15.6538 19.5838 16.712 19.5867C17.7973 19.5896 18.6118 20.3088 18.7758 21.4034C18.8427 21.8496 18.7174 22.0005 18.2798 22.0005C14.5792 22.0005 10.8791 22.0005 7.17842 22.0005C6.76105 22.0005 6.63691 21.8559 6.68971 21.4339C6.82397 20.356 7.6615 19.5925 8.72934 19.5873C9.78764 19.5821 10.8459 19.5861 11.9042 19.5861C12.0087 19.5861 12.1137 19.5861 12.2182 19.5861V19.5867Z" fill="#1890FF"/>
  <path d="M8.6459 9.99316C9.09977 10.4567 9.53567 10.9012 9.97438 11.3492C9.73284 11.6037 9.49298 11.8726 9.23459 12.1219C9.10764 12.2445 8.94024 12.2324 8.81442 12.1098C8.51052 11.8127 8.21337 11.5081 7.92296 11.1972C7.7887 11.0532 7.7887 10.8764 7.92296 10.7319C8.15776 10.478 8.40604 10.2367 8.6459 9.99374V9.99316Z" fill="#1890FF"/>
  <path d="M17.6371 4.80549C16.7765 3.92049 15.9143 3.03664 15.0509 2.15451C14.8689 1.96853 14.6835 1.95183 14.533 2.09693C14.3757 2.24894 14.3881 2.45047 14.5762 2.64221C14.779 2.84892 14.988 3.04873 15.1823 3.23989C14.7633 3.66886 14.3684 4.07365 13.9477 4.50492C13.8454 4.38976 13.7376 4.25848 13.6196 4.13699C13.3972 3.90782 13.232 3.90667 13.0096 4.13468C11.5968 5.58167 10.1847 7.02923 8.77304 8.47736C8.5461 8.70999 8.54498 8.87524 8.7663 9.10326C9.45891 9.81552 10.1526 10.5266 10.8475 11.2366C11.0784 11.4721 11.2357 11.4692 11.4727 11.2274C11.8008 10.8928 12.1271 10.5572 12.454 10.222C13.5292 9.11996 14.6049 8.01788 15.6795 6.91522C15.9323 6.65611 15.9306 6.50468 15.6744 6.24326C15.5626 6.12868 15.4458 6.01928 15.3576 5.93291C15.7767 5.50336 16.1704 5.09915 16.5771 4.68227C16.7619 4.87631 16.9597 5.08936 17.1641 5.29607C17.3428 5.47745 17.5354 5.48897 17.682 5.33753C17.8281 5.18667 17.8163 4.98975 17.6377 4.80607L17.6371 4.80549Z" fill="#1890FF"/>
</svg>