<svg xmlns="http://www.w3.org/2000/svg" width="24" height="24" viewBox="0 0 24 24" fill="none">
  <path d="M12.8319 14.2182C12.4125 14.0763 12.2571 13.7796 12.266 13.3447C12.2786 12.7203 12.2618 12.0959 12.4504 11.4893C12.7715 10.4571 13.3838 9.6469 14.2923 9.05993C14.3311 9.03466 14.3691 9.00798 14.4215 8.9724C13.519 8.12378 13.1184 7.09073 13.2958 5.86437C13.4175 5.0237 13.8205 4.32392 14.4725 3.77768C15.7897 2.67488 17.7036 2.7582 18.9384 3.94338C20.2125 5.16599 20.4419 7.51762 18.813 8.97287C18.9782 9.0913 19.1495 9.20036 19.3059 9.32814C20.3932 10.2189 20.9343 11.3727 20.9521 12.7751C20.9544 12.9618 20.9427 13.1491 20.9544 13.3354C20.9811 13.7655 20.8154 14.0688 20.3998 14.2177L12.8319 14.2182Z" fill="#1890FF"/>
  <path d="M3.56627 20.9999C3.14687 20.8581 2.99147 20.5613 3.00036 20.1265C3.013 19.502 2.99615 18.8776 3.18478 18.271C3.50588 17.2389 4.11813 16.4286 5.02667 15.8417C5.06552 15.8164 5.10343 15.7897 5.15586 15.7541C4.2534 14.9055 3.85273 13.8725 4.03013 12.6461C4.15183 11.8054 4.55485 11.1057 5.20688 10.5594C6.52405 9.45662 8.43802 9.53994 9.67281 10.7251C10.9469 11.9477 11.1763 14.2994 9.54736 15.7546C9.71259 15.873 9.88391 15.9821 10.0402 16.1099C11.1276 17.0006 11.6687 18.1544 11.6865 19.5568C11.6888 19.7436 11.6771 19.9308 11.6888 20.1171C11.7155 20.5473 11.5498 20.8506 11.1341 20.9994L3.56627 20.9999Z" fill="#1890FF"/>
  <path d="M8.30145 5.63679C8.67966 5.63679 9.04523 5.62883 9.41079 5.63866C9.83394 5.65036 10.1209 5.98457 10.0862 6.40677C10.0567 6.76532 9.76607 7.02464 9.3696 7.03493C9.08408 7.04242 8.79808 7.03681 8.51209 7.03681C8.4489 7.03681 8.38524 7.03681 8.33843 7.03681C8.33843 7.18566 8.35434 7.32327 8.33515 7.45574C8.2963 7.71973 8.13809 7.90135 7.88861 7.99122C7.63912 8.08109 7.39478 8.04785 7.2024 7.86484C6.83496 7.51518 6.47501 7.1571 6.12582 6.78919C5.87868 6.52847 5.88383 6.1292 6.13378 5.86708C6.47595 5.50853 6.82841 5.15935 7.18509 4.81484C7.40649 4.60093 7.7304 4.57331 7.9958 4.7231C8.25839 4.87101 8.39179 5.16216 8.33609 5.46594C8.32673 5.51602 8.31596 5.56564 8.30192 5.63679H8.30145Z" fill="#1890FF"/>
  <path d="M15.6437 16.9332C15.5422 16.4688 15.6816 16.1318 16.0308 15.9965C16.3051 15.8898 16.564 15.9324 16.7765 16.1379C17.1243 16.4745 17.4674 16.8161 17.803 17.1653C18.0749 17.4485 18.067 17.8543 17.7885 18.1408C17.4716 18.4671 17.1472 18.7863 16.8242 19.1069C16.5621 19.3667 16.2387 19.4187 15.9484 19.252C15.6606 19.0868 15.5445 18.7821 15.6325 18.4221C15.6362 18.4057 15.6395 18.3894 15.6498 18.3425C15.4935 18.3425 15.346 18.3425 15.1981 18.3425C14.9767 18.3425 14.7544 18.3482 14.5334 18.3393C14.1609 18.3248 13.8777 18.0467 13.8604 17.6882C13.8416 17.303 14.0935 16.9851 14.4796 16.9542C14.8101 16.928 15.1438 16.9439 15.4762 16.9407C15.5276 16.9402 15.5796 16.936 15.6442 16.9332H15.6437Z" fill="#1890FF"/>
</svg>