<svg xmlns="http://www.w3.org/2000/svg" width="17" height="18" viewBox="0 0 17 18" fill="none">
  <path d="M16.1135 4.70127C16.1135 4.57364 16.1135 4.29709 15.8934 4.16945L11.052 0.127636C10.9542 0.0425455 10.832 0 10.7097 0H2.44514C0.51348 0 0 1.38273 0 2.12727L0 15.8727C0 16.6173 0.51348 18 2.44514 18H13.6928C15.6244 18 16.1379 16.6173 16.1379 15.8727L16.1135 4.70127ZM4.40125 3.6H8.55799V4.45091H4.40125V3.6ZM11.2232 11.9144L9.5116 15.9562C9.43824 16.1264 9.26708 16.2327 9.04702 16.2327H7.09091C6.8953 16.2327 6.69969 16.1264 6.62633 15.9562L4.91473 11.9144C4.86583 11.808 4.86583 11.7016 4.93918 11.5953L6.16175 9.25527C6.23511 9.10636 6.40627 9 6.60188 9H9.53605C9.73166 9 9.90282 9.10636 9.97617 9.25527L11.1987 11.5953C11.2476 11.7016 11.2721 11.808 11.2232 11.9144ZM11.7367 8.06727H4.40125V7.21636H11.7367V8.06727ZM11.7367 6.57818H4.40125V5.72727H11.7367V6.57818ZM12.9592 4.04182C11.321 4.04182 11.2476 2.89309 11.2476 2.76545V1.46782L14.3285 4.04182H12.9592Z" fill="#1890FF"/>
</svg>