<svg xmlns="http://www.w3.org/2000/svg" width="20" height="20" viewBox="0 0 20 20" fill="none">
  <path d="M14.1803 15.8009C10.0702 18.9525 4.42493 17.7741 1.6866 14.0133C-0.901716 10.458 -0.473178 5.4594 2.71227 2.44511C5.97569 -0.642652 10.9421 -0.827428 14.4039 2.01322C17.9399 4.91472 18.7598 10.2116 15.8232 14.135C15.887 14.2032 15.9516 14.2774 16.0207 14.3465C17.2061 15.5315 18.3907 16.7166 19.5775 17.8995C19.9251 18.2453 20.0877 18.6431 19.9526 19.1313C19.729 19.938 18.7709 20.2637 18.1025 19.7591C18.0067 19.6871 17.922 19.5996 17.8374 19.515C16.6773 18.3574 15.5179 17.199 14.36 16.0391C14.2887 15.9671 14.2368 15.8766 14.1803 15.8009ZM8.80984 15.2369C12.3726 15.231 15.232 12.3718 15.2342 8.81283C15.2364 5.24272 12.3637 2.37387 8.79127 2.37906C5.22928 2.38352 2.37062 5.24346 2.36765 8.80318C2.36542 12.374 5.23745 15.2429 8.8091 15.2369H8.80984Z" fill="white"/>
</svg>