<svg xmlns="http://www.w3.org/2000/svg" width="24" height="24" viewBox="0 0 24 24" fill="none">
  <path d="M12.3277 2C14.9687 2.03003 17.1389 4.12829 17.1861 6.72706C17.1878 6.81103 17.1411 6.91725 17.0804 6.97676C15.547 8.50054 14.0102 10.0204 12.4684 11.5359C12.4043 11.5993 12.2878 11.6426 12.1961 11.6421C9.90166 11.6287 7.85976 9.86138 7.51832 7.60073C7.13019 5.03143 8.74571 2.69571 11.3096 2.13625C11.6426 2.0634 11.988 2.04393 12.3277 2ZM11.2404 7.90382V9.58776H13.4066V7.89603H15.0975V5.76774H13.3909V4.0927H11.241V5.77386H9.55122V7.90326H11.241L11.2404 7.90382Z" fill="#1890FF"/>
  <path d="M11.248 13.5813C11.2627 13.5651 11.3032 13.5184 11.347 13.475C13.6781 11.1699 16.0085 8.86476 18.3407 6.56074C18.8711 6.03687 19.5731 5.96513 20.1306 6.3711C20.737 6.81266 20.8466 7.67577 20.3691 8.25191C20.3156 8.31587 20.2571 8.37593 20.1975 8.43488C17.8766 10.73 15.5552 13.0251 13.2337 15.3197C13.1898 15.3631 13.1426 15.4042 13.1111 15.4337C12.4889 14.8153 11.873 14.2024 11.248 13.5813ZM19.6299 7.44943C19.5501 7.361 19.4938 7.25812 19.4066 7.21141C19.2654 7.13522 19.1423 7.20974 19.0343 7.31707C18.0836 8.2597 17.1302 9.20011 16.179 10.1422C16.0142 10.3057 15.9995 10.4664 16.1289 10.5976C16.256 10.7267 16.4293 10.7167 16.5896 10.5587C17.5481 9.61386 18.5055 8.6679 19.4601 7.71859C19.5253 7.65408 19.5613 7.5601 19.6294 7.44943H19.6299Z" fill="#1890FF"/>
  <path d="M9.85513 15.7603C10.2089 16.109 10.5656 16.4599 10.9368 16.8259C10.5959 17.1629 10.2399 17.5043 9.89844 17.8602C9.82081 17.9409 9.77862 18.0671 9.75162 18.1795C9.72294 18.299 9.71169 18.4297 9.72631 18.5515C9.78706 19.0437 9.58681 19.3974 9.21499 19.721C8.72674 20.1465 8.27336 20.6142 7.82729 21.0841C7.08478 21.8666 6.1589 22.0796 5.12445 21.9756C4.7082 21.9339 4.31444 21.8226 4 21.5479C5.96033 19.6098 7.91335 17.679 9.85456 15.7598L9.85513 15.7603Z" fill="#1890FF"/>
  <path d="M12.6389 15.8998C12.4066 16.1317 12.1636 16.3798 11.9144 16.6206C11.8132 16.7184 11.699 16.7073 11.5983 16.6083C11.083 16.1 10.5684 15.5912 10.0542 15.0818C9.9541 14.9828 9.94172 14.8716 10.0418 14.7698C10.2854 14.5234 10.5346 14.2826 10.7697 14.0513C11.3975 14.6719 12.014 15.282 12.6384 15.8993L12.6389 15.8998Z" fill="#1890FF"/>
</svg>