<svg width="13" height="14" viewBox="0 0 13 14" fill="none" xmlns="http://www.w3.org/2000/svg">
<g id="Layer_1" clip-path="url(#clip0_490_1573)">
<path id="Vector" d="M0.558594 3.37615C0.624097 3.14825 0.662131 2.90519 0.75963 2.69507C1.10314 1.95404 1.66731 1.55816 2.4292 1.51271C2.64442 1.49987 2.86116 1.51074 3.08997 1.51074C3.08997 1.34145 3.08906 1.18501 3.08997 1.02857C3.09238 0.693958 3.2904 0.459134 3.56992 0.457817C3.84974 0.456499 4.05108 0.691323 4.05379 1.02396C4.055 1.18073 4.05379 1.3375 4.05379 1.50152H6.22445C6.22445 1.32696 6.21932 1.14911 6.22565 0.971926C6.23863 0.609645 6.55106 0.373504 6.86106 0.48647C7.05123 0.555962 7.18013 0.745336 7.18647 0.97522C7.19099 1.14582 7.18737 1.31675 7.18737 1.49822H9.38278C9.38278 1.32367 9.37674 1.14549 9.38398 0.967974C9.40059 0.556621 9.80417 0.322785 10.1196 0.539495C10.2663 0.640604 10.3406 0.791115 10.3448 0.979172C10.3487 1.14944 10.3457 1.32005 10.3457 1.50876C10.4873 1.50876 10.6222 1.51172 10.7571 1.5081C11.0602 1.50053 11.3578 1.52556 11.6461 1.64182C12.3654 1.93197 12.8846 2.69144 12.8964 3.52963C12.9109 4.55489 12.903 5.5808 12.9003 6.60605C12.8994 6.90938 12.6866 7.13498 12.4204 7.13531C12.1496 7.13531 11.9398 6.90609 11.9389 6.59387C11.9362 5.62098 11.9383 4.64809 11.9374 3.67487C11.9371 3.22433 11.7677 2.87687 11.3922 2.67366C11.2836 2.61504 11.1565 2.57881 11.0354 2.56991C10.8121 2.55378 10.5869 2.5653 10.3466 2.5653C10.3466 2.72405 10.3475 2.88016 10.3466 3.03594C10.3445 3.3778 10.1432 3.61493 9.85911 3.61131C9.57989 3.60769 9.38489 3.37319 9.38278 3.03693C9.38187 2.88411 9.38278 2.73129 9.38278 2.56926H7.18888C7.18888 2.71384 7.18888 2.8571 7.18888 3.00037C7.18828 3.3699 7.00052 3.60933 6.70953 3.61131C6.41794 3.61328 6.22535 3.37319 6.22445 3.00663C6.22445 2.8627 6.22445 2.71911 6.22445 2.56794H4.0541C4.0541 2.7415 4.05923 2.91902 4.05289 3.09621C4.04021 3.45882 3.72839 3.69529 3.41808 3.58265C3.22369 3.51217 3.0963 3.31984 3.09147 3.08139C3.08815 2.91178 3.09087 2.74216 3.09087 2.5462C2.80652 2.56135 2.52972 2.54324 2.26559 2.59791C1.83454 2.68683 1.54959 3.09621 1.52514 3.58924C1.52333 3.62415 1.52363 3.65939 1.52363 3.6943C1.52363 6.3765 1.52363 9.0587 1.52363 11.7409C1.52363 12.1964 1.68603 12.5557 2.07029 12.7526C2.217 12.8277 2.39449 12.8623 2.55809 12.8636C3.74318 12.8729 4.92858 12.8692 6.11367 12.8676C6.26942 12.8676 6.40888 12.9041 6.52027 13.0276C6.75209 13.2845 6.68085 13.7124 6.38171 13.8681C6.3461 13.8869 6.30927 13.9031 6.27305 13.9205H2.27012C2.25231 13.9126 2.23511 13.9001 2.21639 13.8968C1.53842 13.7776 1.04398 13.381 0.748462 12.7085C0.658508 12.504 0.620474 12.2725 0.558594 12.0534C0.558594 9.16079 0.558594 6.26815 0.558594 3.37517V3.37615Z" fill="#151439"/>
<path id="Vector_2" d="M9.74267 13.9214C9.46737 13.8469 9.18302 13.7992 8.91829 13.6935C7.6668 13.1938 6.87352 11.6815 7.10715 10.2508C7.31302 8.98907 7.97469 8.11729 9.08643 7.72372C10.2299 7.31896 11.2634 7.61339 12.0953 8.56191C12.8611 9.43501 13.0924 10.4995 12.7688 11.6512C12.4238 12.8803 11.6344 13.62 10.472 13.8713C10.3898 13.8891 10.3071 13.9046 10.2247 13.9214H9.74267ZM11.936 10.7369C11.9344 9.56444 11.0524 8.60604 9.97842 8.60967C8.90803 8.61329 8.03385 9.5674 8.03114 10.7353C8.02872 11.9071 8.90773 12.8684 9.98264 12.8691C11.0573 12.8698 11.9372 11.9091 11.936 10.7372V10.7369Z" fill="#151439"/>
<path id="Vector_3" d="M4.05417 5.98138C4.05357 6.27054 3.83381 6.50767 3.56878 6.50504C3.30375 6.5024 3.08793 6.26132 3.09185 5.97215C3.09577 5.68826 3.311 5.45607 3.5715 5.45508C3.83653 5.45409 4.05538 5.69221 4.05447 5.98138H4.05417Z" fill="#151439"/>
<path id="Vector_4" d="M5.67198 6.50504C5.40695 6.50702 5.1875 6.26956 5.1875 5.98039C5.1875 5.69123 5.40665 5.45344 5.67168 5.45509C5.93188 5.45673 6.1468 5.68925 6.15012 5.97315C6.15344 6.26231 5.93701 6.50307 5.67198 6.50504Z" fill="#151439"/>
<path id="Vector_5" d="M8.24756 5.98269C8.24635 6.27186 8.02569 6.50833 7.76096 6.50503C7.49593 6.50174 7.28041 6.26 7.28524 5.97083C7.28976 5.68694 7.50559 5.45541 7.76579 5.45508C8.03082 5.45475 8.24907 5.69352 8.24756 5.98269Z" fill="#151439"/>
<path id="Vector_6" d="M9.86458 6.50409C9.59955 6.50442 9.38131 6.26565 9.38282 5.97648C9.38403 5.68731 9.60469 5.45084 9.86941 5.45414C10.1296 5.45743 10.3433 5.69126 10.3451 5.97516C10.3473 6.26433 10.1296 6.50376 9.86458 6.50409Z" fill="#151439"/>
<path id="Vector_7" d="M3.56623 7.74222C3.83127 7.73925 4.05132 7.97605 4.05222 8.26522C4.05313 8.55438 3.83489 8.79283 3.56986 8.79217C3.30935 8.79151 3.09413 8.55965 3.0899 8.27576C3.08568 7.98692 3.30151 7.74518 3.56654 7.74222H3.56623Z" fill="#151439"/>
<path id="Vector_8" d="M5.67168 8.79216C5.40665 8.7938 5.1875 8.55601 5.1875 8.26685C5.1875 7.97768 5.40695 7.74022 5.67198 7.7422C5.93218 7.74418 6.1468 7.97702 6.15012 8.26092C6.15344 8.55009 5.93671 8.79051 5.67168 8.79216Z" fill="#151439"/>
<path id="Vector_9" d="M4.05243 10.5662C4.04669 10.855 3.82271 11.0879 3.55798 11.08C3.29295 11.0721 3.08135 10.8264 3.09011 10.5375C3.09886 10.2536 3.31801 10.0261 3.57821 10.0303C3.84324 10.0346 4.05786 10.2777 4.05243 10.5665V10.5662Z" fill="#151439"/>
<path id="Vector_10" d="M5.66927 11.0803C5.40424 11.0806 5.186 10.8418 5.18751 10.5527C5.18872 10.2635 5.40937 10.027 5.6741 10.0303C5.9343 10.0336 6.14802 10.2674 6.14983 10.5513C6.15194 10.8405 5.9343 11.0799 5.66927 11.0803Z" fill="#151439"/>
<path id="Vector_11" d="M10.4656 10.215C10.561 10.215 10.6371 10.2104 10.7128 10.216C10.9727 10.2354 11.1692 10.4676 11.1653 10.7469C11.1617 11.0209 10.9664 11.2508 10.7107 11.261C10.4584 11.2712 10.2051 11.2716 9.95275 11.2604C9.70673 11.2495 9.51294 11.0361 9.5066 10.7667C9.49785 10.3906 9.49785 10.0138 9.5063 9.638C9.51264 9.35278 9.72817 9.1364 9.98444 9.13574C10.2404 9.13541 10.4526 9.35146 10.4644 9.63635C10.4722 9.82309 10.4659 10.0108 10.4659 10.215H10.4656Z" fill="#151439"/>
</g>
<defs>
<clipPath id="clip0_490_1573">
<rect width="12.3532" height="13.4643" fill="white" transform="translate(0.558594 0.457031)"/>
</clipPath>
</defs>
</svg>
