<svg width="130" height="130" viewBox="0 0 130 130" fill="none" xmlns="http://www.w3.org/2000/svg">
<g filter="url(#filter0_d_406_7103)">
<rect x="15" y="15" width="96" height="96" rx="24" fill="white" shape-rendering="crispEdges"/>
<rect x="14.5" y="14.5" width="97" height="97" rx="24.5" stroke="#52B2E8" stroke-opacity="0.5" shape-rendering="crispEdges"/>
<path d="M80.4638 61.4263L80.4874 61.8774C80.519 62.4907 81.0115 62.9938 81.5899 63H82.0106C82.5891 63.0067 83.0356 62.4325 82.9978 61.7179C82.8529 59.4967 82.3467 57.2879 81.4848 55.2232C81.1804 54.573 80.5061 54.2646 79.9923 54.5286L79.6161 54.7165C79.1014 54.981 78.9035 55.6436 79.1674 56.1991L79.3242 56.6235C79.5417 57.2133 79.2668 57.8297 78.7137 57.9981L77.104 58.5101C76.3816 56.252 75.1307 54.2299 73.4942 52.5891L74.693 51.3994C75.0981 50.9879 75.7719 51.0292 76.1949 51.4945L76.4988 51.8296C76.8772 52.314 77.5528 52.4474 78.0265 52.1118L78.3665 51.8652C78.8363 51.5328 78.8773 50.7901 78.4338 50.2271C77.0015 48.5125 75.2768 47.0486 73.3636 45.8936C73.0588 45.7091 72.7228 45.6447 72.4349 45.6936C72.139 45.7554 71.8925 45.9287 71.7597 46.1838L71.5654 46.5558C71.4317 46.8126 71.4313 47.0997 71.5253 47.3588C71.6131 47.6317 71.7954 47.8783 72.061 48.0392L72.4483 48.2743C72.5811 48.3556 72.6929 48.4556 72.7763 48.5716C72.8543 48.6952 72.9073 48.8298 72.9331 48.9667C72.9848 49.2409 72.926 49.5231 72.7544 49.7551L71.7611 51.1017C69.9076 49.7422 67.7261 48.8036 65.3553 48.4254L65.6195 46.7766C65.665 46.4918 65.8254 46.2522 66.0576 46.0967C66.2894 45.9385 66.5928 45.8651 66.8932 45.9518L67.3326 46.0638C67.932 46.21 68.5617 45.9056 68.7427 45.3718L68.8724 44.9727C69.0613 44.4132 68.6522 43.8048 67.9525 43.6328C65.7809 43.0964 63.5263 42.8644 61.3007 43.08C60.5846 43.1222 60.0854 43.7133 60.1768 44.2701L60.2387 44.6852C60.3319 45.2674 60.897 45.6127 61.512 45.5798L61.9643 45.5563C62.5927 45.5278 63.0945 45.9611 63.0847 46.5544L63.0762 48.2392C63.0508 48.2392 63.0254 48.2374 63 48.2374C60.5935 48.2374 58.3233 48.8134 56.3148 49.8293L55.5545 48.3343C55.2867 47.8228 55.5295 47.1859 56.0982 46.9153C56.2341 46.8495 56.3803 46.8068 56.5207 46.7517C57.0991 46.5393 57.4298 45.9225 57.2578 45.3718L57.1276 44.9732C56.9556 44.4226 56.2657 44.171 55.5906 44.4217C53.5116 45.2545 51.5761 46.43 49.8827 47.885C49.3488 48.3645 49.2547 49.0889 49.6652 49.4951L49.9602 49.7942C50.3707 50.2004 51.0726 50.1937 51.5294 49.7813C51.6421 49.6813 51.7513 49.5769 51.8672 49.4809C52.3703 49.1031 53.0495 49.1822 53.3819 49.6542L54.3637 51.0141C52.4652 52.3767 50.9046 54.1761 49.8283 56.2658L48.3314 55.4987C48.0738 55.3672 47.8933 55.1396 47.814 54.8699C47.7391 54.6032 47.7917 54.3086 47.9508 54.041L48.1861 53.6548C48.4891 53.1175 48.4472 52.4629 47.9739 52.1118L47.6339 51.8652C47.1798 51.527 46.42 51.6887 46.0616 52.3123C44.8553 54.1899 43.964 56.2809 43.4773 58.463C43.4336 58.6354 43.4212 58.8065 43.4359 58.966C43.459 59.1274 43.5156 59.278 43.5901 59.4082C43.7407 59.6696 43.9778 59.8487 44.2634 59.8953L44.6783 59.9638C44.9636 60.0104 45.2421 59.9229 45.4605 59.7527C45.5705 59.6678 45.6619 59.5607 45.7385 59.4385C45.8237 59.318 45.8887 59.1811 45.9275 59.0305L46.0403 58.5923C46.1182 58.291 46.3019 58.0497 46.5336 57.9123C46.7791 57.7786 47.0719 57.7483 47.3456 57.839L48.9455 58.3661C48.4624 59.8242 48.1972 61.381 48.1972 63.0004C48.1972 63.7737 48.2574 64.5332 48.3724 65.2745L46.7199 65.5292C46.1584 65.6229 45.5893 65.199 45.5371 64.5741L45.5135 64.123C45.4819 63.5097 44.9894 63.0067 44.411 63.0004H43.9894C43.4109 62.9938 42.9644 63.568 43.0022 64.2826C43.1471 66.5038 43.6533 68.7125 44.5152 70.7773C44.8196 71.4274 45.4939 71.7359 46.0077 71.4719L46.3839 71.2839C46.8986 71.0195 47.0965 70.3568 46.8326 69.8013L46.6758 69.3769C46.4583 68.7872 46.7332 68.1708 47.2863 68.0023L48.896 67.4904C49.6184 69.7484 50.8693 71.771 52.5058 73.4113L51.307 74.601C50.9019 75.0125 50.2281 74.9712 49.8051 74.5059L49.5012 74.1708C49.1228 73.6864 48.4472 73.5531 47.9735 73.8886L47.6335 74.1353C47.1637 74.4677 47.1227 75.2103 47.5662 75.7734C48.9985 77.4879 50.7232 78.9518 52.6364 80.1069C52.9412 80.2913 53.2772 80.3557 53.5651 80.3069C53.861 80.2451 54.1075 80.0718 54.2403 79.8167L54.4346 79.4442C54.5683 79.1874 54.5687 78.9003 54.4747 78.6412C54.3869 78.3683 54.2046 78.1217 53.9386 77.9608L53.5513 77.7257C53.4185 77.6444 53.3066 77.5444 53.2233 77.4284C53.1453 77.3048 53.0923 77.1702 53.0664 77.0333C53.0147 76.7591 53.0735 76.4769 53.2451 76.2449L54.2385 74.8983C56.0919 76.2578 58.2739 77.1964 60.6443 77.5746L60.38 79.2234C60.3346 79.5082 60.1741 79.7478 59.9419 79.9033C59.7102 80.0615 59.4067 80.1353 59.1063 80.0482L58.6669 79.9362C58.0675 79.79 57.4378 80.0949 57.2569 80.6282L57.1272 81.0273C56.9382 81.5868 57.3473 82.1952 58.047 82.3672C60.2187 82.9036 62.4732 83.1356 64.6988 82.92C65.415 82.8778 65.9141 82.2867 65.8228 81.7299L65.7608 81.3148C65.6677 80.7326 65.1026 80.3873 64.4876 80.4202L64.0352 80.4437C63.4069 80.4722 62.9051 80.0389 62.9149 79.4456L62.9233 77.7608C62.9488 77.7608 62.9742 77.7626 62.9996 77.7626C65.4061 77.7626 67.6762 77.1866 69.6848 76.1707L70.4451 77.6657C70.7129 78.1772 70.47 78.8141 69.9014 79.0847C69.7654 79.1505 69.6193 79.1932 69.4789 79.2483C68.9004 79.4607 68.5698 80.0775 68.7418 80.6282L68.8715 81.0273C69.0435 81.5779 69.7334 81.8294 70.4085 81.5788C72.4875 80.7459 74.423 79.5705 76.1164 78.1154C76.6503 77.6359 76.7444 76.9115 76.3339 76.5053L76.0389 76.2062C75.6285 75.8 74.9265 75.8067 74.4698 76.2191C74.357 76.3191 74.2478 76.4236 74.132 76.5196C73.6288 76.8973 72.9496 76.8182 72.6172 76.3462L71.6354 74.9863C73.5339 73.6237 75.0946 71.8243 76.1708 69.7347L77.6678 70.5017C77.9253 70.6333 78.1058 70.8608 78.1852 71.1306C78.26 71.3972 78.2074 71.6919 78.0483 71.9594L77.813 72.3456C77.5104 72.8829 77.5519 73.5375 78.0252 73.8886L78.3652 74.1353C78.8193 74.4735 79.5792 74.3117 79.9375 73.6882C81.1438 71.8105 82.0351 69.7196 82.5218 67.5375C82.5655 67.365 82.578 67.1939 82.5632 67.0344C82.5401 66.8731 82.4835 66.7224 82.409 66.5922C82.2584 66.3309 82.0213 66.1518 81.7361 66.1051L81.3212 66.0367C81.0355 65.99 80.7575 66.0776 80.5391 66.2478C80.429 66.3327 80.3377 66.4398 80.261 66.562C80.1759 66.6824 80.1108 66.8193 80.0721 66.97L79.9593 67.4082C79.8818 67.7095 79.6977 67.9508 79.466 68.0881C79.2204 68.2219 78.9276 68.2521 78.654 68.1614L77.0541 67.6344C77.5372 66.1762 77.8023 64.6195 77.8023 63C77.8023 62.2267 77.7422 61.4672 77.6272 60.7259L79.2797 60.4713C79.8425 60.3771 80.4116 60.801 80.4638 61.4263ZM54.1311 59.2887C54.6841 59.2887 55.1311 59.734 55.1311 60.282C55.1311 60.8335 54.6846 61.2792 54.1311 61.2792C53.5776 61.2792 53.131 60.8339 53.131 60.282C53.131 59.7344 53.578 59.2887 54.1311 59.2887ZM55.2666 69.4818C54.4591 69.4818 53.8075 68.8281 53.8075 68.0228C53.8075 67.2175 54.4591 66.5678 55.2666 66.5678C56.0741 66.5678 56.7257 67.2175 56.7257 68.0228C56.7252 68.8281 56.0737 69.4818 55.2666 69.4818ZM60.9344 57.3555C59.6474 57.3555 58.6063 56.3133 58.6063 55.0299C58.6063 53.7464 59.6474 52.7042 60.9344 52.7042C62.2255 52.7042 63.2665 53.7464 63.2665 55.0299C63.2665 56.3133 62.2255 57.3555 60.9344 57.3555ZM65.5576 69.216C65.5576 67.9326 66.5986 66.8904 67.8857 66.8904C69.1727 66.8904 70.2178 67.9326 70.2178 69.216C70.2178 70.4995 69.1727 71.5417 67.8857 71.5417C66.5986 71.5417 65.5576 70.4995 65.5576 69.216ZM70.8934 58.9576C70.0859 58.9576 69.4303 58.3039 69.4303 57.4986C69.4303 56.6933 70.0859 56.0436 70.8934 56.0436C71.6965 56.0436 72.3525 56.6933 72.3525 57.4986C72.3525 58.3039 71.6969 58.9576 70.8934 58.9576Z" fill="#012970"/>
</g>
<defs>
<filter id="filter0_d_406_7103" x="0" y="0" width="130" height="130" filterUnits="userSpaceOnUse" color-interpolation-filters="sRGB">
<feFlood flood-opacity="0" result="BackgroundImageFix"/>
<feColorMatrix in="SourceAlpha" type="matrix" values="0 0 0 0 0 0 0 0 0 0 0 0 0 0 0 0 0 0 127 0" result="hardAlpha"/>
<feOffset dx="2" dy="2"/>
<feGaussianBlur stdDeviation="8"/>
<feComposite in2="hardAlpha" operator="out"/>
<feColorMatrix type="matrix" values="0 0 0 0 0.0125 0 0 0 0 0.0680556 0 0 0 0 0.166667 0 0 0 0.08 0"/>
<feBlend mode="normal" in2="BackgroundImageFix" result="effect1_dropShadow_406_7103"/>
<feBlend mode="normal" in="SourceGraphic" in2="effect1_dropShadow_406_7103" result="shape"/>
</filter>
</defs>
</svg>
