<svg width="24" height="24" viewBox="0 0 24 24" fill="none" xmlns="http://www.w3.org/2000/svg">
<path d="M17.1995 6H21L17 2V5.79714C17 5.90894 17.0894 6 17.1995 6Z" fill="#012970"/>
<path d="M17.1432 7.18494C16.4025 7.18494 15.7998 6.57568 15.7998 5.82678V2H6.16243C4.97001 2 4 2.98071 4 4.18628V19.8137C4 21.0193 4.97001 22 6.16243 22H18.8376C20.0301 22 21 21.0193 21 19.8137V7.18494H17.1432ZM15.8185 17.1562H8.35384C8.03376 17.1562 7.77429 16.8939 7.77429 16.5703C7.77429 16.2467 8.03376 15.9844 8.35384 15.9844H15.8185C16.1387 15.9844 16.398 16.2467 16.398 16.5703C16.398 16.8939 16.1387 17.1562 15.8185 17.1562ZM7.77429 14.2266C7.77429 13.903 8.03376 13.6406 8.35384 13.6406H15.015C15.3352 13.6406 15.5945 13.903 15.5945 14.2266C15.5945 14.5502 15.3349 14.8125 15.015 14.8125H8.35384C8.03376 14.8125 7.77429 14.5502 7.77429 14.2266ZM16.5233 12.4688H8.35384C8.03376 12.4688 7.77429 12.2064 7.77429 11.8828C7.77429 11.5592 8.03376 11.2969 8.35384 11.2969H16.5233C16.8433 11.2969 17.1028 11.5592 17.1028 11.8828C17.1028 12.2064 16.8433 12.4688 16.5233 12.4688Z" fill="#012970"/>
</svg>
