<svg width="130" height="130" viewBox="0 0 130 130" fill="none" xmlns="http://www.w3.org/2000/svg">
<g filter="url(#filter0_d_406_7924)">
<rect x="15" y="15" width="96" height="96" rx="24" fill="white" shape-rendering="crispEdges"/>
<rect x="14.5" y="14.5" width="97" height="97" rx="24.5" stroke="#52B2E8" stroke-opacity="0.5" shape-rendering="crispEdges"/>
<path d="M71.4857 62.5189L66.2143 57.7079C64.9286 56.6082 64.2857 54.9588 64.2857 53.3093V44.3746C64.2857 43.5498 63.7714 43 63 43C62.2286 43 61.7143 43.5498 61.7143 44.3746V53.4467C61.7143 55.0962 61.0714 56.7457 59.7857 57.8454L54.5143 62.6564C54 63.2062 53.8714 64.0309 54.3857 64.5808C54.5143 64.8557 54.9 64.9931 55.2857 64.9931C55.5429 64.9931 55.9286 64.8557 56.0571 64.7182L61.3286 59.9072C61.9714 59.3574 62.4857 58.6701 62.8714 57.9828C63.2571 58.6701 63.7714 59.3574 64.4143 59.9072L69.6857 64.7182C69.9429 64.9931 70.2 64.9931 70.4571 64.9931C70.8429 64.9931 71.2286 64.8557 71.4857 64.4433C72.1286 63.8935 72.1286 63.0687 71.4857 62.5189Z" fill="#012970"/>
<path d="M61.7143 66.3677L61.4571 63.4811L57.7286 66.7801C56.1857 68.1546 53.6143 67.8797 52.3286 66.2302C51.6857 65.4055 51.3 64.3058 51.4286 63.2062C51.5571 62.1065 52.0714 61.1443 52.8429 60.457L58.1143 55.646C58.7571 55.0962 59.1429 54.2715 59.1429 53.3093V49.1856C58.5 48.7732 57.8571 48.4983 56.9571 48.4983C51.6857 48.4983 45 60.732 45 73.7904C45 79.0137 45.6429 81.488 47.1857 82.4502C47.5714 82.7251 47.9571 82.8625 48.3429 82.8625C49.3714 82.8625 50.5286 82.1753 51.4286 81.6254C52.3286 81.0756 53.2286 80.5258 53.8714 80.5258C58.8857 80.5258 61.5857 78.7388 61.5857 69.1168C61.5857 67.8797 61.5857 67.7423 61.5857 67.3299C61.7143 67.1924 61.7143 66.9175 61.7143 66.3677Z" fill="#012970"/>
<path d="M69.1714 48.4983C68.1429 48.4983 67.5 48.7732 66.8571 49.323V53.4467C66.8571 54.2715 67.2429 55.0962 67.8857 55.7835L73.1571 60.5945C73.9286 61.2818 74.4429 62.244 74.5714 63.3436C74.7 64.4433 74.3143 65.543 73.6714 66.3677C72.9 67.1924 71.8714 67.7423 70.7143 67.7423C69.8143 67.7423 68.9143 67.4674 68.2714 66.7801L64.5429 63.4811L64.2857 66.3677V69.2543C64.2857 78.7388 66.9857 80.6632 72 80.6632C72.6429 80.6632 73.6714 81.2131 74.4429 81.7629C75.4714 82.3127 76.5 83 77.5286 83C77.9143 83 78.4286 82.8625 78.8143 82.5876C80.3571 81.6254 81 79.1512 81 73.9278C81 60.732 74.3143 48.4983 69.1714 48.4983Z" fill="#012970"/>
</g>
<defs>
<filter id="filter0_d_406_7924" x="0" y="0" width="130" height="130" filterUnits="userSpaceOnUse" color-interpolation-filters="sRGB">
<feFlood flood-opacity="0" result="BackgroundImageFix"/>
<feColorMatrix in="SourceAlpha" type="matrix" values="0 0 0 0 0 0 0 0 0 0 0 0 0 0 0 0 0 0 127 0" result="hardAlpha"/>
<feOffset dx="2" dy="2"/>
<feGaussianBlur stdDeviation="8"/>
<feComposite in2="hardAlpha" operator="out"/>
<feColorMatrix type="matrix" values="0 0 0 0 0.0125 0 0 0 0 0.0680556 0 0 0 0 0.166667 0 0 0 0.08 0"/>
<feBlend mode="normal" in2="BackgroundImageFix" result="effect1_dropShadow_406_7924"/>
<feBlend mode="normal" in="SourceGraphic" in2="effect1_dropShadow_406_7924" result="shape"/>
</filter>
</defs>
</svg>
