<svg width="130" height="130" viewBox="0 0 130 130" fill="none" xmlns="http://www.w3.org/2000/svg">
<g filter="url(#filter0_d_406_10022)">
<rect x="15" y="15" width="96" height="96" rx="24" fill="white" shape-rendering="crispEdges"/>
<rect x="14.5" y="14.5" width="97" height="97" rx="24.5" stroke="#52B2E8" stroke-opacity="0.5" shape-rendering="crispEdges"/>
<path d="M66.5709 52.1198H63.5137V49.526C63.5137 48.8788 63.0157 48.3541 62.4015 48.3541H62.3224V45.3438H62.4015C63.8772 45.2818 63.8761 43.0613 62.4015 43H55.254C53.7783 43.062 53.7794 45.2824 55.254 45.3438H55.333V48.3541H55.254C54.6397 48.3541 54.1418 48.8788 54.1418 49.526V62.0781C54.1418 62.7253 54.6397 63.25 55.254 63.25H62.4015C63.0157 63.25 63.5137 62.7253 63.5137 62.0781V59.4844H66.5709C73.7929 59.7861 73.7779 70.6441 66.5709 70.9479H51.6801C51.0659 70.9479 50.5679 71.4726 50.5679 72.1198V78.3125H66.5709C73.4243 78.3125 79 72.4375 79 65.2162C79.0001 57.9952 73.4244 52.1198 66.5709 52.1198ZM62.4015 59.4844C60.4745 59.4844 58.9068 57.8325 58.9068 55.8021C59.0987 50.917 65.7049 50.9184 65.8962 55.8021C65.8962 57.8325 64.3284 59.4844 62.4015 59.4844Z" fill="#012970"/>
<path d="M61.2102 67.9375C61.8244 67.9375 62.3223 67.4128 62.3223 66.7656V65.5937H55.3329V66.7656C55.3329 67.4128 55.8309 67.9375 56.4451 67.9375H61.2102Z" fill="#012970"/>
<path d="M69.549 80.6562H48.1063C46.6307 80.7182 46.6318 82.9387 48.1063 83H69.549C71.0247 82.938 71.0236 80.7176 69.549 80.6562Z" fill="#012970"/>
<path d="M62.4015 54.4635C61.701 54.4635 61.1311 55.064 61.1311 55.802C61.2009 57.5778 63.6023 57.5773 63.6719 55.802C63.6719 55.064 63.1019 54.4635 62.4015 54.4635Z" fill="#012970"/>
</g>
<defs>
<filter id="filter0_d_406_10022" x="0" y="0" width="130" height="130" filterUnits="userSpaceOnUse" color-interpolation-filters="sRGB">
<feFlood flood-opacity="0" result="BackgroundImageFix"/>
<feColorMatrix in="SourceAlpha" type="matrix" values="0 0 0 0 0 0 0 0 0 0 0 0 0 0 0 0 0 0 127 0" result="hardAlpha"/>
<feOffset dx="2" dy="2"/>
<feGaussianBlur stdDeviation="8"/>
<feComposite in2="hardAlpha" operator="out"/>
<feColorMatrix type="matrix" values="0 0 0 0 0.0125 0 0 0 0 0.0680556 0 0 0 0 0.166667 0 0 0 0.08 0"/>
<feBlend mode="normal" in2="BackgroundImageFix" result="effect1_dropShadow_406_10022"/>
<feBlend mode="normal" in="SourceGraphic" in2="effect1_dropShadow_406_10022" result="shape"/>
</filter>
</defs>
</svg>
