<svg width="130" height="130" viewBox="0 0 130 130" fill="none" xmlns="http://www.w3.org/2000/svg">
<g filter="url(#filter0_d_406_7169)">
<rect x="15" y="15" width="96" height="96" rx="24" fill="white" shape-rendering="crispEdges"/>
<rect x="14.5" y="14.5" width="97" height="97" rx="24.5" stroke="#52B2E8" stroke-opacity="0.5" shape-rendering="crispEdges"/>
<path d="M73.8 68.213L81 71.7283V69.6613L73.8 66.1457V68.213Z" fill="#012970"/>
<path d="M73.8 83H81V74.349L73.8 70.8337V83Z" fill="#012970"/>
<path d="M81 52.4803C81 48.801 78.907 45.4937 75.5367 43.848L73.8 43V63.525L81 67.0406V62.3537L77.6836 60.7344L81 59.115V52.4803Z" fill="#012970"/>
<path d="M65.4 43C62.0918 43 59.4 45.6287 59.4 48.8594V57.2188H57V48.8594C57 45.6287 54.3082 43 51 43C47.6918 43 45 45.6287 45 48.8594C45 52.0901 47.6918 54.7188 51 54.7188C52.3497 54.7188 53.5965 54.2809 54.6 53.5436V70.4516C54.6 74.061 55.4742 77.6751 57.1266 80.9034L58.2 83L59.2734 80.9034C60.9258 77.6751 61.8 74.061 61.8 70.4516V53.5436C62.8035 54.2809 64.0503 54.7188 65.4 54.7188C68.7082 54.7188 71.4 52.0901 71.4 48.8594C71.4 45.6287 68.7082 43 65.4 43ZM51 52.375C49.0149 52.375 47.4 50.798 47.4 48.8594C47.4 46.9208 49.0149 45.3438 51 45.3438C52.9851 45.3438 54.6 46.9208 54.6 48.8594C54.6 50.798 52.9851 52.375 51 52.375ZM65.4 52.375C63.4149 52.375 61.8 50.798 61.8 48.8594C61.8 46.9208 63.4149 45.3438 65.4 45.3438C67.3851 45.3438 69 46.9208 69 48.8594C69 50.798 67.3851 52.375 65.4 52.375Z" fill="#012970"/>
</g>
<defs>
<filter id="filter0_d_406_7169" x="0" y="0" width="130" height="130" filterUnits="userSpaceOnUse" color-interpolation-filters="sRGB">
<feFlood flood-opacity="0" result="BackgroundImageFix"/>
<feColorMatrix in="SourceAlpha" type="matrix" values="0 0 0 0 0 0 0 0 0 0 0 0 0 0 0 0 0 0 127 0" result="hardAlpha"/>
<feOffset dx="2" dy="2"/>
<feGaussianBlur stdDeviation="8"/>
<feComposite in2="hardAlpha" operator="out"/>
<feColorMatrix type="matrix" values="0 0 0 0 0.0125 0 0 0 0 0.0680556 0 0 0 0 0.166667 0 0 0 0.08 0"/>
<feBlend mode="normal" in2="BackgroundImageFix" result="effect1_dropShadow_406_7169"/>
<feBlend mode="normal" in="SourceGraphic" in2="effect1_dropShadow_406_7169" result="shape"/>
</filter>
</defs>
</svg>
