<svg width="130" height="130" viewBox="0 0 130 130" fill="none" xmlns="http://www.w3.org/2000/svg">
<g filter="url(#filter0_d_406_9614)">
<rect x="15" y="15" width="96" height="96" rx="24" fill="white" shape-rendering="crispEdges"/>
<rect x="14.5" y="14.5" width="97" height="97" rx="24.5" stroke="#52B2E8" stroke-opacity="0.5" shape-rendering="crispEdges"/>
<path d="M58.0307 49.3158H67.9678C68.5372 49.3158 69 48.803 69 48.171C69 48.0717 68.9887 47.9757 68.9675 47.8842L67.8744 43.9203C67.7781 43.3852 67.355 43 66.8638 43H59.1348C58.6436 43 58.2205 43.3852 58.1241 43.9203L57.02 47.9465C56.9594 48.2828 57.038 48.6313 57.2337 48.8966C57.4294 49.162 57.722 49.3158 58.0307 49.3158Z" fill="#012970"/>
<path d="M72.3443 45.1053H74.3963C76.9346 45.1053 79 47.2 79 49.7745V78.3311C79 80.9056 76.9346 83 74.3963 83H51.6037C49.0654 83 47 80.9056 47 78.3311V68.446H48.4558C48.9439 68.446 49.39 68.1529 49.6085 67.6894L51.2169 64.2726L55.5859 73.5547C55.8041 74.0186 56.2503 74.3114 56.7387 74.3114C57.2268 74.3114 57.6729 74.0186 57.8915 73.5547L62.2609 64.2726L63.8688 67.689C64.0874 68.1529 64.5335 68.446 65.0216 68.446H74.7964C75.5084 68.446 76.0851 67.8331 76.0851 67.0767C76.0851 66.3208 75.5084 65.7078 74.7964 65.7078H65.8182L63.4136 60.5991C63.1951 60.1352 62.749 59.8421 62.2609 59.8421C61.7724 59.8421 61.3263 60.1352 61.1081 60.5991L56.7387 69.8812L52.3693 60.5991C52.1511 60.1352 51.705 59.8421 51.2165 59.8421C50.7284 59.8421 50.2823 60.1352 50.0637 60.5991L47.6592 65.7078H47V49.7745C47 47.2 49.0654 45.1056 51.6037 45.1056H53.6557L53.2844 46.9881C53.0627 48.1112 53.3467 49.2637 54.0628 50.1497C54.7787 51.0354 55.8371 51.5436 56.9666 51.5436H69.0334C71.1056 51.5436 72.7902 49.835 72.7902 47.735C72.7902 47.4433 72.7573 47.1527 72.6921 46.8694L72.3443 45.1053Z" fill="#012970"/>
</g>
<defs>
<filter id="filter0_d_406_9614" x="0" y="0" width="130" height="130" filterUnits="userSpaceOnUse" color-interpolation-filters="sRGB">
<feFlood flood-opacity="0" result="BackgroundImageFix"/>
<feColorMatrix in="SourceAlpha" type="matrix" values="0 0 0 0 0 0 0 0 0 0 0 0 0 0 0 0 0 0 127 0" result="hardAlpha"/>
<feOffset dx="2" dy="2"/>
<feGaussianBlur stdDeviation="8"/>
<feComposite in2="hardAlpha" operator="out"/>
<feColorMatrix type="matrix" values="0 0 0 0 0.0125 0 0 0 0 0.0680556 0 0 0 0 0.166667 0 0 0 0.08 0"/>
<feBlend mode="normal" in2="BackgroundImageFix" result="effect1_dropShadow_406_9614"/>
<feBlend mode="normal" in="SourceGraphic" in2="effect1_dropShadow_406_9614" result="shape"/>
</filter>
</defs>
</svg>
