<svg width="130" height="130" viewBox="0 0 130 130" fill="none" xmlns="http://www.w3.org/2000/svg">
<g filter="url(#filter0_d_406_8157)">
<rect x="15" y="15" width="96" height="96" rx="24" fill="white" shape-rendering="crispEdges"/>
<rect x="14.5" y="14.5" width="97" height="97" rx="24.5" stroke="#52B2E8" stroke-opacity="0.5" shape-rendering="crispEdges"/>
<path d="M63.802 68.1505C65.3393 67.7811 66.4837 66.3745 66.4837 64.6945C66.4837 62.7329 64.924 61.1429 63 61.1429C61.076 61.1429 59.5163 62.733 59.5163 64.6945C59.5163 66.3745 60.6608 67.7811 62.198 68.1505C60.0676 68.5381 58.4447 70.4394 58.4447 72.721V79.0735C58.4447 79.2244 58.5129 79.3672 58.6301 79.4622L62.6854 82.7453C62.8688 82.8938 63.1312 82.8938 63.3146 82.7453L67.3699 79.4622C67.4871 79.3672 67.5553 79.2244 67.5553 79.0735V72.721C67.5553 70.4394 65.9324 68.5382 63.802 68.1505Z" fill="#012970"/>
<path d="M74.0218 52.418C76.1124 51.9426 77.6756 50.0414 77.6756 47.7668C77.6756 45.1342 75.5822 43.0001 73 43.0001C70.4178 43.0001 68.3244 45.1342 68.3244 47.7668C68.3244 50.0418 69.8882 51.9433 71.9793 52.4183C68.3454 52.7941 65.2865 55.1524 63.8608 58.4167C63.8083 58.5369 63.8872 58.6723 64.0164 58.695C66.8275 59.1884 68.9734 61.6901 68.9734 64.6947C68.9734 65.8315 68.6654 66.8961 68.1313 67.8077C69.3165 69.0935 70.0448 70.8218 70.0448 72.7212V76.2485C70.0448 76.6691 70.5325 76.9017 70.8594 76.6371L79.8213 69.3815C81.8295 67.7555 83 65.2842 83 62.6699C83 57.3749 79.0808 52.9485 74.0218 52.418Z" fill="#012970"/>
<path d="M61.9836 58.6949C62.1128 58.6722 62.1917 58.5368 62.1392 58.4167C60.7135 55.1523 57.6546 52.7941 54.0207 52.4182C56.1119 51.9433 57.6756 50.0418 57.6756 47.7667C57.6756 45.1342 55.5822 43 53 43C50.4178 43 48.3244 45.1342 48.3244 47.7668C48.3244 50.0414 49.8876 51.9426 51.9782 52.418C46.9192 52.9485 43 57.3749 43 62.6699C43 65.2842 44.1705 67.7555 46.1786 69.3814L55.1405 76.637C55.4674 76.9017 55.9551 76.669 55.9551 76.2484V72.7211C55.9551 70.8216 56.6834 69.0934 57.8686 67.8076C57.3345 66.896 57.0266 65.8314 57.0266 64.6946C57.0266 61.69 59.1725 59.1884 61.9836 58.6949Z" fill="#012970"/>
</g>
<defs>
<filter id="filter0_d_406_8157" x="0" y="0" width="130" height="130" filterUnits="userSpaceOnUse" color-interpolation-filters="sRGB">
<feFlood flood-opacity="0" result="BackgroundImageFix"/>
<feColorMatrix in="SourceAlpha" type="matrix" values="0 0 0 0 0 0 0 0 0 0 0 0 0 0 0 0 0 0 127 0" result="hardAlpha"/>
<feOffset dx="2" dy="2"/>
<feGaussianBlur stdDeviation="8"/>
<feComposite in2="hardAlpha" operator="out"/>
<feColorMatrix type="matrix" values="0 0 0 0 0.0125 0 0 0 0 0.0680556 0 0 0 0 0.166667 0 0 0 0.08 0"/>
<feBlend mode="normal" in2="BackgroundImageFix" result="effect1_dropShadow_406_8157"/>
<feBlend mode="normal" in="SourceGraphic" in2="effect1_dropShadow_406_8157" result="shape"/>
</filter>
</defs>
</svg>
