<svg width="130" height="130" viewBox="0 0 130 130" fill="none" xmlns="http://www.w3.org/2000/svg">
<g filter="url(#filter0_d_406_7846)">
<rect x="15" y="15" width="96" height="96" rx="24" fill="white" shape-rendering="crispEdges"/>
<rect x="14.5" y="14.5" width="97" height="97" rx="24.5" stroke="#52B2E8" stroke-opacity="0.5" shape-rendering="crispEdges"/>
<path d="M63 49.1803C59.0691 49.1803 55.1627 49.6786 51.3741 50.6624V65.4205C51.3468 70.1637 57.5211 74.2662 63.0017 76.4303C67.6731 74.6293 74.7898 70.3173 74.6259 65.4205V50.6624C70.8372 49.6786 66.9308 49.1803 63 49.1803ZM66.9587 66.7746C67.0398 66.8531 67.0398 66.9832 66.9587 67.0618L65.5357 68.4406C65.4581 68.5158 65.3349 68.5158 65.2573 68.4406L63.0085 66.2616L60.7597 68.4406C60.6821 68.5158 60.5589 68.5158 60.4813 68.4406L59.0584 67.0618C58.9773 66.9832 58.9773 66.8531 59.0584 66.7746L61.2981 64.6044L59.7163 63.0716C57.8903 61.3776 57.9493 58.3266 59.7163 56.6915C61.4037 54.9794 64.5526 54.9223 66.3008 56.6915C68.0678 58.3266 68.1268 61.3775 66.3008 63.0716L64.719 64.6044L66.9587 66.7746Z" fill="#012970"/>
<path d="M61.4266 58.3487C60.5543 59.1939 60.5543 60.5691 61.4266 61.4143L63.0085 62.947L64.5905 61.4143C65.4627 60.5691 65.4627 59.194 64.5905 58.3487C63.7755 57.5633 62.3425 57.4698 61.4266 58.3487Z" fill="#012970"/>
<path d="M63 43.0006C56.8836 42.9696 50.7622 44.1234 45 46.1226V65.4242C45.069 77.4508 62.2449 82.7789 63 83C64.2717 82.622 80.8953 77.2984 81 65.4241V46.1225C75.2482 44.1219 69.1324 42.9755 63 43.0006ZM77.0447 65.415C77.0248 73.5035 65.3895 78.0387 63.001 78.9501C57.1227 76.8355 48.8379 71.879 48.9552 65.4141V48.8922C53.4681 47.5521 58.2555 46.8294 63 46.8365C67.7281 46.8243 72.5154 47.5525 77.0447 48.8922V65.415Z" fill="#012970"/>
</g>
<defs>
<filter id="filter0_d_406_7846" x="0" y="0" width="130" height="130" filterUnits="userSpaceOnUse" color-interpolation-filters="sRGB">
<feFlood flood-opacity="0" result="BackgroundImageFix"/>
<feColorMatrix in="SourceAlpha" type="matrix" values="0 0 0 0 0 0 0 0 0 0 0 0 0 0 0 0 0 0 127 0" result="hardAlpha"/>
<feOffset dx="2" dy="2"/>
<feGaussianBlur stdDeviation="8"/>
<feComposite in2="hardAlpha" operator="out"/>
<feColorMatrix type="matrix" values="0 0 0 0 0.0125 0 0 0 0 0.0680556 0 0 0 0 0.166667 0 0 0 0.08 0"/>
<feBlend mode="normal" in2="BackgroundImageFix" result="effect1_dropShadow_406_7846"/>
<feBlend mode="normal" in="SourceGraphic" in2="effect1_dropShadow_406_7846" result="shape"/>
</filter>
</defs>
</svg>
