<svg width="130" height="130" viewBox="0 0 130 130" fill="none" xmlns="http://www.w3.org/2000/svg">
<g filter="url(#filter0_d_406_7712)">
<rect x="15" y="15" width="96" height="96" rx="24" fill="white" shape-rendering="crispEdges"/>
<rect x="14.5" y="14.5" width="97" height="97" rx="24.5" stroke="#52B2E8" stroke-opacity="0.5" shape-rendering="crispEdges"/>
<path d="M52.7959 50.8125H71.5714C72.2478 50.8125 72.7959 50.2879 72.7959 49.6406C72.7959 48.9933 72.2478 48.4688 71.5714 48.4688V44.1719C71.5714 43.5246 71.0233 43 70.3469 43H54.0204C53.3441 43 52.7959 43.5246 52.7959 44.1719V48.4688C52.1196 48.4688 51.5714 48.9933 51.5714 49.6406C51.5714 50.2879 52.1196 50.8125 52.7959 50.8125Z" fill="#012970"/>
<path d="M75.2449 68.1562C70.9688 68.1562 67.4898 71.4857 67.4898 75.5781C67.4898 77.0045 67.9128 78.3382 68.6447 79.4704C68.8068 79.7213 69.1558 79.7482 69.3716 79.5417L79.3497 69.9923C79.578 69.7738 79.549 69.4001 79.2762 69.2405C78.1009 68.553 76.7204 68.1562 75.2449 68.1562Z" fill="#012970"/>
<path d="M81.8451 71.6859C81.683 71.435 81.334 71.408 81.1182 71.6146L71.1402 81.1639C70.9118 81.3824 70.9408 81.7562 71.2137 81.9157C72.3891 82.6032 73.7694 83 75.2449 83C79.521 83 83 79.6705 83 75.5781C83 74.1517 82.577 72.818 81.8451 71.6859Z" fill="#012970"/>
<path d="M47.898 61.9062C45.1929 61.9062 43 64.0049 43 66.5937V70.7812C43 71.0574 43.2239 71.2812 43.5 71.2812H52.2959C52.5721 71.2812 52.7959 71.0574 52.7959 70.7812V66.5937C52.7959 64.0049 50.603 61.9062 47.898 61.9062Z" fill="#012970"/>
<path d="M43.5 73.625C43.2239 73.625 43 73.8489 43 74.125V78.3125C43 80.9013 45.1929 83 47.898 83C50.603 83 52.7959 80.9013 52.7959 78.3125V74.125C52.7959 73.8489 52.5721 73.625 52.2959 73.625H43.5Z" fill="#012970"/>
<path d="M65.0408 75.5781C65.0408 70.1848 69.6094 65.8125 75.2449 65.8125C75.6594 65.8125 76.0679 65.8369 76.4694 65.8827V61.1562C76.4694 60.8801 76.2455 60.6562 75.9694 60.6562H52.5425C52.3403 60.6562 52.258 60.9346 52.4198 61.0559C54.1384 62.344 55.2449 64.3474 55.2449 66.5938V78.3125C55.2449 79.7055 54.8193 81.0049 54.0862 82.0984C53.8425 82.4619 54.0847 83 54.5223 83H67.2141C67.6838 83 67.9143 82.3863 67.5957 82.0411C66.0059 80.3193 65.0408 78.0567 65.0408 75.5781ZM63.4082 69.25V70.4219C63.4082 71.0692 62.86 71.5938 62.1837 71.5938C61.5073 71.5938 60.9592 71.0692 60.9592 70.4219V69.25H59.7347C59.0584 69.25 58.5102 68.7254 58.5102 68.0781C58.5102 67.4308 59.0584 66.9062 59.7347 66.9062H60.9592V65.7344C60.9592 65.0871 61.5073 64.5625 62.1837 64.5625C62.86 64.5625 63.4082 65.0871 63.4082 65.7344V66.9062H64.6327C65.309 66.9062 65.8571 67.4308 65.8571 68.0781C65.8571 68.7254 65.309 69.25 64.6327 69.25H63.4082Z" fill="#012970"/>
<path d="M70.3469 53.1562H54.0204C51.0968 53.1562 48.647 55.1279 48.0425 57.7546C47.9751 58.0478 48.2094 58.3125 48.5103 58.3125H75.857C76.1579 58.3125 76.3923 58.0478 76.3248 57.7546C75.7204 55.1279 73.2705 53.1562 70.3469 53.1562Z" fill="#012970"/>
</g>
<defs>
<filter id="filter0_d_406_7712" x="0" y="0" width="130" height="130" filterUnits="userSpaceOnUse" color-interpolation-filters="sRGB">
<feFlood flood-opacity="0" result="BackgroundImageFix"/>
<feColorMatrix in="SourceAlpha" type="matrix" values="0 0 0 0 0 0 0 0 0 0 0 0 0 0 0 0 0 0 127 0" result="hardAlpha"/>
<feOffset dx="2" dy="2"/>
<feGaussianBlur stdDeviation="8"/>
<feComposite in2="hardAlpha" operator="out"/>
<feColorMatrix type="matrix" values="0 0 0 0 0.0125 0 0 0 0 0.0680556 0 0 0 0 0.166667 0 0 0 0.08 0"/>
<feBlend mode="normal" in2="BackgroundImageFix" result="effect1_dropShadow_406_7712"/>
<feBlend mode="normal" in="SourceGraphic" in2="effect1_dropShadow_406_7712" result="shape"/>
</filter>
</defs>
</svg>
