<svg width="130" height="130" viewBox="0 0 130 130" fill="none" xmlns="http://www.w3.org/2000/svg">
<g filter="url(#filter0_d_406_7973)">
<rect x="15" y="15" width="96" height="96" rx="24" fill="white" shape-rendering="crispEdges"/>
<rect x="14.5" y="14.5" width="97" height="97" rx="24.5" stroke="#52B2E8" stroke-opacity="0.5" shape-rendering="crispEdges"/>
<path d="M67.9678 49.3158H58.0307C57.722 49.3158 57.4294 49.162 57.2337 48.8966C57.038 48.6313 56.9594 48.2828 57.02 47.9465L58.1241 43.9203C58.2205 43.3852 58.6436 43 59.1348 43H66.8638C67.355 43 67.7781 43.3852 67.8744 43.9203L68.9675 47.8842C68.9887 47.9757 69 48.0717 69 48.171C69 48.803 68.5372 49.3158 67.9678 49.3158Z" fill="#012970"/>
<path fill-rule="evenodd" clip-rule="evenodd" d="M72.3443 45.1053H74.3963C76.9346 45.1053 79 47.2 79 49.7745V78.3311C79 80.9056 76.9346 83 74.3963 83H51.6037C49.0654 83 47 80.9056 47 78.3311V49.7745C47 47.2 49.0654 45.1056 51.6037 45.1056H53.6557L53.2844 46.9881C53.0627 48.1112 53.3467 49.2637 54.0628 50.1497C54.7787 51.0354 55.8371 51.5436 56.9666 51.5436H69.0334C71.1056 51.5436 72.7902 49.835 72.7902 47.735C72.7902 47.4433 72.7573 47.1527 72.6921 46.8694L72.3443 45.1053ZM68.3333 60.714C66.9301 62.6983 65.1166 64.3985 63 65.714C60.8834 64.3985 59.0699 62.6983 57.6667 60.714C55.8889 57.3807 59.4444 54.0474 63 57.3807C66.5556 54.0474 70.1111 57.3808 68.3333 60.714ZM58.4444 69.0473H54.6667C53.7462 69.0473 53 69.7935 53 70.714C53 71.6345 53.7462 72.3807 54.6667 72.3807H58.4444C59.3649 72.3807 60.1111 71.6345 60.1111 70.714C60.1111 69.7935 59.3649 69.0473 58.4444 69.0473ZM54.6667 78.714H69.7777C70.6982 78.714 71.4444 77.9678 71.4444 77.0474C71.4444 76.1269 70.6982 75.3807 69.7777 75.3807H54.6667C53.7462 75.3807 53 76.1269 53 77.0474C53 77.9678 53.7462 78.714 54.6667 78.714Z" fill="#012970"/>
</g>
<defs>
<filter id="filter0_d_406_7973" x="0" y="0" width="130" height="130" filterUnits="userSpaceOnUse" color-interpolation-filters="sRGB">
<feFlood flood-opacity="0" result="BackgroundImageFix"/>
<feColorMatrix in="SourceAlpha" type="matrix" values="0 0 0 0 0 0 0 0 0 0 0 0 0 0 0 0 0 0 127 0" result="hardAlpha"/>
<feOffset dx="2" dy="2"/>
<feGaussianBlur stdDeviation="8"/>
<feComposite in2="hardAlpha" operator="out"/>
<feColorMatrix type="matrix" values="0 0 0 0 0.0125 0 0 0 0 0.0680556 0 0 0 0 0.166667 0 0 0 0.08 0"/>
<feBlend mode="normal" in2="BackgroundImageFix" result="effect1_dropShadow_406_7973"/>
<feBlend mode="normal" in="SourceGraphic" in2="effect1_dropShadow_406_7973" result="shape"/>
</filter>
</defs>
</svg>
