<svg width="130" height="130" viewBox="0 0 130 130" fill="none" xmlns="http://www.w3.org/2000/svg">
<g filter="url(#filter0_d_406_8088)">
<rect x="15" y="15" width="96" height="96" rx="24" fill="white" shape-rendering="crispEdges"/>
<rect x="14.5" y="14.5" width="97" height="97" rx="24.5" stroke="#52B2E8" stroke-opacity="0.5" shape-rendering="crispEdges"/>
<path fill-rule="evenodd" clip-rule="evenodd" d="M59.2491 83C53.6045 83 45.3824 75.4533 45.0473 75.1252C45.0215 75.1252 45.0215 75.1252 45.0215 75.1252C41.6451 71.7936 40.9749 69.9006 41.0007 68.8657C41.0265 68.2095 41.3358 67.9066 41.3873 67.8562C41.4131 67.8562 41.4131 67.8309 41.4389 67.8309C41.7224 67.629 42.109 67.528 42.573 67.528C46.0525 67.528 53.9396 73.8885 54.6355 74.469C55.8211 75.0242 57.1098 75.3271 58.4759 75.3271C60.3317 75.3271 62.007 74.7718 63.1926 74.2418C62.5225 74.2923 61.8524 74.3175 61.2338 74.3175C55.0221 74.3175 52.5477 71.945 52.4446 71.844C52.3931 71.8188 52.3673 71.7936 52.3673 71.7431C51.8003 70.7082 51.6972 69.8249 52.058 69.1181C52.5993 68.0833 53.9653 67.8814 54.0427 67.8562H54.0942C56.2593 67.9066 58.4501 67.9319 60.6152 67.9319L60.7183 67.9571C62.3936 67.9571 64.0174 67.5533 65.4093 66.8213C67.0331 65.9632 68.8373 65.5089 70.7704 65.4584C70.8735 65.4584 70.9766 65.4331 71.0797 65.4331C72.7293 65.4331 74.4304 65.8622 75.9769 66.6194C79.5338 68.361 84.5083 68.4619 84.5598 68.4619C84.7918 68.4872 84.998 68.6638 84.998 68.891V74.267C85.0753 77.9521 82.9102 79.4917 82.8329 79.5422C82.6783 79.6431 82.4978 79.6684 82.3432 79.5674C80.1008 78.2549 77.6522 77.9773 75.9511 77.9773C74.9716 77.9773 74.3015 78.1035 74.3015 78.1035C74.25 78.1035 74.2242 78.1035 74.1984 78.1035C74.1469 78.1035 74.1211 78.1035 74.0695 78.1035C72.4715 78.1035 67.0588 80.0974 62.5483 81.9652C62.2132 82.1166 61.8781 82.2933 61.5431 82.47H61.5173C60.8729 82.8233 60.0997 83 59.2491 83Z" fill="#012970"/>
<path fill-rule="evenodd" clip-rule="evenodd" d="M42.4699 66.6699C42.5987 66.0641 42.9338 65.6351 43.4235 65.3827C44.5318 64.8274 46.3618 65.3827 49.0424 67.0485C49.9187 67.6038 50.7177 68.1843 51.3363 68.6386C51.3363 68.6891 51.3105 68.7143 51.2848 68.7395C50.9755 69.3705 50.9239 70.052 51.0528 70.7082C48.1403 68.6891 44.7122 66.6699 42.573 66.6699C42.5472 66.6699 42.4956 66.6699 42.4699 66.6699Z" fill="#012970"/>
<path fill-rule="evenodd" clip-rule="evenodd" d="M51.0528 69.4463C49.9445 68.6891 48.7331 68.1843 47.6248 68.5376C47.4444 68.4114 47.2639 68.3357 47.0835 68.2348C47.0062 67.629 47.1866 66.468 45.6917 66.2913C45.4597 66.2661 45.2793 66.0389 45.3051 65.8117C45.4597 64.6255 45.9752 63.8935 46.8 63.5906C48.0114 63.1868 49.8414 63.8178 52.2384 65.4584C53.0374 66.0137 53.7591 66.5689 54.3004 67.0232H54.12C53.9911 67.0232 54.0169 67.0232 53.9138 67.0232C52.857 67.1747 51.7745 67.8057 51.2848 68.7395C51.1817 68.9667 51.1044 69.1939 51.0528 69.4463Z" fill="#012970"/>
<path fill-rule="evenodd" clip-rule="evenodd" d="M59.61 64.045C58.0635 64.045 57.0067 63.8935 56.9552 63.8683C56.9294 63.8683 56.9294 63.8683 56.9294 63.8683C52.2127 62.8587 50.4342 60.5114 49.7641 58.6941C49.2744 57.3564 49.3001 55.842 49.8414 54.4034C50.2022 53.4443 50.3827 52.6114 50.3569 51.9299C50.3569 51.4756 50.1507 51.0213 49.8156 50.6931L48.3722 49.2797C47.7794 48.6992 47.4701 47.8663 47.5732 47.0586C47.7021 46.3014 48.1145 45.7461 48.8362 45.4433C49.661 45.0647 50.6662 45.1909 51.4652 45.7461L54.1715 47.7401C55.0736 48.3963 55.6149 49.4816 55.6149 50.5922V53.8733H57.3934C57.2129 53.1919 57.1098 52.4852 57.1614 51.7784C57.2645 50.0117 58.115 48.6235 58.4759 48.1187C58.6821 47.841 58.9141 47.6391 59.1718 47.4877C59.8162 47.0839 60.5121 47.1343 61.1307 47.6391C61.6719 48.0934 61.9555 48.8002 61.9039 49.5321L61.7493 52.0056C61.6977 52.6366 62.1101 53.2171 62.7287 53.3938L63.9659 53.7471C62.1359 51.5008 63.0638 49.4059 63.6308 48.4973C63.9401 48.043 64.4814 47.7906 65.0484 47.841L66.5949 47.9672C66.9557 46.8819 67.5228 45.8976 68.2702 45.0899C69.7394 43.4746 72.0333 42.7174 74.2242 43.096C77.3171 43.6008 79.1987 45.7714 80.2297 47.4877C81.3122 49.305 81.6215 51.4503 81.0802 53.3685C80.3585 55.943 78.2708 57.7855 75.0747 58.6941C73.1159 59.2494 71.3374 59.3251 70.6931 59.3251C68.9919 61.7986 66.1052 63.3635 62.3163 63.8683C61.3369 64.0197 60.409 64.045 59.61 64.045Z" fill="#012970"/>
</g>
<defs>
<filter id="filter0_d_406_8088" x="0" y="0" width="130" height="130" filterUnits="userSpaceOnUse" color-interpolation-filters="sRGB">
<feFlood flood-opacity="0" result="BackgroundImageFix"/>
<feColorMatrix in="SourceAlpha" type="matrix" values="0 0 0 0 0 0 0 0 0 0 0 0 0 0 0 0 0 0 127 0" result="hardAlpha"/>
<feOffset dx="2" dy="2"/>
<feGaussianBlur stdDeviation="8"/>
<feComposite in2="hardAlpha" operator="out"/>
<feColorMatrix type="matrix" values="0 0 0 0 0.0125 0 0 0 0 0.0680556 0 0 0 0 0.166667 0 0 0 0.08 0"/>
<feBlend mode="normal" in2="BackgroundImageFix" result="effect1_dropShadow_406_8088"/>
<feBlend mode="normal" in="SourceGraphic" in2="effect1_dropShadow_406_8088" result="shape"/>
</filter>
</defs>
</svg>
