<svg width="130" height="130" viewBox="0 0 130 130" fill="none" xmlns="http://www.w3.org/2000/svg">
<g filter="url(#filter0_d_406_6976)">
<rect x="15" y="15" width="96" height="96" rx="24" fill="white" shape-rendering="crispEdges"/>
<rect x="14.5" y="14.5" width="97" height="97" rx="24.5" stroke="#52B2E8" stroke-opacity="0.5" shape-rendering="crispEdges"/>
<path d="M82.7334 50.4823L75.5072 43.2664C75.1515 42.9112 74.5755 42.9112 74.2198 43.2664C73.8642 43.6215 73.8642 44.1968 74.2198 44.5518L75.3116 45.6421L69.3159 51.6293L65.493 47.8118C65.1373 47.4566 64.5613 47.4566 64.2056 47.8118C63.85 48.1669 63.85 48.7422 64.2056 49.0973L66.2931 51.1818L48.729 68.7209C48.5583 68.8913 48.4624 69.1221 48.4624 69.3637C48.4624 71.2917 49.1614 73.0424 50.2826 74.4423L43.2667 81.4482C42.9111 81.8033 42.9111 82.3786 43.2667 82.7337C43.4445 82.9112 43.6775 83 43.9104 83C44.1433 83 44.3762 82.9112 44.554 82.7337L51.5699 75.7277C52.9717 76.8475 54.725 77.5455 56.6557 77.5455C56.8975 77.5455 57.1287 77.4496 57.2993 77.2791L74.8633 59.7401L76.9508 61.8246C77.1286 62.0021 77.3615 62.0909 77.5944 62.0909C77.8273 62.0909 78.0603 62.0021 78.2381 61.8246C78.5937 61.4694 78.5937 60.8941 78.2381 60.5391L74.2729 56.5796L80.2687 50.5924L81.4457 51.7678C81.6235 51.9454 81.8565 52.0342 82.0894 52.0342C82.3223 52.0342 82.5552 51.9454 82.733 51.7678C83.0889 51.4126 83.0889 50.8373 82.7334 50.4823ZM54.5519 70.9155C54.3744 71.093 54.1417 71.1818 53.9092 71.1818C53.6766 71.1818 53.444 71.093 53.2664 70.9155L51.6373 69.2864C51.2821 68.9312 51.2821 68.3559 51.6373 68.0009C51.9924 67.6457 52.5677 67.6457 52.9227 68.0009L54.5519 69.63C54.907 69.9851 54.907 70.5603 54.5519 70.9155ZM57.2792 66.37C57.1017 66.5475 56.869 66.6363 56.6364 66.6363C56.4038 66.6363 56.1713 66.5475 55.9936 66.37L55.2736 65.65C54.9185 65.2948 54.9185 64.7196 55.2736 64.3645C55.6288 64.0094 56.2041 64.0094 56.5591 64.3645L57.2791 65.0845C57.6343 65.4396 57.6343 66.0149 57.2792 66.37ZM61.8246 63.6427C61.6471 63.8202 61.4144 63.909 61.1819 63.909C60.9493 63.909 60.7167 63.8202 60.5391 63.6427L58.91 62.0136C58.5548 61.6585 58.5548 61.0832 58.91 60.7281C59.2651 60.373 59.8404 60.373 60.1954 60.7281L61.8246 62.3572C62.1798 62.7124 62.1798 63.2877 61.8246 63.6427ZM64.5519 59.0973C64.3744 59.2748 64.1417 59.3636 63.9091 59.3636C63.6765 59.3636 63.444 59.2748 63.2663 59.0973L62.5463 58.3773C62.1912 58.0222 62.1912 57.4469 62.5463 57.0918C62.9015 56.7367 63.4768 56.7367 63.8318 57.0918L64.5518 57.8118C64.9071 58.1669 64.9071 58.7421 64.5519 59.0973Z" fill="#012970"/>
</g>
<defs>
<filter id="filter0_d_406_6976" x="0" y="0" width="130" height="130" filterUnits="userSpaceOnUse" color-interpolation-filters="sRGB">
<feFlood flood-opacity="0" result="BackgroundImageFix"/>
<feColorMatrix in="SourceAlpha" type="matrix" values="0 0 0 0 0 0 0 0 0 0 0 0 0 0 0 0 0 0 127 0" result="hardAlpha"/>
<feOffset dx="2" dy="2"/>
<feGaussianBlur stdDeviation="8"/>
<feComposite in2="hardAlpha" operator="out"/>
<feColorMatrix type="matrix" values="0 0 0 0 0.0125 0 0 0 0 0.0680556 0 0 0 0 0.166667 0 0 0 0.08 0"/>
<feBlend mode="normal" in2="BackgroundImageFix" result="effect1_dropShadow_406_6976"/>
<feBlend mode="normal" in="SourceGraphic" in2="effect1_dropShadow_406_6976" result="shape"/>
</filter>
</defs>
</svg>
