<svg width="130" height="130" viewBox="0 0 130 130" fill="none" xmlns="http://www.w3.org/2000/svg">
<g filter="url(#filter0_d_406_8026)">
<rect x="15" y="15" width="96" height="96" rx="24" fill="white" shape-rendering="crispEdges"/>
<rect x="14.5" y="14.5" width="97" height="97" rx="24.5" stroke="#52B2E8" stroke-opacity="0.5" shape-rendering="crispEdges"/>
<path d="M58.0307 49.3158H67.9678C68.5372 49.3158 69 48.803 69 48.171C69 48.0717 68.9887 47.9757 68.9675 47.8842L67.8744 43.9203C67.7781 43.3852 67.355 43 66.8638 43H59.1348C58.6436 43 58.2205 43.3852 58.1241 43.9203L57.0201 47.9465C56.9594 48.2828 57.038 48.6313 57.2337 48.8966C57.4294 49.162 57.722 49.3158 58.0307 49.3158Z" fill="#012970"/>
<path d="M60 61.046C60 61.6234 60.56 62.0921 61.25 62.0921C61.94 62.0921 62.5 61.6234 62.5 61.046C62.5 60.4686 61.94 60 61.25 60C60.56 60 60 60.4686 60 61.046Z" fill="#012970"/>
<path d="M62.25 62.7699C62.25 62.8954 62.305 63.2929 63 63.2929C63.695 63.2929 63.75 62.8954 63.75 62.7699C63.75 62.4812 63.49 61.9331 63 61.9331C62.51 61.9331 62.25 62.4812 62.25 62.7699Z" fill="#012970"/>
<path d="M63.5 61.0544C63.5 61.6318 64.06 62.1004 64.75 62.1004C65.44 62.1004 66 61.6318 66 61.0544C66 60.477 65.44 60.0084 64.75 60.0084C64.06 60.0084 63.5 60.477 63.5 61.0544Z" fill="#012970"/>
<path fill-rule="evenodd" clip-rule="evenodd" d="M74.3963 45.1053H72.3443L72.6921 46.8694C72.7573 47.1527 72.7902 47.4433 72.7902 47.735C72.7902 49.835 71.1056 51.5436 69.0334 51.5436H56.9666C55.8371 51.5436 54.7787 51.0354 54.0628 50.1497C53.3467 49.2637 53.0627 48.1112 53.2844 46.9881L53.6557 45.1056H51.6037C49.0654 45.1056 47 47.2 47 49.7745V78.3311C47 80.9056 49.0654 83 51.6037 83H74.3963C76.9346 83 79 80.9056 79 78.3311V49.7745C79 47.2 76.9346 45.1053 74.3963 45.1053ZM54.6667 69.0473H58.4444C59.3649 69.0473 60.1111 69.7935 60.1111 70.714C60.1111 71.6345 59.3649 72.3807 58.4444 72.3807H54.6667C53.7462 72.3807 53 71.6345 53 70.714C53 69.7935 53.7462 69.0473 54.6667 69.0473ZM69.7777 78.714H54.6667C53.7462 78.714 53 77.9678 53 77.0474C53 76.1269 53.7462 75.3807 54.6667 75.3807H69.7777C70.6982 75.3807 71.4444 76.1269 71.4444 77.0474C71.4444 77.9678 70.6982 78.714 69.7777 78.714ZM63 55C65.755 55 68 56.8787 68 59.1841C68 59.7699 67.855 60.3347 67.575 60.8703C67.82 61.5565 67.64 62.3138 67.045 62.8703C66.57 63.318 65.89 63.5732 65.175 63.5732H65.08V64.2762C65.08 64.6736 64.69 65 64.215 65H61.785C61.31 65 60.92 64.6736 60.92 64.2762V63.5732H60.79C60.1 63.5732 59.44 63.3264 58.98 62.8954C58.4 62.3556 58.23 61.6109 58.47 60.9498C58.165 60.3975 58 59.795 58 59.1841C58 56.8787 60.245 55 63 55Z" fill="#012970"/>
</g>
<defs>
<filter id="filter0_d_406_8026" x="0" y="0" width="130" height="130" filterUnits="userSpaceOnUse" color-interpolation-filters="sRGB">
<feFlood flood-opacity="0" result="BackgroundImageFix"/>
<feColorMatrix in="SourceAlpha" type="matrix" values="0 0 0 0 0 0 0 0 0 0 0 0 0 0 0 0 0 0 127 0" result="hardAlpha"/>
<feOffset dx="2" dy="2"/>
<feGaussianBlur stdDeviation="8"/>
<feComposite in2="hardAlpha" operator="out"/>
<feColorMatrix type="matrix" values="0 0 0 0 0.0125 0 0 0 0 0.0680556 0 0 0 0 0.166667 0 0 0 0.08 0"/>
<feBlend mode="normal" in2="BackgroundImageFix" result="effect1_dropShadow_406_8026"/>
<feBlend mode="normal" in="SourceGraphic" in2="effect1_dropShadow_406_8026" result="shape"/>
</filter>
</defs>
</svg>
