<svg width="130" height="130" viewBox="0 0 130 130" fill="none" xmlns="http://www.w3.org/2000/svg">
<g filter="url(#filter0_d_406_9169)">
<rect x="15" y="15" width="96" height="96" rx="24" fill="white" shape-rendering="crispEdges"/>
<rect x="14.5" y="14.5" width="97" height="97" rx="24.5" stroke="#52B2E8" stroke-opacity="0.5" shape-rendering="crispEdges"/>
<path d="M70.6518 56.4329C72.1231 55.3508 73.0466 53.5563 73.0466 51.6203C73.0466 49.7656 72.1982 48.0008 70.7776 46.8992L66.0445 43.2289C65.8525 43.0805 65.6204 43 65.3815 43H48.7116C47.9715 43 47.4359 43.7438 47.6378 44.4922L50.9397 56.6781C51.7598 59.7047 51.1756 63.0148 49.3769 65.532C47.8439 67.6773 47 70.3367 47 73.0187V81.8281C47 82.475 47.5001 83 48.1163 83H65.8697C72.9675 83 78.9309 77.0487 78.9994 69.4602C79.0528 63.5739 75.5638 58.4456 70.6518 56.4329ZM71.9742 75.2133C70.1264 77.1531 67.4957 77.9774 64.9372 77.4187L64.7988 77.3882C62.6821 79.1456 59.5411 78.9699 57.6226 76.7609C55.7993 74.6601 55.8045 71.375 57.6352 69.2813C59.2319 67.4543 61.7436 66.9884 63.806 68.021C64.3217 67.4436 64.9142 66.9273 65.5489 66.4937C65.476 66.3352 65.438 66.1601 65.4388 65.9805L65.4559 62.3695C65.4589 61.8125 65.8332 61.3352 66.3534 61.2257L69.3301 60.6007C69.8183 60.4992 70.3117 60.7476 70.5402 61.2117L71.6766 63.5186L72.1923 64.0593C74.8517 66.8557 75.0608 71.973 71.9742 75.2133ZM70.6139 65.7172C69.9381 65.0078 69.8796 64.9716 69.7737 64.7571L68.9432 63.0719L67.684 63.3368L67.6736 65.5032C68.2414 66.0993 67.9422 65.785 69.028 66.9258C69.4641 67.3828 69.4641 68.125 69.0287 68.5828C68.5962 69.0368 67.8883 69.0433 67.4496 68.5828L67.1169 68.2329C66.2747 68.7421 65.5203 69.4256 64.9446 70.2399C64.5771 70.7619 63.8692 70.8702 63.3729 70.475C62.1114 69.4689 60.3507 69.6403 59.2799 70.8657C58.2239 72.0743 58.2201 73.9703 59.2724 75.182C60.4593 76.5469 62.4642 76.5799 63.6884 75.293C63.9549 75.0142 64.3374 74.8938 64.7058 74.9742L65.3919 75.1243C67.2107 75.522 69.0816 74.9352 70.3951 73.5563C72.0702 71.7978 72.484 69.122 71.4243 66.8985C71.2159 66.4602 70.9435 66.0633 70.6139 65.7172Z" fill="#012970"/>
</g>
<defs>
<filter id="filter0_d_406_9169" x="0" y="0" width="130" height="130" filterUnits="userSpaceOnUse" color-interpolation-filters="sRGB">
<feFlood flood-opacity="0" result="BackgroundImageFix"/>
<feColorMatrix in="SourceAlpha" type="matrix" values="0 0 0 0 0 0 0 0 0 0 0 0 0 0 0 0 0 0 127 0" result="hardAlpha"/>
<feOffset dx="2" dy="2"/>
<feGaussianBlur stdDeviation="8"/>
<feComposite in2="hardAlpha" operator="out"/>
<feColorMatrix type="matrix" values="0 0 0 0 0.0125 0 0 0 0 0.0680556 0 0 0 0 0.166667 0 0 0 0.08 0"/>
<feBlend mode="normal" in2="BackgroundImageFix" result="effect1_dropShadow_406_9169"/>
<feBlend mode="normal" in="SourceGraphic" in2="effect1_dropShadow_406_9169" result="shape"/>
</filter>
</defs>
</svg>
