<svg width="130" height="130" viewBox="0 0 130 130" fill="none" xmlns="http://www.w3.org/2000/svg">
<g filter="url(#filter0_d_406_9610)">
<rect x="15" y="15" width="96" height="96" rx="24" fill="white" shape-rendering="crispEdges"/>
<rect x="14.5" y="14.5" width="97" height="97" rx="24.5" stroke="#52B2E8" stroke-opacity="0.5" shape-rendering="crispEdges"/>
<path d="M63 43C58.9509 43 55.1798 44.2107 52.0273 46.2874C55.5205 48.6446 56.0173 51.2784 56.4593 53.6252C56.9745 56.3598 57.4198 58.7223 62.3211 61.2698C63.0673 61.0735 63.8303 60.9694 64.5985 60.9625C64.3906 60.3281 64.2834 59.661 64.2834 58.979C64.2834 55.4668 67.1407 52.6094 70.6529 52.6094C74.1651 52.6094 77.0224 55.4668 77.0224 58.979C77.0224 60.2708 76.6362 61.5166 75.9055 62.5819C75.2584 63.5252 74.3816 64.2671 73.3525 64.7477C73.1313 69.6939 69.2298 73.6466 64.4653 73.6466C62.0835 73.6466 59.8436 72.6646 58.1836 70.922L55.4523 72.442C54.8783 72.7614 54.2421 72.9261 53.6066 72.9261C53.357 72.9261 53.1075 72.9007 52.8619 72.8493C51.9422 72.6569 51.1595 72.1177 50.6581 71.3309C50.1548 70.5411 49.9897 69.6002 50.1932 68.6817C50.3967 67.763 50.9437 66.98 51.7336 66.4767C51.7388 66.4734 51.7442 66.47 51.7495 66.4667L55.7077 64.033C55.8923 63.9195 56.1048 63.8594 56.3215 63.8594H57.754C58.3424 63.3059 58.9705 62.8265 59.6278 62.4256C55.2049 59.6222 54.6505 56.6833 54.1561 54.0591C53.7019 51.6477 53.3413 49.7342 50.0232 47.7947C45.7279 51.4658 43 56.92 43 63C43 74.028 51.972 83 63 83C74.028 83 83 74.028 83 63C83 51.972 74.028 43 63 43Z" fill="#012970"/>
<path d="M67.5521 62.5694C67.3634 63.1525 66.8352 63.6124 66.1557 63.4645C65.6693 63.3587 65.1729 63.305 64.6802 63.305C62.7452 63.305 60.8245 64.1434 59.2502 65.6702C59.0411 65.9908 58.6799 66.203 58.2687 66.203H56.6529L52.9864 68.4574C52.7281 68.6244 52.5489 68.8838 52.4814 69.1885C52.4134 69.4959 52.4677 69.8094 52.6345 70.0712C52.9716 70.5999 53.693 70.7385 54.3126 70.3939L57.8909 68.4027C58.4476 68.093 59.1466 68.2858 59.4686 68.8309C60.717 70.4033 62.5306 71.3027 64.4654 71.3027C68.0791 71.3027 71.0191 68.1632 71.0191 64.3041C71.0191 63.884 71.125 63.1562 72.1027 62.7347C73.6194 62.0807 74.6788 60.6306 74.6788 58.9789C74.6788 56.7591 72.8729 54.953 70.653 54.953C68.4332 54.953 66.6273 56.7591 66.6273 58.9789C66.6273 59.8302 66.8907 60.6452 67.3891 61.3355C67.6502 61.6975 67.6834 62.1634 67.5521 62.5694Z" fill="#012970"/>
</g>
<defs>
<filter id="filter0_d_406_9610" x="0" y="0" width="130" height="130" filterUnits="userSpaceOnUse" color-interpolation-filters="sRGB">
<feFlood flood-opacity="0" result="BackgroundImageFix"/>
<feColorMatrix in="SourceAlpha" type="matrix" values="0 0 0 0 0 0 0 0 0 0 0 0 0 0 0 0 0 0 127 0" result="hardAlpha"/>
<feOffset dx="2" dy="2"/>
<feGaussianBlur stdDeviation="8"/>
<feComposite in2="hardAlpha" operator="out"/>
<feColorMatrix type="matrix" values="0 0 0 0 0.0125 0 0 0 0 0.0680556 0 0 0 0 0.166667 0 0 0 0.08 0"/>
<feBlend mode="normal" in2="BackgroundImageFix" result="effect1_dropShadow_406_9610"/>
<feBlend mode="normal" in="SourceGraphic" in2="effect1_dropShadow_406_9610" result="shape"/>
</filter>
</defs>
</svg>
