<svg width="130" height="130" viewBox="0 0 130 130" fill="none" xmlns="http://www.w3.org/2000/svg">
<g filter="url(#filter0_d_406_9401)">
<rect x="15" y="15" width="96" height="96" rx="24" fill="white" shape-rendering="crispEdges"/>
<rect x="14.5" y="14.5" width="97" height="97" rx="24.5" stroke="#52B2E8" stroke-opacity="0.5" shape-rendering="crispEdges"/>
<path d="M63 52.0908C65.5104 52.0908 67.5454 50.0558 67.5454 47.5454C67.5454 45.0351 65.5104 43 63 43C60.4896 43 58.4546 45.0351 58.4546 47.5454C58.4546 50.0558 60.4896 52.0908 63 52.0908Z" fill="#012970"/>
<path d="M56.766 61.1818H69.234C70.3082 61.1818 71.1818 60.2389 71.1818 59.0795V58.4971C71.1818 56.9781 70.4298 55.5905 69.218 54.8758C67.7665 54.02 65.5098 53 63 53C60.4902 53 58.2335 54.02 56.782 54.8758C55.5702 55.5904 54.8182 56.9781 54.8182 58.4971V59.0795C54.8182 60.239 55.6918 61.1818 56.766 61.1818Z" fill="#012970"/>
<path d="M51.1818 73.909C53.6922 73.909 55.7272 71.8739 55.7272 69.3636C55.7272 66.8532 53.6922 64.8181 51.1818 64.8181C48.6714 64.8181 46.6364 66.8532 46.6364 69.3636C46.6364 71.8739 48.6714 73.909 51.1818 73.909Z" fill="#012970"/>
<path d="M57.3998 76.694C55.9483 75.8382 53.6916 74.8182 51.1818 74.8182C48.672 74.8182 46.4153 75.8383 44.9638 76.694C43.752 77.4087 43 78.7963 43 80.3153V80.8976C43 82.057 43.8736 82.9999 44.9478 82.9999H57.4158C58.49 82.9999 59.3636 82.057 59.3636 80.8976V80.3153C59.3636 78.7963 58.6117 77.4087 57.3998 76.694Z" fill="#012970"/>
<path d="M74.8181 73.909C77.3285 73.909 79.3635 71.8739 79.3635 69.3636C79.3635 66.8532 77.3285 64.8181 74.8181 64.8181C72.3077 64.8181 70.2727 66.8532 70.2727 69.3636C70.2727 71.8739 72.3077 73.909 74.8181 73.909Z" fill="#012970"/>
<path d="M81.0362 76.694C79.5847 75.8382 77.328 74.8182 74.8182 74.8182C72.3084 74.8182 70.0517 75.8383 68.6002 76.694C67.3883 77.4087 66.6364 78.7963 66.6364 80.3153V80.8977C66.6364 82.0571 67.51 83 68.5842 83H81.0522C82.1264 83 83 82.0571 83 80.8977V80.3153C82.9999 78.7963 82.248 77.4087 81.0362 76.694Z" fill="#012970"/>
<path d="M67.5446 73.9091C67.8118 73.9091 68.0754 73.7919 68.2557 73.5682C68.5691 73.1758 68.5052 72.604 68.1136 72.2898L63.9091 68.9262V63.9091C63.9091 63.4066 63.5025 63 63 63C62.4975 63 62.0909 63.4065 62.0909 63.909V68.9268L57.8864 72.2897C57.4948 72.604 57.4309 73.1757 57.7443 73.5681C57.9246 73.7918 58.1882 73.909 58.4554 73.909C58.6543 73.909 58.855 73.8442 59.0227 73.7102L63 70.5284L66.9772 73.7102C67.145 73.8442 67.3456 73.9091 67.5446 73.9091Z" fill="#012970"/>
</g>
<defs>
<filter id="filter0_d_406_9401" x="0" y="0" width="130" height="130" filterUnits="userSpaceOnUse" color-interpolation-filters="sRGB">
<feFlood flood-opacity="0" result="BackgroundImageFix"/>
<feColorMatrix in="SourceAlpha" type="matrix" values="0 0 0 0 0 0 0 0 0 0 0 0 0 0 0 0 0 0 127 0" result="hardAlpha"/>
<feOffset dx="2" dy="2"/>
<feGaussianBlur stdDeviation="8"/>
<feComposite in2="hardAlpha" operator="out"/>
<feColorMatrix type="matrix" values="0 0 0 0 0.0125 0 0 0 0 0.0680556 0 0 0 0 0.166667 0 0 0 0.08 0"/>
<feBlend mode="normal" in2="BackgroundImageFix" result="effect1_dropShadow_406_9401"/>
<feBlend mode="normal" in="SourceGraphic" in2="effect1_dropShadow_406_9401" result="shape"/>
</filter>
</defs>
</svg>
