<svg width="130" height="130" viewBox="0 0 130 130" fill="none" xmlns="http://www.w3.org/2000/svg">
<g filter="url(#filter0_d_345_4791)">
<rect x="15" y="15" width="96" height="96" rx="24" fill="white" shape-rendering="crispEdges"/>
<rect x="14.5" y="14.5" width="97" height="97" rx="24.5" stroke="#52B2E8" stroke-opacity="0.5" shape-rendering="crispEdges"/>
<path d="M67.1667 83C66.6117 83 66.09 82.7233 65.78 82.2583L62.9417 78H59.6667C58.7467 78 58 77.2533 58 76.3333C58 75.4133 58.7467 74.6667 59.6667 74.6667H63.8333C64.39 74.6667 64.91 74.945 65.22 75.4083L66.96 78.0183L70.675 70.5867C70.9483 70.0433 71.4933 69.69 72.1017 69.6667C72.7483 69.6517 73.2817 69.9533 73.595 70.4733L78.11 78H81.3333C82.2533 78 83 78.7467 83 79.6667C83 80.5867 82.2533 81.3333 81.3333 81.3333H77.1667C76.5817 81.3333 76.0383 81.0267 75.7383 80.525L72.3 74.795L68.6583 82.08C68.3917 82.6117 67.8633 82.9617 67.27 82.9983C67.2367 83 67.2017 83 67.1667 83Z" fill="#012970"/>
<path d="M58 59.6667C62.6024 59.6667 66.3333 55.9357 66.3333 51.3333C66.3333 46.731 62.6024 43 58 43C53.3976 43 49.6667 46.731 49.6667 51.3333C49.6667 55.9357 53.3976 59.6667 58 59.6667Z" fill="#012970"/>
<path d="M54.6667 76.3333C54.6667 73.5767 56.91 71.3333 59.6667 71.3333H63.8333C64.6983 71.3333 65.5317 71.555 66.2633 71.9617L67.695 69.0967C68.4233 67.645 69.81 66.6933 71.385 66.44C69.8683 64.365 67.435 63 64.6667 63H51.3333C46.7317 63 43 66.7317 43 71.3333V76.75C43 77.44 43.56 78 44.25 78H54.9733C54.7867 77.4767 54.6667 76.92 54.6667 76.3333Z" fill="#012970"/>
</g>
<defs>
<filter id="filter0_d_345_4791" x="0" y="0" width="130" height="130" filterUnits="userSpaceOnUse" color-interpolation-filters="sRGB">
<feFlood flood-opacity="0" result="BackgroundImageFix"/>
<feColorMatrix in="SourceAlpha" type="matrix" values="0 0 0 0 0 0 0 0 0 0 0 0 0 0 0 0 0 0 127 0" result="hardAlpha"/>
<feOffset dx="2" dy="2"/>
<feGaussianBlur stdDeviation="8"/>
<feComposite in2="hardAlpha" operator="out"/>
<feColorMatrix type="matrix" values="0 0 0 0 0.0125 0 0 0 0 0.0680556 0 0 0 0 0.166667 0 0 0 0.08 0"/>
<feBlend mode="normal" in2="BackgroundImageFix" result="effect1_dropShadow_345_4791"/>
<feBlend mode="normal" in="SourceGraphic" in2="effect1_dropShadow_345_4791" result="shape"/>
</filter>
</defs>
</svg>
