<svg width="28" height="28" viewBox="0 0 28 28" fill="none" xmlns="http://www.w3.org/2000/svg">
<path d="M25 0H16C15.2044 0 14.4413 0.316071 13.8787 0.87868C13.3161 1.44129 13 2.20435 13 3V9C13 9.26522 13.1054 9.51957 13.2929 9.70711C13.4804 9.89464 13.7348 10 14 10C14.2652 10 14.5196 9.89464 14.7071 9.70711C14.8946 9.51957 15 9.26522 15 9V3C15 2.73478 15.1054 2.48043 15.2929 2.29289C15.4804 2.10536 15.7348 2 16 2H25C25.2652 2 25.5196 2.10536 25.7071 2.29289C25.8946 2.48043 26 2.73478 26 3V25C26 25.2652 25.8946 25.5196 25.7071 25.7071C25.5196 25.8946 25.2652 26 25 26H16C15.7348 26 15.4804 25.8946 15.2929 25.7071C15.1054 25.5196 15 25.2652 15 25V19C15 18.7348 14.8946 18.4804 14.7071 18.2929C14.5196 18.1054 14.2652 18 14 18C13.7348 18 13.4804 18.1054 13.2929 18.2929C13.1054 18.4804 13 18.7348 13 19V25C13 25.7956 13.3161 26.5587 13.8787 27.1213C14.4413 27.6839 15.2044 28 16 28H25C25.7956 28 26.5587 27.6839 27.1213 27.1213C27.6839 26.5587 28 25.7956 28 25V3C28 2.20435 27.6839 1.44129 27.1213 0.87868C26.5587 0.316071 25.7956 0 25 0Z" fill="#012970"/>
<path d="M18.293 17.2931C18.1975 17.3853 18.1213 17.4957 18.0689 17.6177C18.0165 17.7397 17.9889 17.8709 17.9877 18.0037C17.9866 18.1365 18.0119 18.2682 18.0622 18.391C18.1125 18.5139 18.1867 18.6256 18.2806 18.7195C18.3745 18.8134 18.4862 18.8876 18.609 18.9379C18.7319 18.9882 18.8636 19.0135 18.9964 19.0123C19.1292 19.0112 19.2604 18.9836 19.3824 18.9312C19.5044 18.8788 19.6148 18.8026 19.707 18.7071L23.707 14.7071C23.716 14.6981 23.719 14.6861 23.727 14.6771C23.8107 14.5918 23.8784 14.4923 23.927 14.3831C23.927 14.3751 23.927 14.3651 23.933 14.3561C23.9708 14.2555 23.9917 14.1495 23.995 14.0421C23.9949 14.0087 23.9929 13.9753 23.989 13.9421C23.984 13.8583 23.9679 13.7756 23.941 13.6961C23.9315 13.662 23.9198 13.6286 23.906 13.5961C23.8583 13.4847 23.7905 13.3829 23.706 13.2961L19.706 9.29609C19.5174 9.11393 19.2648 9.01314 19.0026 9.01542C18.7404 9.0177 18.4896 9.12287 18.3042 9.30827C18.1188 9.49368 18.0136 9.74449 18.0113 10.0067C18.009 10.2689 18.1098 10.5215 18.292 10.7101L20.586 13.0001H1C0.734784 13.0001 0.48043 13.1055 0.292893 13.293C0.105357 13.4805 0 13.7349 0 14.0001C0 14.2653 0.105357 14.5197 0.292893 14.7072C0.48043 14.8947 0.734784 15.0001 1 15.0001H20.586L18.293 17.2931Z" fill="#012970"/>
</svg>
