<svg width="24" height="24" viewBox="0 0 24 24" fill="none" xmlns="http://www.w3.org/2000/svg">
<g clip-path="url(#clip0_406_7785)">
<path d="M14.25 0H2.75C1.23 0 0 1.23 0 2.75V18.25C0 19.77 1.23 21 2.75 21H10.89C10.01 19.8 9.5 18.34 9.5 16.75C9.5 12.75 12.75 9.5 16.75 9.5C16.83 9.5 16.92 9.5 17 9.51V2.75C17 1.23 15.77 0 14.25 0ZM4 4H8C8.55 4 9 4.45 9 5C9 5.55 8.55 6 8 6H4C3.45 6 3 5.55 3 5C3 4.45 3.45 4 4 4ZM9 14H4C3.45 14 3 13.55 3 13C3 12.45 3.45 12 4 12H9C9.55 12 10 12.45 10 13C10 13.55 9.55 14 9 14ZM13 10H4C3.45 10 3 9.55 3 9C3 8.45 3.45 8 4 8H13C13.55 8 14 8.45 14 9C14 9.55 13.55 10 13 10Z" fill="#012970"/>
<path d="M16.75 22C13.855 22 11.5 19.645 11.5 16.75C11.5 13.855 13.855 11.5 16.75 11.5C19.645 11.5 22 13.855 22 16.75C22 19.645 19.645 22 16.75 22ZM16.75 13.5C14.958 13.5 13.5 14.958 13.5 16.75C13.5 18.542 14.958 20 16.75 20C18.542 20 20 18.542 20 16.75C20 14.958 18.542 13.5 16.75 13.5Z" fill="#012970"/>
<path d="M23.0003 24C22.7443 24 22.4883 23.902 22.2933 23.707L19.0432 20.457C18.6522 20.066 18.6522 19.434 19.0432 19.043C19.4342 18.652 20.0663 18.652 20.4573 19.043L23.7073 22.293C24.0983 22.684 24.0983 23.316 23.7073 23.707C23.5123 23.902 23.2563 24 23.0003 24Z" fill="#012970"/>
</g>
<defs>
<clipPath id="clip0_406_7785">
<rect width="24" height="24" fill="white"/>
</clipPath>
</defs>
</svg>
