<svg width="95" height="95" viewBox="0 0 95 95" fill="none" xmlns="http://www.w3.org/2000/svg">
<ellipse cx="47.458" cy="47.458" rx="47.458" ry="47.458" fill="#BCDFFF"/>
<path d="M93.5452 47.458C93.5452 72.9113 72.9113 93.5453 47.458 93.5453C22.0047 93.5453 1.37076 72.9113 1.37076 47.458C1.37076 22.0047 22.0047 1.37076 47.458 1.37076C72.9113 1.37076 93.5452 22.0047 93.5452 47.458Z" stroke="#151439" stroke-opacity="0.15" stroke-width="2.74153"/>
<path d="M35.4158 74.6941C34.8713 74.5703 34.3177 74.482 33.7846 74.3165C30.4731 73.2877 28.3978 70.5532 28.2529 66.8207C28.1022 62.9471 28.496 59.1287 29.8681 55.5016C30.7539 53.1595 32.0381 51.1351 34.1921 49.8966C35.5208 49.1327 36.9466 48.7722 38.4362 48.8028C38.9065 48.8126 39.4008 49.0677 39.83 49.3191C40.5217 49.7225 41.1621 50.2252 41.8333 50.6703C45.7361 53.2601 49.6412 53.2564 53.5406 50.6618C54.0828 50.3013 54.6353 49.953 55.1433 49.5435C56.077 48.7918 57.1032 48.6986 58.2128 48.8727C61.2389 49.351 63.3769 51.1314 64.8186 53.9725C66.1051 56.5083 66.685 59.2636 66.9418 62.1022C67.0743 63.5602 67.137 65.0316 67.1199 66.4957C67.0708 70.8684 64.2776 74.1227 60.2275 74.6022C60.1271 74.6144 60.03 74.6622 59.9307 74.6941H35.4158ZM47.6778 71.7574V71.75C51.535 71.75 55.3933 71.7868 59.2504 71.739C62.4557 71.6997 64.4237 69.5036 64.3974 66.0641C64.3872 64.7606 64.3381 63.4523 64.2045 62.1574C63.9625 59.8325 63.5139 57.5579 62.4649 55.4685C61.377 53.3018 59.8006 51.899 57.4263 51.7592C57.2162 51.747 56.9742 51.8119 56.7927 51.926C56.2049 52.2975 55.641 52.7132 55.0622 53.1031C50.7496 56.008 46.2841 56.3759 41.6918 53.9492C40.6211 53.3839 39.6439 52.6163 38.6189 51.9505C38.4682 51.8524 38.2878 51.7322 38.1269 51.7396C36.652 51.8107 35.329 52.3086 34.2697 53.4538C33.3896 54.4054 32.7755 55.5482 32.3269 56.7879C31.1808 59.9601 30.9046 63.2818 30.9799 66.6404C31.021 68.476 31.7596 69.9769 33.2766 70.9407C34.288 71.582 35.4078 71.7561 36.5619 71.7549C40.2672 71.7537 43.9737 71.7549 47.679 71.7549L47.6778 71.7574Z" fill="#1E0E62" stroke="#1E0E62" stroke-width="0.562244"/>
<path d="M58.6344 36.6303C58.6538 43.2898 53.6689 48.6593 47.4134 48.717C41.247 48.7734 36.1844 43.3609 36.1525 36.6769C36.1217 29.9904 41.1568 24.5669 47.394 24.5693C53.6186 24.5718 58.615 29.9328 58.6344 36.6303ZM47.3917 45.7802C52.1084 45.7839 55.8959 41.7166 55.9005 36.6438C55.9062 31.5746 52.1198 27.5085 47.3952 27.5061C42.6693 27.5036 38.8887 31.5624 38.8875 36.6401C38.8864 41.7117 42.6682 45.7765 47.3917 45.7802Z" fill="#1E0E62" stroke="#1E0E62" stroke-width="0.562244"/>
</svg>
