<svg width="24" height="24" viewBox="0 0 24 24" fill="none" xmlns="http://www.w3.org/2000/svg">
<path d="M17.6234 10.5732C15.9988 10.5732 14.5085 11.1582 13.3516 12.1285C15.2882 13.0413 16.9105 14.5147 18.0075 16.3386H23.1061C23.7092 16.3386 24.1434 15.7511 23.957 15.1777C23.0897 12.5083 20.5782 10.5732 17.6234 10.5732Z" fill="#012970"/>
<path d="M17.621 8.78908C19.2105 8.78908 20.5037 7.49593 20.5037 5.90641C20.5037 4.31683 19.2105 3.02368 17.621 3.02368C16.0314 3.02368 14.7383 4.31683 14.7383 5.90641C14.7383 7.49593 16.0314 8.78908 17.621 8.78908Z" fill="#012970"/>
<path d="M8.77923 12.8918C4.50771 12.8918 0.923529 15.8906 0.0218668 19.8937C-0.103241 20.449 0.324599 20.9758 0.893827 20.9758H16.6646C17.2339 20.9758 17.6617 20.449 17.5366 19.8937C16.6349 15.8906 13.0507 12.8918 8.77923 12.8918Z" fill="#012970"/>
<path d="M12.8222 7.0657C12.8222 4.83693 11.009 3.02368 8.78024 3.02368C6.55153 3.02368 4.73828 4.83693 4.73828 7.0657C4.73828 9.29447 6.55147 11.1077 8.78024 11.1077C11.009 11.1077 12.8222 9.29447 12.8222 7.0657Z" fill="#012970"/>
</svg>
