<svg width="24" height="24" viewBox="0 0 24 24" fill="none" xmlns="http://www.w3.org/2000/svg">
<path d="M11.5 12.2439C14.5376 12.2439 17 9.78146 17 6.7439C17 3.70633 14.5376 1.2439 11.5 1.2439C8.46243 1.2439 6 3.70633 6 6.7439C6 9.78146 8.46243 12.2439 11.5 12.2439Z" fill="#012970"/>
<path fill-rule="evenodd" clip-rule="evenodd" d="M17.4995 13.938C15.5335 13.938 13.9375 15.534 13.9375 17.5C13.9375 19.466 15.5335 21.063 17.4995 21.063C19.4655 21.063 21.0625 19.466 21.0625 17.5C21.0625 15.534 19.4655 13.938 17.4995 13.938ZM17.4995 15.438C18.6375 15.438 19.5625 16.362 19.5625 17.5C19.5625 18.638 18.6375 19.563 17.4995 19.563C16.3615 19.563 15.4365 18.638 15.4365 17.5C15.4365 16.362 16.3615 15.438 17.4995 15.438Z" fill="#012970"/>
<path fill-rule="evenodd" clip-rule="evenodd" d="M18.25 14.687V13C18.25 12.586 17.914 12.25 17.5 12.25C17.086 12.25 16.75 12.586 16.75 13V14.688C16.75 15.101 17.086 15.438 17.5 15.438C17.914 15.437 18.25 15.101 18.25 14.687Z" fill="#012970"/>
<path fill-rule="evenodd" clip-rule="evenodd" d="M20.0183 16.0419L21.2113 14.8479C21.5043 14.5559 21.5043 14.0799 21.2113 13.7879C20.9193 13.4949 20.4433 13.4949 20.1513 13.7879L18.9573 14.9809C18.6653 15.2739 18.6653 15.7489 18.9573 16.0419C19.2503 16.3339 19.7253 16.3339 20.0183 16.0419Z" fill="#012970"/>
<path fill-rule="evenodd" clip-rule="evenodd" d="M20.3115 18.25H21.9995C22.4135 18.25 22.7495 17.914 22.7495 17.5C22.7495 17.086 22.4135 16.75 21.9995 16.75H20.3115C19.8985 16.75 19.5625 17.086 19.5625 17.5C19.5615 17.914 19.8985 18.25 20.3115 18.25Z" fill="#012970"/>
<path fill-rule="evenodd" clip-rule="evenodd" d="M18.9573 20.019L20.1513 21.212C20.4433 21.505 20.9193 21.505 21.2113 21.212C21.5043 20.92 21.5043 20.444 21.2113 20.152L20.0183 18.958C19.7253 18.666 19.2503 18.666 18.9573 18.958C18.6653 19.251 18.6653 19.726 18.9573 20.019Z" fill="#012970"/>
<path fill-rule="evenodd" clip-rule="evenodd" d="M16.75 20.312V22C16.75 22.414 17.086 22.75 17.5 22.75C17.914 22.75 18.25 22.414 18.25 22V20.312C18.25 19.899 17.914 19.563 17.5 19.562C17.086 19.562 16.75 19.899 16.75 20.312Z" fill="#012970"/>
<path fill-rule="evenodd" clip-rule="evenodd" d="M14.9792 18.958L13.7862 20.152C13.4932 20.444 13.4932 20.92 13.7862 21.212C14.0782 21.505 14.5542 21.505 14.8462 21.212L16.0402 20.019C16.3322 19.726 16.3322 19.251 16.0402 18.958C15.7472 18.666 15.2722 18.666 14.9792 18.958Z" fill="#012970"/>
<path fill-rule="evenodd" clip-rule="evenodd" d="M14.687 16.75H13C12.586 16.75 12.25 17.086 12.25 17.5C12.25 17.914 12.586 18.25 13 18.25H14.687C15.101 18.25 15.438 17.914 15.437 17.5C15.437 17.086 15.101 16.75 14.687 16.75Z" fill="#012970"/>
<path fill-rule="evenodd" clip-rule="evenodd" d="M16.0402 14.9809L14.8462 13.7879C14.5542 13.4949 14.0782 13.4949 13.7862 13.7879C13.4932 14.0799 13.4932 14.5559 13.7862 14.8479L14.9792 16.0419C15.2722 16.3339 15.7472 16.3339 16.0402 16.0419C16.3322 15.7489 16.3322 15.2739 16.0402 14.9809Z" fill="#012970"/>
<path fill-rule="evenodd" clip-rule="evenodd" d="M12.936 21.756C12.402 21.07 12.45 20.075 13.081 19.445L13.275 19.25H13C12.034 19.25 11.25 18.466 11.25 17.5C11.25 16.534 12.034 15.75 13 15.75H13.275L13.081 15.555C12.425 14.9 12.399 13.851 13.003 13.164C12.513 13.126 12.011 13.106 11.5 13.106C8.178 13.106 5.237 13.937 3.411 15.182C2.018 16.132 1.25 17.339 1.25 18.606V20.056C1.25 20.507 1.429 20.94 1.748 21.258C2.067 21.577 2.499 21.756 2.95 21.756H12.936Z" fill="#012970"/>
</svg>
