<svg width="56" height="52" viewBox="0 0 56 52" fill="none" xmlns="http://www.w3.org/2000/svg">
<g id="Layer_1" clip-path="url(#clip0_642_8700)">
<path id="Vector" d="M56.0005 36.4025V40.4836C55.9711 40.6222 55.9291 40.7594 55.9151 40.8993C55.7569 42.4289 55.6463 43.9639 55.4362 45.4866C55.1996 47.2096 54.8089 48.9011 53.9056 50.4307C53.1438 51.7215 52.186 52.214 50.71 51.8573C49.923 51.6667 49.1304 51.288 48.4751 50.8148C46.7358 49.5582 44.9602 48.3784 42.9241 47.6404C41.4733 47.115 39.9875 46.6829 38.5396 46.1506C35.7263 45.1176 33.8624 43.193 33.046 40.3341C32.2786 37.6481 32.3976 34.9141 32.6483 32.18C32.8892 29.5612 33.186 26.9479 33.4423 24.3305C33.5193 23.539 33.5459 22.742 33.5963 21.9532C33.4605 21.9285 33.4087 21.912 33.3555 21.9093C31.507 21.8146 29.7496 21.4374 28.2036 20.3591C28.0986 20.285 27.8465 20.3427 27.6981 20.4112C26.9909 20.7336 26.3271 21.1808 25.5905 21.3948C24.5725 21.6925 23.5026 21.8228 22.3977 22.0355C22.4146 22.3633 22.4188 22.7543 22.4566 23.1425C22.752 26.1687 23.0713 29.1936 23.35 32.2226C23.5516 34.4175 23.6455 36.6151 23.287 38.8073C22.9257 41.0214 22.0911 42.9995 20.3252 44.5113C19.0313 45.6197 17.4755 46.2247 15.8595 46.6842C12.8166 47.5498 10.0088 48.8531 7.53163 50.8189C7.11152 51.1522 6.627 51.4321 6.13128 51.642C4.32343 52.4074 2.93148 51.9355 1.98624 50.2482C1.71597 49.7653 1.48492 49.2523 1.31407 48.7282C0.352034 45.7884 0.105572 42.7362 0.0187503 39.677C-0.139489 34.1102 0.716125 28.6586 2.12068 23.2825C3.38239 18.4523 5.04041 13.7703 7.70107 9.48337C8.78074 7.74528 10.0215 6.1334 11.7621 4.97285C13.675 3.69706 15.6859 3.51872 17.736 4.63538C19.2848 5.47905 20.146 6.88653 20.7663 8.44628C21.7256 10.8566 22.0435 13.3917 22.1961 15.9528C22.2115 16.2121 22.2395 16.47 22.2633 16.7389C22.507 16.7389 22.689 16.7499 22.8697 16.7375C24.6635 16.6058 25.3315 15.9103 25.3637 14.1517C25.3693 13.8471 25.3693 13.5426 25.3693 13.2394C25.3693 9.7495 25.3651 6.25961 25.3721 2.76834C25.3749 1.16332 26.498 -0.00546802 28.0047 1.92405e-05C29.5101 0.0055065 30.6108 1.17429 30.6192 2.78755C30.6262 3.98651 30.6192 5.18548 30.6206 6.38581C30.622 9.01695 30.6038 11.6481 30.6346 14.2792C30.6556 16.0996 31.9131 17.053 33.7238 16.6772C33.819 15.6126 33.8876 14.5426 34.0179 13.4808C34.2755 11.3778 34.704 9.31189 35.7011 7.40919C36.5497 5.78908 37.7568 4.5421 39.6263 4.08391C41.6344 3.5928 43.3596 4.20463 44.9 5.46258C46.9039 7.10053 48.272 9.21724 49.4315 11.456C52.9464 18.2493 54.7934 25.5185 55.6855 33.0498C55.8171 34.1651 55.8969 35.2858 56.002 36.4039L56.0005 36.4025Z" fill="#1890FF"/>
</g>
<defs>
<clipPath id="clip0_642_8700">
<rect width="56" height="52" fill="white"/>
</clipPath>
</defs>
</svg>
