<svg width="130" height="130" viewBox="0 0 130 130" fill="none" xmlns="http://www.w3.org/2000/svg">
<g filter="url(#filter0_d_406_7839)">
<rect x="15" y="15" width="96" height="96" rx="24" fill="white" shape-rendering="crispEdges"/>
<rect x="14.5" y="14.5" width="97" height="97" rx="24.5" stroke="#52B2E8" stroke-opacity="0.5" shape-rendering="crispEdges"/>
<path d="M84.5401 52.9975C83.8073 50.0975 82.2453 47.5968 80.023 45.7659C77.8581 43.9824 75.2061 43 72.5555 43C70.5232 43 68.5849 43.5522 66.794 44.6409C65.3797 45.501 64.1074 46.6707 62.9963 48.1307C60.4688 44.8066 57.132 43 53.4414 43C50.7918 43 48.1408 43.9824 45.9762 45.7659C43.7546 47.5968 42.193 50.0972 41.4601 52.9972C40.9227 55.1242 40.678 58.1093 41.7384 61.6994H48.3976L50.8022 56.8461C51.0207 56.4054 51.4668 56.1269 51.9549 56.1269C52.4434 56.1269 52.8895 56.4054 53.1077 56.8461L57.4771 65.6641L61.8465 56.8461C62.0647 56.4054 62.5109 56.1269 62.9993 56.1269C63.4874 56.1269 63.9335 56.4054 64.1521 56.8461L66.5566 61.6994H75.5348C76.2468 61.6994 76.8235 62.2817 76.8235 62.9998C76.8235 63.7183 76.2468 64.3006 75.5348 64.3006H65.76C65.2719 64.3006 64.8258 64.0222 64.6073 63.5815L62.9993 60.3359L58.6299 69.1539C58.4114 69.5946 57.9652 69.8727 57.4771 69.8727C56.9887 69.8727 56.5425 69.5946 56.3243 69.1539L51.9553 60.3359L50.347 63.5818C50.1284 64.0222 49.6823 64.3006 49.1942 64.3006H42.7039C43.1346 65.2647 43.6609 66.2627 44.3001 67.2908C47.8088 72.9374 53.8916 78.1694 62.3786 82.8411C62.5709 82.9472 62.7834 83 62.9959 83C63.2084 83 63.4206 82.9472 63.6129 82.8415C72.1026 78.1691 78.1871 72.9374 81.6975 67.2911C85.4901 61.1902 85.3367 56.151 84.5401 52.9975Z" fill="#012970"/>
</g>
<defs>
<filter id="filter0_d_406_7839" x="0" y="0" width="130" height="130" filterUnits="userSpaceOnUse" color-interpolation-filters="sRGB">
<feFlood flood-opacity="0" result="BackgroundImageFix"/>
<feColorMatrix in="SourceAlpha" type="matrix" values="0 0 0 0 0 0 0 0 0 0 0 0 0 0 0 0 0 0 127 0" result="hardAlpha"/>
<feOffset dx="2" dy="2"/>
<feGaussianBlur stdDeviation="8"/>
<feComposite in2="hardAlpha" operator="out"/>
<feColorMatrix type="matrix" values="0 0 0 0 0.0125 0 0 0 0 0.0680556 0 0 0 0 0.166667 0 0 0 0.08 0"/>
<feBlend mode="normal" in2="BackgroundImageFix" result="effect1_dropShadow_406_7839"/>
<feBlend mode="normal" in="SourceGraphic" in2="effect1_dropShadow_406_7839" result="shape"/>
</filter>
</defs>
</svg>
